<svg id="Layer_1" data-name="Layer 1" xmlns="http://www.w3.org/2000/svg" width="40" height="40" viewBox="0 0 40 40"><defs><style>.cls-1{fill:#fff;}.cls-2{fill:#0e4a25;}</style></defs><path class="cls-1" d="M20,39.26A19.25,19.25,0,0,1,9.57,3.83,19.25,19.25,0,0,1,38.82,24.07,19.27,19.27,0,0,1,20,39.26Z" transform="translate(0 0)"/><path class="cls-2" d="M20,0V1.5h0a18.53,18.53,0,1,1-10,3,18.44,18.44,0,0,1,10-3V0m0,0a20,20,0,0,0,0,40A20,20,0,0,0,20,0Z" transform="translate(0 0)"/><rect class="cls-1" x="15.3" y="12.25" width="1.5" height="15.5"/><path class="cls-2" d="M16.05,13v0m1.5-1.5h-3v17h3v-17Z" transform="translate(0 0)"/><rect class="cls-1" x="23.2" y="12.25" width="1.5" height="15.5"/><path class="cls-2" d="M24,13v0m1.5-1.5h-3v17h3v-17Z" transform="translate(0 0)"/></svg>