<?xml version="1.0" standalone="no"?>
<!DOCTYPE svg PUBLIC "-//W3C//DTD SVG 1.1//EN" "http://www.w3.org/Graphics/SVG/1.1/DTD/svg11.dtd" >
<svg xmlns="http://www.w3.org/2000/svg" xmlns:xlink="http://www.w3.org/1999/xlink" version="1.1">
<metadata>
Created by FontForge 20170731 at Mon Nov 22 11:45:11 2021
 By Aleksey,,,
Copyright (c) 2015, 2018 by Jakob Runge, under exclusive license to TypeMates. All rights reserved.
</metadata>
<defs>
<font id="CeraPro-Light" horiz-adv-x="1146" >
  <font-face 
    font-family="Cera Pro"
    font-weight="300"
    font-stretch="normal"
    units-per-em="2048"
    panose-1="0 0 4 0 0 0 0 0 0 0"
    ascent="1655"
    descent="-393"
    x-height="989"
    cap-height="1352"
    bbox="-881 -504 2613 2048"
    underline-thickness="92"
    underline-position="-296"
    unicode-range="U+0020-FB02"
  />
<missing-glyph horiz-adv-x="1441" 
d="M201 1352h1042v-1352h-1042v1352zM1155 80v1192h-872z" />
    <glyph glyph-name="fi" unicode="fi" horiz-adv-x="1095" 
d="M309 1255v-266h260v-94h-260v-895h-102v895h-144v94h144v271q0 149 79 222.5t220 73.5q60 0 112 -12v-90q-41 8 -94 8q-215 0 -215 -207zM803 0v989h102v-989h-102zM764 1370q0 37 26 63.5t64 26.5q37 0 63.5 -26.5t26.5 -63.5t-26.5 -63.5t-63.5 -26.5q-38 0 -64 26.5
t-26 63.5z" />
    <glyph glyph-name="fl" unicode="fl" horiz-adv-x="1095" 
d="M309 1255v-266h260v-94h-260v-895h-102v895h-144v94h144v271q0 149 79 222.5t220 73.5q60 0 112 -12v-90q-41 8 -94 8q-215 0 -215 -207zM803 0v1536h102v-1536h-102z" />
    <glyph glyph-name=".notdef" horiz-adv-x="1441" 
d="M201 1352h1042v-1352h-1042v1352zM1155 80v1192h-872z" />
    <glyph glyph-name=".null" horiz-adv-x="0" 
 />
    <glyph glyph-name="nonmarkingreturn" horiz-adv-x="682" 
 />
    <glyph glyph-name="space" unicode=" " horiz-adv-x="573" 
 />
    <glyph glyph-name="exclam" unicode="!" horiz-adv-x="583" 
d="M248 397l-21 955h127l-18 -955h-88zM190 78q0 44 29.5 73t71.5 29t72 -29t30 -73q0 -42 -30 -70t-72 -28t-71.5 28t-29.5 70z" />
    <glyph glyph-name="quotedbl" unicode="&#x22;" horiz-adv-x="880" 
d="M205 846l35 506h125l-76 -506h-84zM530 846l35 506h125l-76 -506h-84z" />
    <glyph glyph-name="numbersign" unicode="#" horiz-adv-x="1189" 
d="M1128 893h-196l-58 -434h209v-90h-221l-51 -369h-90l49 369h-432l-51 -369h-92l49 369h-183v90h195l59 434h-206v90h219l49 369h94l-51 -369h432l49 369h94l-51 -369h184v-90zM350 459h432l58 434h-432z" />
    <glyph glyph-name="dollar" unicode="$" horiz-adv-x="1095" 
d="M598 47v-235h-104v237q-128 13 -231 85.5t-173 193.5l80 55q131 -211 324 -238v523l-29 12q-70 34 -115 61.5t-85.5 65.5t-59.5 84.5t-19 105.5q0 121 85.5 200t222.5 97v244h104v-242q207 -15 330 -209l-74 -57q-56 80 -116.5 120.5t-139.5 47.5v-467l61 -29
q148 -67 219.5 -143.5t71.5 -189.5q0 -139 -100 -226q-101 -87 -252 -96zM494 778v418q-91 -14 -145 -63t-54 -132q0 -80 46.5 -127.5t152.5 -95.5zM842 367q0 82 -55 137.5t-175 109.5l-14 7v-478q111 11 177.5 70t66.5 154z" />
    <glyph glyph-name="percent" unicode="%" horiz-adv-x="1708" 
d="M145 1047q0 136 97 230.5t231 94.5t231 -94.5t97 -230.5t-97 -231t-231 -95t-231 95t-97 231zM418 0l778 1352h96l-776 -1352h-98zM709 1047q0 103 -68 172t-168 69t-166.5 -69t-66.5 -172t66.5 -172.5t166.5 -69.5t168 69.5t68 172.5zM907 307q0 136 96 231t232 95
q134 0 231 -95t97 -231t-97 -230.5t-231 -94.5q-136 0 -232 94.5t-96 230.5zM1468 307q0 103 -66.5 172.5t-166.5 69.5t-167 -69.5t-67 -172.5t67 -172t167 -69t166.5 69t66.5 172z" />
    <glyph glyph-name="ampersand" unicode="&#x26;" horiz-adv-x="1236" 
d="M1194 596l-31 -49q-4 -8 -78 -121q-61 -92 -114 -162l221 -264h-131l-156 184q-90 -102 -186.5 -153t-212.5 -51q-171 0 -285.5 96.5t-114.5 242.5q0 110 72 207q78 100 252 226q-87 107 -123.5 182.5t-36.5 155.5q0 127 78 204.5t203 77.5q122 0 201 -74.5t79 -191.5
q0 -95 -62.5 -184t-195.5 -187l332 -393q50 68 166 250l37 59zM375 1090q0 -66 30.5 -127.5t108.5 -155.5q113 85 163 154.5t50 142.5q0 78 -47 124t-129 46q-85 0 -130.5 -48t-45.5 -136zM840 262l-351 416q-171 -131 -222.5 -196.5t-51.5 -151.5q0 -109 82 -179.5
t209 -70.5q184 0 334 182z" />
    <glyph glyph-name="quotesingle" unicode="'" horiz-adv-x="557" 
d="M205 846l35 506h125l-76 -506h-84z" />
    <glyph glyph-name="parenleft" unicode="(" horiz-adv-x="661" 
d="M170 614q0 384 111 592q115 210 278 291l43 -74q-140 -84 -233 -274q-95 -192 -95 -535q0 -341 95 -536q94 -193 233 -273l-43 -73q-163 78 -278 291q-111 212 -111 591z" />
    <glyph glyph-name="parenright" unicode=")" horiz-adv-x="661" 
d="M104 -268l-45 73q140 81 234 273q96 197 96 536q0 341 -96 535q-93 189 -234 274l45 74q164 -83 275 -291q113 -207 113 -592q0 -381 -113 -591q-111 -208 -275 -291z" />
    <glyph glyph-name="asterisk" unicode="*" horiz-adv-x="786" 
d="M686 1348l-199 -127l199 -129l-37 -62l-209 109l-12 -236h-70l-12 236l-209 -109l-35 62l197 129l-197 127l35 61l209 -109l12 236h70l12 -236l209 109z" />
    <glyph glyph-name="plus" unicode="+" 
d="M524 184v408h-397v92h397v406h103v-406h391v-92h-391v-408h-103z" />
    <glyph glyph-name="comma" unicode="," horiz-adv-x="573" 
d="M205 -369l35 523h127l-74 -523h-88z" />
    <glyph glyph-name="hyphen" unicode="-" horiz-adv-x="702" 
d="M117 592v90h467v-90h-467z" />
    <glyph glyph-name="period" unicode="." horiz-adv-x="573" 
d="M186 78q0 44 28.5 73t70.5 29q44 0 73 -28t29 -74q0 -42 -29.5 -70t-72.5 -28q-39 0 -69 28t-30 70z" />
    <glyph glyph-name="slash" unicode="/" horiz-adv-x="1224" 
d="M18 -248l1072 1845h116l-1071 -1845h-117z" />
    <glyph glyph-name="zero" unicode="0" horiz-adv-x="1243" 
d="M145 688q0 310 117 498q119 186 359 186t356 -186q119 -183 119 -498q0 -310 -117 -510q-116 -198 -358 -198q-243 0 -359 198q-117 200 -117 510zM985 688q0 280 -89 433t-275 153q-185 0 -274 -153t-89 -433q0 -275 86 -442q88 -166 277 -166q191 0 276 166
q88 166 88 442z" />
    <glyph glyph-name="one" unicode="1" horiz-adv-x="757" 
d="M475 1352h43v-1352h-106v1231l-314 -103l-24 93z" />
    <glyph glyph-name="two" unicode="2" horiz-adv-x="1124" 
d="M295 96h719v-96h-916v31l490 508q135 142 192.5 236.5t57.5 195.5q0 125 -81 214t-214 89q-134 0 -219.5 -92.5t-85.5 -216.5q0 -59 14 -119h-111q-14 52 -14 123q0 103 50 194t146.5 150t217.5 59q178 0 293.5 -113.5t115.5 -281.5q0 -99 -39 -178q-34 -79 -85 -143.5
t-162 -180.5z" />
    <glyph glyph-name="three" unicode="3" horiz-adv-x="1089" 
d="M973 420q0 -132 -65.5 -234t-170.5 -154t-229 -52q-279 0 -445 266l78 55q138 -221 367 -221q156 0 254 94q100 93 100 246q0 148 -99.5 233.5t-275.5 85.5h-114v33l389 481h-612v99h784v-35l-393 -486q82 0 158 -26.5t137.5 -76t99 -129.5t37.5 -179z" />
    <glyph glyph-name="four" unicode="4" horiz-adv-x="1093" 
d="M1042 358v-94h-206v-264h-107v264h-680v35l453 1053h110l-428 -994h545v488h107v-488h206z" />
    <glyph glyph-name="five" unicode="5" horiz-adv-x="1126" 
d="M1010 420q0 -100 -38 -184t-102 -139.5t-146.5 -86t-172.5 -30.5q-290 0 -455 264l76 55q138 -221 377 -221q153 0 251.5 95.5t98.5 246.5q0 150 -98.5 234.5t-276.5 84.5h-301v613h713v-97h-606v-434q114 13 215 13q96 0 179 -26t147.5 -76t101.5 -130t37 -182z" />
    <glyph glyph-name="six" unicode="6" horiz-adv-x="1118" 
d="M1004 420q0 -185 -129 -312.5t-316 -127.5t-315.5 128t-128.5 314q0 105 37 186q42 86 122 205l27 41l336 498h127l-367 -537q77 41 170 41q182 0 309.5 -127.5t127.5 -308.5zM897 418q0 146 -97.5 245t-240.5 99t-241.5 -99t-98.5 -245q0 -147 98 -244.5t242 -97.5
q143 0 240.5 98.5t97.5 243.5z" />
    <glyph glyph-name="seven" unicode="7" horiz-adv-x="1003" 
d="M68 1352h882v-35l-714 -1317h-115l684 1255h-737v97z" />
    <glyph glyph-name="eight" unicode="8" horiz-adv-x="1171" 
d="M1047 338q0 -158 -126 -258t-335 -100q-208 0 -334.5 100.5t-126.5 259.5q0 250 348 371q-283 116 -283 338q0 152 113 237q115 86 283 86q167 0 282 -86q113 -85 113 -239q0 -225 -283 -336q349 -121 349 -373zM586 762q151 59 219.5 121.5t68.5 160.5q0 107 -81 171.5
t-207 64.5q-127 0 -209 -64.5t-82 -171.5q0 -96 69.5 -160t221.5 -122zM938 340q-2 52 -19 94.5t-44 73t-74 58t-94.5 48t-120.5 45.5q-73 -25 -120.5 -45.5t-95 -48.5t-74.5 -58t-44 -72.5t-19 -94.5q0 -123 94.5 -195.5t258.5 -72.5t258 72.5t94 195.5z" />
    <glyph glyph-name="nine" unicode="9" horiz-adv-x="1118" 
d="M1004 930q0 -107 -41 -191q-43 -88 -123 -204l-25 -37l-336 -498h-125l369 539q-71 -41 -172 -41q-182 0 -309 126t-127 308q0 185 128.5 312.5t315.5 127.5t316 -128t129 -314zM897 934q0 147 -97.5 244.5t-240.5 97.5q-144 0 -242 -97.5t-98 -244.5q0 -146 98.5 -245
t241.5 -99t240.5 99t97.5 245z" />
    <glyph glyph-name="colon" unicode=":" horiz-adv-x="573" 
d="M186 893q0 44 28.5 73t70.5 29q44 0 73 -28t29 -74q0 -42 -29.5 -70t-72.5 -28q-39 0 -69 28t-30 70zM186 78q0 44 28.5 73t70.5 29q44 0 73 -28t29 -74q0 -42 -29.5 -70t-72.5 -28q-39 0 -69 28t-30 70z" />
    <glyph glyph-name="semicolon" unicode=";" horiz-adv-x="573" 
d="M186 893q0 44 28.5 73t70.5 29q44 0 73 -28t29 -74q0 -42 -29.5 -70t-72.5 -28q-39 0 -69 28t-30 70zM205 -369l35 523h127l-74 -523h-88z" />
    <glyph glyph-name="less" unicode="&#x3c;" 
d="M991 1024v-98l-686 -285l686 -287v-100l-872 369v34z" />
    <glyph glyph-name="equal" unicode="=" 
d="M147 799v94h852v-94h-852zM147 383v92h852v-92h-852z" />
    <glyph glyph-name="greater" unicode="&#x3e;" 
d="M156 1024l872 -367v-34l-872 -369v100l686 287l-686 285v98z" />
    <glyph glyph-name="question" unicode="?" horiz-adv-x="905" 
d="M348 485q0 66 37 120.5t131 139.5q87 80 139 152q39 56 39 137q0 105 -67.5 173.5t-167.5 68.5q-92 0 -159 -55t-97 -158l-90 35q35 128 127 201t219 73q144 0 244 -95.5t100 -236.5q0 -95 -47.5 -169.5t-161.5 -178.5q-84 -79 -113.5 -121.5t-29.5 -95.5q0 -29 12 -78
h-94q-21 38 -21 88zM326 80q0 43 30 71.5t72 28.5t72 -28.5t30 -71.5t-30 -71.5t-72 -28.5t-72 28.5t-30 71.5z" />
    <glyph glyph-name="at" unicode="@" horiz-adv-x="1867" 
d="M1759 592q0 -231 -138 -370.5t-357 -139.5h-29v160q-44 -84 -134.5 -133.5t-197.5 -49.5q-173 0 -290 124.5t-117 305.5t117.5 305t291.5 124q104 0 192 -45.5t132 -122.5v151h98v-727q151 12 241.5 123t90.5 293q3 177 -88.5 328t-254.5 239.5t-358 85.5
q-153 3 -293 -53.5t-241 -154.5t-159.5 -234.5t-55.5 -286.5q-3 -150 56 -287t160 -235t240.5 -155t290.5 -54q152 0 283 49l23 -82q-139 -59 -316 -59q-168 -3 -324.5 62.5t-270 176.5t-180 264.5t-62.5 319.5q-3 168 64 321.5t181.5 264t271.5 174.5t328 61
q110 1 216 -25.5t194.5 -75t163 -118.5t126 -152t79.5 -177.5t26 -194.5zM1225 492q0 163 -90 247t-217 84q-136 0 -225 -95.5t-89 -238.5q0 -142 89 -237.5t225 -95.5q128 0 217.5 87t89.5 249z" />
    <glyph glyph-name="A" unicode="A" horiz-adv-x="1359" 
d="M1167 0l-133 322h-710l-134 -322h-110l579 1372h43l578 -1372h-113zM680 1182l-315 -764h628z" />
    <glyph glyph-name="B" unicode="B" horiz-adv-x="1255" 
d="M1157 385q0 -170 -113 -277.5t-307 -107.5h-536v1352h458q168 0 266.5 -91t98.5 -239q0 -90 -40.5 -160.5t-115.5 -113.5q136 -32 212.5 -129t76.5 -234zM649 1257l-342 -2v-479h342q126 0 195 65.5t69 174.5q0 110 -67.5 175.5t-196.5 65.5zM1049 387q0 132 -85.5 212.5
t-236.5 80.5h-420v-584h420q151 0 236.5 80t85.5 211z" />
    <glyph glyph-name="C" unicode="C" horiz-adv-x="1458" 
d="M109 676q-3 141 52 271.5t148.5 224t222.5 148t269 52.5q169 0 312 -72.5t235 -201.5l-80 -64q-81 114 -201 177t-264 63q-160 3 -295.5 -77t-212.5 -218.5t-74 -300.5q-3 -164 74 -302.5t212.5 -218t295.5 -77.5q145 0 265 62t200 175l80 -63q-92 -129 -235 -201.5
t-312 -72.5q-139 -3 -268.5 52t-223 149t-148.5 224t-52 271z" />
    <glyph glyph-name="D" unicode="D" horiz-adv-x="1425" 
d="M201 0v1352h381q172 0 311.5 -50.5t232 -140.5t142 -213.5t49.5 -269.5q2 -144 -48 -269t-143.5 -216t-234 -142.5t-309.5 -50.5h-381zM307 96h275q145 0 263.5 45t197 123t121 184.5t42.5 229.5t-42 228.5t-120.5 183t-197 121.5t-264.5 44h-275v-1159z" />
    <glyph glyph-name="E" unicode="E" horiz-adv-x="1153" 
d="M201 0v1352h846v-97h-740v-477h576v-96h-576v-586h764v-96h-870z" />
    <glyph glyph-name="F" unicode="F" horiz-adv-x="1060" 
d="M201 0v1352h825v-97h-719v-522h598v-96h-598v-637h-106z" />
    <glyph glyph-name="G" unicode="G" horiz-adv-x="1525" 
d="M109 676q-3 141 52 271.5t148.5 224t222.5 148t269 52.5q165 0 306.5 -70t233.5 -198l-79 -64q-80 111 -199 172.5t-260 61.5q-163 0 -297 -79t-209.5 -215.5t-75.5 -301.5q0 -167 75.5 -304.5t210 -216.5t300.5 -79q157 0 286 71t205 195v223h-497v99h604v-344
q-87 -159 -249 -250.5t-355 -91.5q-140 -3 -269 52t-222.5 149t-148 224t-52.5 271z" />
    <glyph glyph-name="H" unicode="H" horiz-adv-x="1445" 
d="M201 0v1352h106v-574h832v574h106v-1352h-106v682h-832v-682h-106z" />
    <glyph glyph-name="I" unicode="I" horiz-adv-x="505" 
d="M201 0v1352h106v-1352h-106z" />
    <glyph glyph-name="J" unicode="J" horiz-adv-x="749" 
d="M57 0v94q71 -14 152 -14q118 0 176.5 49.5t58.5 169.5v1053h107v-1059q0 -156 -87 -234.5t-241 -78.5q-85 0 -166 20z" />
    <glyph glyph-name="K" unicode="K" horiz-adv-x="1255" 
d="M201 0v1352h106v-1352h-106zM477 729l705 -729h-138l-708 731l655 621h142z" />
    <glyph glyph-name="L" unicode="L" horiz-adv-x="1021" 
d="M201 0v1352h106v-1256h666v-96h-772z" />
    <glyph glyph-name="M" unicode="M" horiz-adv-x="1607" 
d="M1366 1372h41v-1372h-107v1098l-475 -676h-41l-477 676v-1098h-106v1372h41l563 -803z" />
    <glyph glyph-name="N" unicode="N" horiz-adv-x="1445" 
d="M1139 1352h106v-1372h-43l-895 1144v-1124h-106v1372h41l897 -1153v1133z" />
    <glyph glyph-name="O" unicode="O" horiz-adv-x="1603" 
d="M109 676q-3 141 52 271.5t148.5 224t222.5 148t269 52.5q138 2 267 -52.5t224 -148t150.5 -224t52.5 -271.5q3 -141 -52.5 -271t-150 -224t-224 -149t-267.5 -52q-139 -3 -268.5 52t-223 149t-148.5 224t-52 271zM1382 678q3 162 -74 300.5t-212 218.5t-293 77
q-160 3 -295.5 -77t-212.5 -218.5t-74 -300.5q-3 -164 74 -302.5t212.5 -218t295.5 -77.5q158 -3 293 77.5t212 219.5t74 301z" />
    <glyph glyph-name="P" unicode="P" horiz-adv-x="1155" 
d="M201 0v1352h458q187 0 298.5 -104t111.5 -267q0 -166 -111 -270.5t-299 -104.5h-352v-606h-106zM307 702h348q143 0 223 75.5t80 201.5t-79.5 201t-223.5 75h-348v-553z" />
    <glyph glyph-name="Q" unicode="Q" horiz-adv-x="1603" 
d="M2116 -295v-86q-111 -20 -209 -20q-511 0 -826 438q-129 -57 -280 -57q-139 -3 -268.5 52t-223 149t-148.5 224t-52 271q-3 141 52 271.5t148.5 224t222.5 148t269 52.5q138 2 267 -52.5t224 -148t150.5 -224t52.5 -271.5q0 -184 -87.5 -341.5t-238.5 -250.5
q149 -197 332.5 -294t413.5 -97q99 0 201 12zM803 80q120 -2 228.5 45t185.5 127.5t121.5 192t43.5 233.5q3 162 -74 300.5t-212 218.5t-295 77q-160 3 -294.5 -77t-211 -218t-74.5 -301q-3 -164 74 -302.5t212.5 -218t295.5 -77.5z" />
    <glyph glyph-name="R" unicode="R" horiz-adv-x="1257" 
d="M1217 0h-125l-455 606h-330v-606h-106v1352h458q187 0 298.5 -104t111.5 -267q0 -143 -82 -242t-227 -125zM307 1255v-553h348q143 0 223 75.5t80 201.5t-79.5 201t-223.5 75h-348z" />
    <glyph glyph-name="S" unicode="S" horiz-adv-x="1138" 
d="M94 266l80 60q157 -246 408 -246q137 0 222 69.5t85 186.5q-2 44 -12 76.5t-26 57.5t-49 49.5t-67.5 44.5t-95.5 50l-154 74q-58 27 -96.5 48t-79 52t-64.5 64.5t-40.5 80.5t-18.5 105q0 151 113.5 242.5t280.5 91.5q127 0 232.5 -57.5t172.5 -157.5l-80 -59
q-125 176 -325 176q-119 0 -199 -57q-84 -60 -84 -173q2 -36 8.5 -63.5t22 -51t31 -40t47 -36.5t57.5 -33.5t74 -37.5l151 -73q165 -77 238 -159.5t73 -211.5q0 -158 -119 -258t-300 -100q-152 0 -279 75.5t-207 210.5z" />
    <glyph glyph-name="T" unicode="T" horiz-adv-x="1193" 
d="M543 0v1255h-494v97h1096v-97h-496v-1255h-106z" />
    <glyph glyph-name="U" unicode="U" horiz-adv-x="1398" 
d="M180 524v828h107v-832q0 -208 112 -324t301 -116q188 0 300 116.5t112 323.5v832h107v-828q0 -253 -142 -398.5t-377 -145.5q-237 0 -378.5 145t-141.5 399z" />
    <glyph glyph-name="V" unicode="V" horiz-adv-x="1359" 
d="M1165 1352h115l-578 -1372h-43l-579 1372h115l485 -1170z" />
    <glyph glyph-name="W" unicode="W" horiz-adv-x="2195" 
d="M1978 1352h113l-500 -1372h-43l-450 1181l-451 -1181h-43l-500 1372h115l410 -1153l448 1173h41l451 -1173z" />
    <glyph glyph-name="X" unicode="X" horiz-adv-x="1204" 
d="M1130 0h-122l-406 606l-405 -606h-123l469 696l-437 656h123l375 -572l369 572h123l-430 -660z" />
    <glyph glyph-name="Y" unicode="Y" horiz-adv-x="1255" 
d="M1151 1352l-471 -781v-571h-107v575l-469 777h117l408 -678l405 678h117z" />
    <glyph glyph-name="Z" unicode="Z" horiz-adv-x="1208" 
d="M242 96h888v-96h-1052v35l885 1220h-797v97h962v-35z" />
    <glyph glyph-name="bracketleft" unicode="[" horiz-adv-x="696" 
d="M219 -268v1761h363v-92h-260v-1575h260v-94h-363z" />
    <glyph glyph-name="backslash" unicode="\" horiz-adv-x="1224" 
d="M1090 -248l-1072 1845h117l1071 -1845h-116z" />
    <glyph glyph-name="bracketright" unicode="]" horiz-adv-x="696" 
d="M115 -268v94h260v1575h-260v92h360v-1761h-360z" />
    <glyph glyph-name="asciicircum" unicode="^" horiz-adv-x="1026" 
d="M893 592h-109l-270 592l-270 -592h-111l359 780h43z" />
    <glyph glyph-name="underscore" unicode="_" horiz-adv-x="1030" 
d="M96 -254v90h836v-90h-836z" />
    <glyph glyph-name="grave" unicode="`" horiz-adv-x="1228" 
d="M688 1155l-231 424v18h127l186 -442h-82z" />
    <glyph glyph-name="a" unicode="a" horiz-adv-x="1067" 
d="M893 621v-621h-98v156q-54 -85 -146 -130.5t-209 -45.5q-144 0 -241 69q-99 71 -99 199q0 121 94 192.5t250 71.5h344v113q0 139 -72.5 213.5t-199.5 74.5q-92 0 -164.5 -40.5t-136.5 -124.5l-72 57q144 205 379 205q170 0 270.5 -101.5t100.5 -287.5zM788 369v55h-333
q-121 0 -184.5 -44t-63.5 -126q0 -87 69.5 -135.5t174.5 -48.5q138 0 237.5 86.5t99.5 212.5z" />
    <glyph glyph-name="b" unicode="b" horiz-adv-x="1298" 
d="M1184 494q0 -214 -143 -364t-349 -150q-129 0 -238 59.5t-165 159.5v-199h-99v1536h103v-739q57 98 164.5 155.5t234.5 57.5q136 0 249 -68t178 -187t65 -261zM1077 496q0 179 -112.5 298t-282.5 119q-79 0 -148 -26t-123.5 -76t-86 -132t-31.5 -185q0 -83 21 -152
t57 -117.5t85.5 -82.5t106.5 -50t119 -16q169 0 282 121t113 299z" />
    <glyph glyph-name="c" unicode="c" horiz-adv-x="1130" 
d="M115 496q-2 103 38.5 199t109.5 166t165 110.5t199 38.5q122 0 225.5 -53.5t173.5 -149.5l-74 -59q-125 165 -325 165q-171 0 -288.5 -121.5t-117.5 -295.5q0 -177 117 -298.5t287 -121.5q198 0 327 166l74 -60q-70 -95 -174 -148.5t-227 -53.5q-137 -3 -256 67
t-188 190.5t-66 258.5z" />
    <glyph glyph-name="d" unicode="d" horiz-adv-x="1298" 
d="M1006 1536h102v-1536h-98v201q-55 -102 -164.5 -161.5t-239.5 -59.5q-206 0 -348.5 150t-142.5 364q0 143 63 261t176 186.5t252 68.5q128 0 235.5 -57.5t164.5 -155.5v739zM1006 494q0 103 -32 185t-86.5 132t-123.5 76t-148 26q-170 0 -282.5 -119t-112.5 -298
q0 -178 113 -299t282 -121q78 0 147.5 26t124 76t86.5 131.5t32 184.5z" />
    <glyph glyph-name="e" unicode="e" horiz-adv-x="1171" 
d="M1049 471h-828q9 -173 124.5 -284t283.5 -111q198 0 329 155l66 -67q-74 -87 -177 -135.5t-220 -48.5q-103 -2 -199 38.5t-165 110.5t-109.5 166t-38.5 199q-2 103 37.5 199.5t107.5 166.5t161 111t193 39q187 0 315 -123.5t128 -317.5q0 -67 -8 -98zM225 563h725
q6 157 -93.5 254.5t-246.5 97.5q-150 0 -256 -100q-108 -99 -129 -252z" />
    <glyph glyph-name="f" unicode="f" horiz-adv-x="581" 
d="M309 1255v-266h260v-94h-260v-895h-102v895h-144v94h144v271q0 149 79 222.5t220 73.5q60 0 112 -12v-90q-41 8 -94 8q-215 0 -215 -207z" />
    <glyph glyph-name="g" unicode="g" horiz-adv-x="1310" 
d="M1022 989h98v-901q0 -220 -130.5 -348.5t-342.5 -128.5q-136 0 -255 51.5t-199 140.5l63 70q166 -166 389 -166q170 0 271.5 100t101.5 277v131q-57 -97 -166 -154t-236 -57q-206 0 -347.5 146.5t-141.5 357.5q0 139 64 254t176.5 181.5t248.5 66.5q130 0 240.5 -59
t165.5 -158v196zM1018 508q0 99 -32 177.5t-87 126.5t-123.5 73.5t-144.5 25.5q-171 0 -284.5 -117t-113.5 -288t113.5 -288.5t284.5 -117.5q77 0 146 26t123.5 75.5t86 128.5t31.5 178z" />
    <glyph glyph-name="h" unicode="h" horiz-adv-x="1142" 
d="M967 625v-625h-103v616q0 134 -74.5 215.5t-201.5 81.5q-129 0 -212 -84t-83 -213v-616h-103v1536h103v-682q108 156 313 156q166 0 263.5 -106t97.5 -279z" />
    <glyph glyph-name="i" unicode="i" horiz-adv-x="483" 
d="M190 0v989h103v-989h-103zM152 1370q0 37 26 63.5t64 26.5q37 0 63.5 -26.5t26.5 -63.5t-26.5 -63.5t-63.5 -26.5q-38 0 -64 26.5t-26 63.5z" />
    <glyph glyph-name="j" unicode="j" horiz-adv-x="483" 
d="M-119 -377v90q41 -8 94 -8q107 0 161 48t54 159v1077h103v-1081q0 -149 -79 -223t-220 -74q-60 0 -113 12zM152 1370q0 37 26 63.5t64 26.5q37 0 63.5 -26.5t26.5 -63.5t-26.5 -63.5t-63.5 -26.5q-38 0 -64 26.5t-26 63.5z" />
    <glyph glyph-name="k" unicode="k" horiz-adv-x="987" 
d="M190 0v1536h103v-1536h-103zM455 555l497 -555h-135l-493 557l444 432h139z" />
    <glyph glyph-name="l" unicode="l" horiz-adv-x="483" 
d="M190 0v1536h103v-1536h-103z" />
    <glyph glyph-name="m" unicode="m" horiz-adv-x="1773" 
d="M1599 625v-625h-104v616q0 135 -70 216t-192 81q-123 0 -205 -81.5t-82 -198.5v-633h-102v616q0 135 -71 216t-193 81q-127 0 -207 -83.5t-80 -213.5v-616h-103v989h99v-129q50 72 128.5 111t176.5 39q114 0 193 -50.5t118 -142.5q51 89 139 141t203 52q164 0 258 -105
t94 -280z" />
    <glyph glyph-name="n" unicode="n" horiz-adv-x="1142" 
d="M967 625v-625h-103v618q0 132 -75 213.5t-201 81.5q-129 0 -213 -84q-82 -82 -82 -211v-618h-103v989h99v-133q107 154 315 154q168 0 265.5 -105.5t97.5 -279.5z" />
    <glyph glyph-name="o" unicode="o" horiz-adv-x="1253" 
d="M115 496q-2 105 38.5 201t109.5 165.5t165 109.5t199 38q139 0 257 -68.5t186.5 -187t68.5 -258.5q2 -103 -38.5 -199.5t-110.5 -166.5t-166 -111t-199 -39q-137 -3 -256 67t-188 190.5t-66 258.5zM1032 494q0 178 -117.5 298.5t-287.5 120.5q-172 0 -289 -120.5
t-117 -298.5q0 -175 117 -296.5t287 -121.5t288.5 121.5t118.5 296.5z" />
    <glyph glyph-name="p" unicode="p" horiz-adv-x="1298" 
d="M1184 496q0 -142 -65 -261t-178 -187t-249 -68q-126 0 -234.5 56.5t-164.5 153.5v-559h-103v1358h99v-198q56 100 165 159.5t238 59.5q206 0 349 -150t143 -364zM1077 494q0 178 -113 298.5t-282 120.5q-78 0 -147.5 -26t-124 -76t-86 -131t-31.5 -184t31.5 -185
t86 -132.5t124 -76.5t147.5 -26q170 0 282.5 119.5t112.5 298.5z" />
    <glyph glyph-name="q" unicode="q" horiz-adv-x="1298" 
d="M1010 989h98v-1358h-102v559q-56 -97 -165 -153.5t-235 -56.5q-139 0 -252 68.5t-176 186.5t-63 261q0 214 142.5 364t348.5 150q130 0 239.5 -60t164.5 -162v201zM1006 496q0 103 -32 184t-86.5 131t-124 76t-147.5 26q-169 0 -282 -120.5t-113 -298.5
q0 -179 112.5 -298.5t282.5 -119.5q78 0 147.5 26t124 76.5t86.5 132.5t32 185z" />
    <glyph glyph-name="r" unicode="r" horiz-adv-x="716" 
d="M680 989v-90h-51q-87 0 -162.5 -37t-124.5 -110.5t-49 -169.5v-582h-103v989h99v-168q53 85 138 129.5t189 44.5q16 0 38.5 -3t25.5 -3z" />
    <glyph glyph-name="s" unicode="s" horiz-adv-x="931" 
d="M94 184l72 68q70 -89 144 -132.5t165 -43.5q97 0 159 46t62 128q-7 76 -46.5 111.5t-155.5 87.5l-91 38q-126 55 -184.5 114t-58.5 151q0 117 92 188q91 70 223 70q198 0 320 -158l-68 -66q-115 127 -258 127q-89 0 -145 -41t-56 -114q0 -60 40.5 -96.5t146.5 -81.5
l92 -41q133 -59 194.5 -123t61.5 -162q0 -131 -96 -203q-95 -71 -234 -71q-120 0 -217 54.5t-162 149.5z" />
    <glyph glyph-name="t" unicode="t" horiz-adv-x="743" 
d="M686 90v-90q-73 -20 -154 -20q-144 0 -223.5 73t-79.5 223v619h-172v94h172v281h105v-281h319v-94h-319v-614q0 -207 215 -207q55 0 137 16z" />
    <glyph glyph-name="u" unicode="u" horiz-adv-x="1128" 
d="M176 375v614h103v-618q0 -133 80.5 -214t205.5 -81q124 0 204.5 81t80.5 214v618h102v-614q0 -177 -110.5 -286t-276.5 -109q-167 0 -278 109t-111 286z" />
    <glyph glyph-name="v" unicode="v" horiz-adv-x="1079" 
d="M903 989h111l-451 -1009h-43l-454 1009h110l365 -833z" />
    <glyph glyph-name="w" unicode="w" horiz-adv-x="1730" 
d="M1554 989h111l-397 -1009h-43l-361 833l-358 -833h-41l-399 1009h110l311 -821l357 842h43l358 -838z" />
    <glyph glyph-name="x" unicode="x" horiz-adv-x="983" 
d="M930 0h-123l-315 442l-316 -442h-123l375 520l-344 469h123l282 -397l287 397h123l-348 -473z" />
    <glyph glyph-name="y" unicode="y" horiz-adv-x="1079" 
d="M903 989h111l-494 -1151q-53 -120 -127.5 -173.5t-181.5 -53.5q-71 0 -139 18v90q60 -14 125 -14q81 0 136.5 39.5t92.5 130.5l63 145l-423 969h112l367 -852z" />
    <glyph glyph-name="z" unicode="z" horiz-adv-x="921" 
d="M225 94h631v-94h-788v35l620 860h-573v94h731v-35z" />
    <glyph glyph-name="braceleft" unicode="{" horiz-adv-x="808" 
d="M410 1208q0 -59 28 -221q29 -158 29 -203q0 -71 -28 -111t-87 -61q59 -24 87 -64.5t28 -107.5q0 -44 -29 -202q-28 -156 -28 -220q0 -101 46 -147.5t140 -46.5h98v-92h-110q-275 0 -275 266q0 92 33 254l12 76q13 70 13 106q0 131 -134 131h-116v94h116q134 0 134 132
q0 34 -13 104l-12 78q-33 165 -33 256q0 264 275 264h110v-92h-98q-186 0 -186 -193z" />
    <glyph glyph-name="bar" unicode="|" horiz-adv-x="679" 
d="M293 -248v1845h94v-1845h-94z" />
    <glyph glyph-name="braceright" unicode="}" horiz-adv-x="808" 
d="M575 659h117v-94h-117q-135 0 -135 -131q0 -27 11 -106l14 -76q33 -162 33 -254q0 -266 -275 -266h-108v92h98q186 0 186 194q0 64 -28 220q-29 158 -29 202q0 69 27.5 110.5t87.5 61.5q-59 21 -87 61t-28 111q0 45 29 203q28 162 28 221q0 193 -186 193h-98v92h108
q275 0 275 -264q0 -91 -33 -256l-14 -78q-11 -79 -11 -104q0 -132 135 -132z" />
    <glyph glyph-name="asciitilde" unicode="~" 
d="M655 532l-198 119q-80 51 -131 51q-40 0 -63 -27t-23 -71v-61h-90l-3 69q0 77 47 131t123 54q75 0 172 -60l199 -121q82 -49 131 -49q40 0 63 27t23 70v63h90l4 -70q0 -77 -48 -130.5t-124 -53.5q-77 0 -172 59z" />
    <glyph glyph-name="uni00A0" unicode="&#xa0;" horiz-adv-x="573" 
 />
    <glyph glyph-name="exclamdown" unicode="&#xa1;" horiz-adv-x="583" 
d="M190 911q0 42 29.5 70.5t71.5 28.5t72 -28.5t30 -70.5q0 -44 -30 -73t-72 -29t-71.5 29t-29.5 73zM227 -369l21 961h88l20 -961h-129z" />
    <glyph glyph-name="cent" unicode="&#xa2;" horiz-adv-x="1134" 
d="M915 422l72 -60q-63 -91 -158.5 -143.5t-207.5 -58.5v-348h-105v350q-188 25 -314 172t-126 340t126 340t314 172v352h105v-348q115 -7 210 -60.5t158 -144.5l-74 -59q-118 154 -294 166v-836q173 12 294 166zM516 260v827q-146 -24 -240 -141q-92 -115 -92 -272
q0 -155 92 -273q94 -114 240 -141z" />
    <glyph glyph-name="sterling" unicode="&#xa3;" horiz-adv-x="1042" 
d="M350 94h600v-94h-821v31q130 75 202 175t72 220q0 38 -10 90h-243v94h212q-11 23 -29.5 61t-25.5 54q-53 94 -76.5 162.5t-23.5 142.5q0 154 102 248q101 94 264 94q148 0 249 -81.5t145 -235.5l-97 -33q-80 252 -295 252q-119 0 -188.5 -72.5t-69.5 -185.5
q0 -61 20 -114.5t71 -153.5q51 -97 65 -138h330v-94h-301q8 -52 8 -88q0 -99 -43 -188t-117 -146z" />
    <glyph glyph-name="currency" unicode="&#xa4;" horiz-adv-x="1345" 
d="M1024 381l256 -254l-63 -66l-259 258q-125 -104 -292 -104q-165 0 -289 100l-248 -254l-63 64l247 254q-106 124 -106 297q0 172 106 297l-247 254l63 63l248 -254q125 101 291 101q163 0 290 -103l256 256l66 -63l-256 -258q104 -126 104 -293q0 -170 -104 -295z
M1020 676q0 155 -101.5 260.5t-250.5 105.5q-150 0 -251.5 -106.5t-101.5 -259.5q0 -154 101.5 -259.5t249.5 -105.5q151 0 252.5 106t101.5 259z" />
    <glyph glyph-name="yen" unicode="&#xa5;" horiz-adv-x="1089" 
d="M1069 1352l-455 -639h398v-92h-414v-224h414v-92h-414v-305h-106v305h-412v92h412v224h-412v92h397l-454 639h116l406 -574l405 574h119z" />
    <glyph glyph-name="brokenbar" unicode="&#xa6;" horiz-adv-x="679" 
d="M293 983v614h94v-614h-94zM293 -248v615h94v-615h-94z" />
    <glyph glyph-name="section" unicode="&#xa7;" horiz-adv-x="1148" 
d="M809 94q6 -27 6 -53q0 -118 -82 -195t-211 -77q-93 0 -174 45t-139 125l76 59q107 -131 239 -131q84 0 133.5 47t49.5 125q0 68 -40.5 121t-144.5 137l-198 156q-134 103 -190 178.5t-56 163.5q0 105 70.5 175t191.5 83q-4 50 -4 53q0 118 82 195t211 77q91 0 171.5 -44
t141.5 -124l-78 -61q-109 133 -239 133q-82 0 -132.5 -47t-50.5 -125q0 -68 40.5 -121t146.5 -137l198 -158q133 -103 188.5 -177.5t55.5 -164.5q0 -104 -70.5 -174.5t-191.5 -83.5zM965 350q0 61 -41 116.5t-140 131.5l-204 164q-151 117 -207 207q-87 -12 -138 -56
t-51 -116q0 -60 39.5 -111.5t141.5 -134.5l198 -158q88 -70 138 -119.5t75 -95.5q88 11 138.5 56t50.5 116z" />
    <glyph glyph-name="dieresis" unicode="&#xa8;" horiz-adv-x="1228" 
d="M319 1370q0 36 26.5 62t62.5 26q37 0 63.5 -25.5t26.5 -62.5q0 -35 -26.5 -60.5t-63.5 -25.5q-36 0 -62.5 25.5t-26.5 60.5zM729 1370q0 37 26.5 62.5t63.5 25.5t62.5 -25.5t25.5 -62.5q0 -35 -25.5 -60.5t-62.5 -25.5t-63.5 25.5t-26.5 60.5z" />
    <glyph glyph-name="copyright" unicode="&#xa9;" horiz-adv-x="1603" 
d="M109 676q-2 113 33 220.5t100 193t151.5 150.5t192 99.5t215.5 32.5q138 2 267 -52.5t224 -148t150.5 -224t52.5 -271.5q3 -141 -52.5 -271t-150 -224t-224 -149t-267.5 -52q-137 -3 -266 52t-223.5 149t-150 224t-52.5 271zM1405 678q3 125 -45 239.5t-130 196
t-194.5 129.5t-234.5 47q-122 2 -234 -45.5t-193.5 -129.5t-129 -196.5t-45.5 -240.5q-3 -168 78.5 -311.5t221.5 -226t302 -79.5q162 -3 302.5 79.5t222.5 226t79 311.5zM418 676q0 170 116.5 286.5t284.5 116.5q93 0 174.5 -41.5t139.5 -115.5l-68 -60q-98 125 -246 125
q-127 0 -213 -90t-86 -221q0 -129 85.5 -219t211.5 -90q147 0 248 122l68 -57q-58 -74 -140.5 -116t-175.5 -42q-166 0 -282.5 117.5t-116.5 284.5z" />
    <glyph glyph-name="ordfeminine" unicode="&#xaa;" horiz-adv-x="722" 
d="M592 889v-389h-88v84q-36 -45 -91.5 -71t-121.5 -26q-95 0 -155 47.5t-60 127.5q0 79 60.5 126.5t160.5 47.5h201v57q0 78 -42.5 120t-117.5 42q-102 0 -182 -92l-54 59q101 119 244 119q112 0 179 -66.5t67 -185.5zM498 731v31h-189q-137 0 -137 -98q0 -48 38.5 -73.5
t98.5 -25.5q80 0 134.5 47.5t54.5 118.5z" />
    <glyph glyph-name="guillemotleft" unicode="&#xab;" horiz-adv-x="942" 
d="M434 168l-346 367v34l346 367l70 -62l-295 -321l295 -326zM782 168l-346 367v34l346 367l70 -62l-295 -321l295 -326z" />
    <glyph glyph-name="logicalnot" unicode="&#xac;" 
d="M854 188v404h-729v92h831v-496h-102z" />
    <glyph glyph-name="uni00AD" unicode="&#xad;" horiz-adv-x="702" 
d="M117 592v90h467v-90h-467z" />
    <glyph glyph-name="registered" unicode="&#xae;" horiz-adv-x="1165" 
d="M1067 891q2 -96 -37 -187t-104.5 -158t-156 -106.5t-185.5 -38.5q-130 0 -242 67t-178 180t-66 243q-2 97 37.5 188.5t105.5 158t156.5 106t186.5 38.5q96 1 186 -38.5t155.5 -106t104.5 -158t37 -188.5zM989 891q0 174 -118.5 294t-286.5 120q-169 0 -287.5 -121
t-118.5 -293q0 -169 119 -289.5t287 -120.5q167 0 286 120t119 290zM680 846l160 -211h-103l-149 194h-103v-194h-86l-2 514h199q80 0 129 -44t49 -116q0 -103 -94 -143zM483 905h111q42 0 67 23t25 59q0 39 -25 62.5t-67 23.5h-111v-168z" />
    <glyph glyph-name="overscore" unicode="&#xaf;" horiz-adv-x="1228" 
d="M346 1327v88h537v-88h-537z" />
    <glyph glyph-name="degree" unicode="&#xb0;" horiz-adv-x="737" 
d="M72 1079q0 121 87 207t210 86t210 -86t87 -207t-87 -208t-210 -87t-210 87t-87 208zM571 1079q0 88 -58.5 147.5t-143.5 59.5t-144 -60.5t-59 -146.5q0 -87 59 -147t144 -60q86 0 144 59.5t58 147.5z" />
    <glyph glyph-name="plusminus" unicode="&#xb1;" 
d="M522 274v361h-375v94h375v358h103v-358h374v-94h-374v-361h-103zM147 0v94h852v-94h-852z" />
    <glyph glyph-name="uni00B2" unicode="&#xb2;" horiz-adv-x="743" 
d="M244 831h418v-86h-588v25l309 322q77 80 111 137.5t34 120.5q0 74 -47 124t-123 50q-78 0 -126 -53t-48 -130q0 -29 6 -67h-92q-8 31 -8 74q0 105 75.5 183.5t192.5 78.5t192 -72t75 -182q0 -81 -41 -148.5t-142 -173.5z" />
    <glyph glyph-name="uni00B3" unicode="&#xb3;" horiz-adv-x="720" 
d="M633 1014q0 -126 -87 -203.5t-212 -77.5q-93 0 -167 46.5t-120 125.5l68 49q89 -135 219 -135q88 0 144.5 54.5t56.5 140.5t-57.5 133t-162.5 47h-77v27l227 290h-363v86h508v-28l-229 -293q106 -8 179 -77t73 -185z" />
    <glyph glyph-name="acute" unicode="&#xb4;" horiz-adv-x="1228" 
d="M457 1155l186 442h127v-18l-231 -424h-82z" />
    <glyph glyph-name="uni00B5" unicode="&#xb5;" horiz-adv-x="1196" 
d="M1147 90v-90q-58 -10 -86 -10q-150 0 -184 143q-47 -73 -124 -113t-171 -40q-92 0 -167 38.5t-122 110.5v-498h-103v1358h103v-602q0 -135 80.5 -223t204.5 -88q125 0 204 88q82 88 82 223v602h103v-745q0 -160 118 -160q21 0 62 6z" />
    <glyph glyph-name="paragraph" unicode="&#xb6;" horiz-adv-x="1110" 
d="M88 930q0 191 133.5 306.5t343.5 115.5h123v-852h-123q-205 0 -341 119.5t-136 310.5zM451 -369v93q93 -17 135 -17q110 0 165.5 51.5t55.5 173.5v1420h104v-1424q0 -162 -80.5 -239.5t-228.5 -77.5q-78 0 -151 20z" />
    <glyph glyph-name="middot" unicode="&#xb7;" horiz-adv-x="573" 
d="M186 635q0 44 28.5 73t70.5 29q44 0 73 -28t29 -74q0 -42 -29.5 -70t-72.5 -28q-39 0 -69 28t-30 70z" />
    <glyph glyph-name="cedilla" unicode="&#xb8;" horiz-adv-x="1228" 
d="M422 -369v80q60 -14 123 -14q75 0 119.5 38t44.5 109q0 89 -88 164l38 31q68 -32 107 -85.5t39 -121.5q0 -96 -67.5 -158.5t-178.5 -62.5q-70 0 -137 20z" />
    <glyph glyph-name="uni00B9" unicode="&#xb9;" horiz-adv-x="708" 
d="M100 745v86h224v680h-220v86h316v-766h196v-86h-516z" />
    <glyph glyph-name="ordmasculine" unicode="&#xba;" horiz-adv-x="827" 
d="M86 813q0 136 96 231t232 95q134 0 230.5 -95t96.5 -231t-96.5 -231t-230.5 -95q-136 0 -232 95t-96 231zM647 813q0 103 -66.5 171.5t-166.5 68.5t-166 -68.5t-66 -171.5t66 -171.5t166 -68.5t166.5 68.5t66.5 171.5z" />
    <glyph glyph-name="guillemotright" unicode="&#xbb;" horiz-adv-x="942" 
d="M160 168l-70 59l295 326l-295 321l70 62l346 -367v-34zM508 168l-70 59l295 326l-295 321l70 62l346 -367v-34z" />
    <glyph glyph-name="onequarter" unicode="&#xbc;" horiz-adv-x="1773" 
d="M100 500v86h224v680h-220v86h316v-766h196v-86h-516zM508 0l776 1352h98l-778 -1352h-96zM1737 242v-82h-125v-160h-90v160h-426v28l276 664h98l-256 -610h308v290h90v-290h125z" />
    <glyph glyph-name="onehalf" unicode="&#xbd;" horiz-adv-x="1853" 
d="M100 500v86h224v680h-220v86h316v-766h196v-86h-516zM508 0l776 1352h98l-778 -1352h-96zM1354 86h418v-86h-588v25l309 321q77 80 111 137.5t34 120.5q0 74 -47 124t-123 50q-78 0 -126 -52.5t-48 -129.5q0 -30 6 -68h-92q-8 31 -8 74q0 105 75.5 183.5t192.5 78.5
t192 -72t75 -182q0 -81 -41 -148t-142 -173z" />
    <glyph glyph-name="threequarters" unicode="&#xbe;" horiz-adv-x="1714" 
d="M633 768q0 -126 -87 -203.5t-212 -77.5q-93 0 -167 46.5t-120 125.5l68 50q89 -136 219 -136q88 0 144.5 54.5t56.5 140.5t-57.5 133t-162.5 47h-77v27l227 291h-363v86h508v-29l-229 -293q106 -8 179 -77t73 -185zM449 0l776 1352h98l-778 -1352h-96zM1677 242v-82h-125
v-160h-90v160h-426v28l277 664h98l-256 -610h307v290h90v-290h125z" />
    <glyph glyph-name="questiondown" unicode="&#xbf;" horiz-adv-x="905" 
d="M373 911q0 42 30 70.5t72 28.5t71 -28t29 -71q0 -46 -29 -75t-71 -29t-72 30t-30 74zM102 -55q0 67 24.5 124.5t65 105.5t117.5 120q85 79 115.5 122t30.5 97q0 24 -13 78h95q20 -44 20 -88q0 -65 -37.5 -121t-130.5 -141q-98 -93 -139 -156q-41 -59 -41 -137
q0 -105 68 -173.5t169 -68.5q92 0 159 55t97 158l91 -35q-35 -128 -127.5 -201t-219.5 -73q-144 0 -244 95.5t-100 238.5z" />
    <glyph glyph-name="Agrave" unicode="&#xc0;" horiz-adv-x="1359" 
d="M1167 0l-133 322h-710l-134 -322h-110l579 1372h43l578 -1372h-113zM680 1182l-315 -764h628zM641 1483l-231 362v19h127l186 -381h-82z" />
    <glyph glyph-name="Aacute" unicode="&#xc1;" horiz-adv-x="1359" 
d="M1167 0l-133 322h-710l-134 -322h-110l579 1372h43l578 -1372h-113zM680 1182l-315 -764h628zM639 1483l186 381h127v-19l-231 -362h-82z" />
    <glyph glyph-name="Acircumflex" unicode="&#xc2;" horiz-adv-x="1359" 
d="M1167 0l-133 322h-710l-134 -322h-110l579 1372h43l578 -1372h-113zM680 1182l-315 -764h628zM1012 1483h-86l-244 264l-246 -264h-84l299 381h60z" />
    <glyph glyph-name="Atilde" unicode="&#xc3;" horiz-adv-x="1359" 
d="M1167 0l-133 322h-710l-134 -322h-110l579 1372h43l578 -1372h-113zM680 1182l-315 -764h628zM700 1589l-73 47q-65 43 -97 43q-31 0 -49 -23.5t-18 -62.5v-39h-92q-2 8 -2 45q0 76 41.5 126.5t107.5 50.5q62 0 144 -56l75 -49q45 -27 62.5 -35t36.5 -8q32 0 49.5 23.5
t17.5 62.5v41h90q2 -10 2 -45q0 -78 -40.5 -127t-106.5 -49q-62 0 -148 55z" />
    <glyph glyph-name="Adieresis" unicode="&#xc4;" horiz-adv-x="1359" 
d="M1167 0l-133 322h-710l-134 -322h-110l579 1372h43l578 -1372h-113zM680 1182l-315 -764h628zM360 1655q0 36 27 61t64 25t62.5 -24.5t25.5 -61.5t-25.5 -62.5t-62.5 -25.5t-64 26t-27 62zM823 1653q0 37 26.5 62.5t63.5 25.5t62.5 -25.5t25.5 -62.5q0 -35 -25.5 -60.5
t-62.5 -25.5t-63.5 25.5t-26.5 60.5z" />
    <glyph glyph-name="Aring" unicode="&#xc5;" horiz-adv-x="1359" 
d="M1167 0l-133 322h-710l-134 -322h-110l579 1372h43l578 -1372h-113zM680 1182l-315 -764h628zM469 1659q0 88 61.5 148.5t151.5 60.5q88 0 149.5 -60.5t61.5 -148.5t-61.5 -148.5t-149.5 -60.5q-90 0 -151.5 60.5t-61.5 148.5zM805 1659q0 54 -34.5 89.5t-88.5 35.5
t-88.5 -35.5t-34.5 -89.5t34.5 -89.5t88.5 -35.5q52 0 87.5 36t35.5 89z" />
    <glyph glyph-name="AE" unicode="&#xc6;" horiz-adv-x="1652" 
d="M1065 96h506v-96h-600l-56 324h-596l-169 -324h-115l704 1352h807v-97h-684l84 -477h436v-96h-419zM766 1194l-397 -774h530z" />
    <glyph glyph-name="Ccedilla" unicode="&#xc7;" horiz-adv-x="1458" 
d="M109 676q-3 141 52 271.5t148.5 224t222.5 148t269 52.5q169 0 312 -72.5t235 -201.5l-80 -64q-81 114 -201 177t-264 63q-160 3 -295.5 -77t-212.5 -218.5t-74 -300.5q-3 -164 74 -302.5t212.5 -218t295.5 -77.5q145 0 265 62t200 175l80 -63q-92 -129 -235 -201.5
t-312 -72.5q-139 -3 -268.5 52t-223 149t-148.5 224t-52 271zM569 -369v80q60 -14 123 -14q75 0 119.5 38t44.5 109q0 89 -88 164l39 31q67 -31 106 -85t39 -122q0 -96 -67 -158.5t-178 -62.5q-71 0 -138 20z" />
    <glyph glyph-name="Egrave" unicode="&#xc8;" horiz-adv-x="1153" 
d="M201 0v1352h846v-97h-740v-477h576v-96h-576v-586h764v-96h-870zM578 1483l-232 362v19h127l186 -381h-81z" />
    <glyph glyph-name="Eacute" unicode="&#xc9;" horiz-adv-x="1153" 
d="M201 0v1352h846v-97h-740v-477h576v-96h-576v-586h764v-96h-870zM575 1483l187 381h127v-19l-232 -362h-82z" />
    <glyph glyph-name="Ecircumflex" unicode="&#xca;" horiz-adv-x="1153" 
d="M201 0v1352h846v-97h-740v-477h576v-96h-576v-586h764v-96h-870zM948 1483h-86l-244 264l-245 -264h-84l299 381h59z" />
    <glyph glyph-name="Edieresis" unicode="&#xcb;" horiz-adv-x="1153" 
d="M201 0v1352h846v-97h-740v-477h576v-96h-576v-586h764v-96h-870zM297 1655q0 36 26.5 61t63.5 25t62.5 -24.5t25.5 -61.5t-25.5 -62.5t-62.5 -25.5t-63.5 25.5t-26.5 62.5zM760 1653q0 37 26.5 62.5t63.5 25.5t62.5 -25.5t25.5 -62.5q0 -35 -25.5 -60.5t-62.5 -25.5
t-63.5 25.5t-26.5 60.5z" />
    <glyph glyph-name="Igrave" unicode="&#xcc;" horiz-adv-x="505" 
d="M201 0v1352h106v-1352h-106zM215 1483l-231 362v19h127l186 -381h-82z" />
    <glyph glyph-name="Iacute" unicode="&#xcd;" horiz-adv-x="505" 
d="M201 0v1352h106v-1352h-106zM211 1483l186 381h127v-19l-231 -362h-82z" />
    <glyph glyph-name="Icircumflex" unicode="&#xce;" horiz-adv-x="505" 
d="M201 0v1352h106v-1352h-106zM584 1483h-86l-244 264l-246 -264h-84l299 381h60z" />
    <glyph glyph-name="Idieresis" unicode="&#xcf;" horiz-adv-x="505" 
d="M201 0v1352h106v-1352h-106zM-68 1655q0 36 27 61t64 25t62.5 -24.5t25.5 -61.5t-25.5 -62.5t-62.5 -25.5t-64 26t-27 62zM395 1653q0 37 26.5 62.5t63.5 25.5t62.5 -25.5t25.5 -62.5q0 -35 -25.5 -60.5t-62.5 -25.5t-63.5 25.5t-26.5 60.5z" />
    <glyph glyph-name="Eth" unicode="&#xd0;" horiz-adv-x="1425" 
d="M1317 678q2 -144 -48 -269t-143.5 -216t-234 -142.5t-309.5 -50.5h-381v575h-205v93h205v684h381q172 0 311.5 -50.5t232 -140.5t142 -213.5t49.5 -269.5zM1206 678q0 123 -42 228.5t-120.5 183t-197 121.5t-264.5 44h-275v-587h291v-93h-291v-479h275q145 0 263.5 45
t197 123t121 184.5t42.5 229.5z" />
    <glyph glyph-name="Ntilde" unicode="&#xd1;" horiz-adv-x="1445" 
d="M1139 1352h106v-1372h-43l-895 1144v-1124h-106v1372h41l897 -1153v1133zM741 1589l-73 47q-65 43 -97 43q-31 0 -49 -23.5t-18 -62.5v-39h-92q-2 8 -2 45q0 76 41.5 126.5t107.5 50.5q61 0 143 -56l76 -49q45 -27 62.5 -35t36.5 -8q32 0 49.5 23.5t17.5 62.5v41h90
q2 -10 2 -45q0 -78 -40.5 -127t-106.5 -49q-62 0 -148 55z" />
    <glyph glyph-name="Ograve" unicode="&#xd2;" horiz-adv-x="1603" 
d="M109 676q-3 141 52 271.5t148.5 224t222.5 148t269 52.5q138 2 267 -52.5t224 -148t150.5 -224t52.5 -271.5q3 -141 -52.5 -271t-150 -224t-224 -149t-267.5 -52q-139 -3 -268.5 52t-223 149t-148.5 224t-52 271zM1382 678q3 162 -74 300.5t-212 218.5t-293 77
q-160 3 -295.5 -77t-212.5 -218.5t-74 -300.5q-3 -164 74 -302.5t212.5 -218t295.5 -77.5q158 -3 293 77.5t212 219.5t74 301zM762 1483l-232 362v19h127l187 -381h-82z" />
    <glyph glyph-name="Oacute" unicode="&#xd3;" horiz-adv-x="1603" 
d="M109 676q-3 141 52 271.5t148.5 224t222.5 148t269 52.5q138 2 267 -52.5t224 -148t150.5 -224t52.5 -271.5q3 -141 -52.5 -271t-150 -224t-224 -149t-267.5 -52q-139 -3 -268.5 52t-223 149t-148.5 224t-52 271zM1382 678q3 162 -74 300.5t-212 218.5t-293 77
q-160 3 -295.5 -77t-212.5 -218.5t-74 -300.5q-3 -164 74 -302.5t212.5 -218t295.5 -77.5q158 -3 293 77.5t212 219.5t74 301zM760 1483l186 381h127v-19l-231 -362h-82z" />
    <glyph glyph-name="Ocircumflex" unicode="&#xd4;" horiz-adv-x="1603" 
d="M109 676q-3 141 52 271.5t148.5 224t222.5 148t269 52.5q138 2 267 -52.5t224 -148t150.5 -224t52.5 -271.5q3 -141 -52.5 -271t-150 -224t-224 -149t-267.5 -52q-139 -3 -268.5 52t-223 149t-148.5 224t-52 271zM1382 678q3 162 -74 300.5t-212 218.5t-293 77
q-160 3 -295.5 -77t-212.5 -218.5t-74 -300.5q-3 -164 74 -302.5t212.5 -218t295.5 -77.5q158 -3 293 77.5t212 219.5t74 301zM1133 1483h-86l-244 264l-246 -264h-84l299 381h59z" />
    <glyph glyph-name="Otilde" unicode="&#xd5;" horiz-adv-x="1603" 
d="M109 676q-3 141 52 271.5t148.5 224t222.5 148t269 52.5q138 2 267 -52.5t224 -148t150.5 -224t52.5 -271.5q3 -141 -52.5 -271t-150 -224t-224 -149t-267.5 -52q-139 -3 -268.5 52t-223 149t-148.5 224t-52 271zM1382 678q3 162 -74 300.5t-212 218.5t-293 77
q-160 3 -295.5 -77t-212.5 -218.5t-74 -300.5q-3 -164 74 -302.5t212.5 -218t295.5 -77.5q158 -3 293 77.5t212 219.5t74 301zM821 1589l-73 47q-65 43 -97 43q-31 0 -49 -23.5t-18 -62.5v-39h-92q-3 12 -3 45q0 76 41.5 126.5t108.5 50.5q61 0 143 -56l76 -49
q46 -28 62.5 -35.5t35.5 -7.5q32 0 50 23.5t18 62.5v41h90q2 -10 2 -45q0 -78 -40.5 -127t-106.5 -49q-62 0 -148 55z" />
    <glyph glyph-name="Odieresis" unicode="&#xd6;" horiz-adv-x="1603" 
d="M109 676q-3 141 52 271.5t148.5 224t222.5 148t269 52.5q138 2 267 -52.5t224 -148t150.5 -224t52.5 -271.5q3 -141 -52.5 -271t-150 -224t-224 -149t-267.5 -52q-139 -3 -268.5 52t-223 149t-148.5 224t-52 271zM1382 678q3 162 -74 300.5t-212 218.5t-293 77
q-160 3 -295.5 -77t-212.5 -218.5t-74 -300.5q-3 -164 74 -302.5t212.5 -218t295.5 -77.5q158 -3 293 77.5t212 219.5t74 301zM481 1655q0 36 26.5 61t63.5 25t62.5 -24.5t25.5 -61.5t-25.5 -62.5t-62.5 -25.5t-63.5 25.5t-26.5 62.5zM944 1653q0 37 26.5 62.5t63.5 25.5
t62.5 -25.5t25.5 -62.5q0 -35 -25.5 -60.5t-62.5 -25.5t-63.5 25.5t-26.5 60.5z" />
    <glyph glyph-name="multiply" unicode="&#xd7;" 
d="M246 244l-66 63l330 332l-330 330l64 63l329 -327l330 327l64 -63l-328 -330l328 -330l-62 -65l-330 329z" />
    <glyph glyph-name="Oslash" unicode="&#xd8;" horiz-adv-x="1603" 
d="M1505 1313l-178 -178q80 -93 124 -211.5t44 -247.5q3 -141 -52.5 -271t-150 -224t-224 -149t-267.5 -52q-265 0 -457 170l-178 -179l-68 68l178 178q-80 93 -123.5 211.5t-43.5 247.5q-3 141 52 271.5t148.5 224t222.5 148t269 52.5q267 0 459 -170l178 178zM217 678
q0 -224 131 -389l842 841q-165 146 -387 146q-162 3 -298 -77.5t-213 -219t-75 -301.5zM1384 678q0 219 -131 385l-839 -842q158 -145 389 -145q162 0 295.5 80t209.5 218t76 304z" />
    <glyph glyph-name="Ugrave" unicode="&#xd9;" horiz-adv-x="1398" 
d="M180 524v828h107v-832q0 -208 112 -324t301 -116q188 0 300 116.5t112 323.5v832h107v-828q0 -253 -142 -398.5t-377 -145.5q-237 0 -378.5 145t-141.5 399zM659 1483l-231 362v19h127l186 -381h-82z" />
    <glyph glyph-name="Uacute" unicode="&#xda;" horiz-adv-x="1398" 
d="M180 524v828h107v-832q0 -208 112 -324t301 -116q188 0 300 116.5t112 323.5v832h107v-828q0 -253 -142 -398.5t-377 -145.5q-237 0 -378.5 145t-141.5 399zM655 1483l187 381h127v-19l-232 -362h-82z" />
    <glyph glyph-name="Ucircumflex" unicode="&#xdb;" horiz-adv-x="1398" 
d="M180 524v828h107v-832q0 -208 112 -324t301 -116q188 0 300 116.5t112 323.5v832h107v-828q0 -253 -142 -398.5t-377 -145.5q-237 0 -378.5 145t-141.5 399zM1028 1483h-86l-244 264l-245 -264h-84l299 381h59z" />
    <glyph glyph-name="Udieresis" unicode="&#xdc;" horiz-adv-x="1398" 
d="M180 524v828h107v-832q0 -208 112 -324t301 -116q188 0 300 116.5t112 323.5v832h107v-828q0 -253 -142 -398.5t-377 -145.5q-237 0 -378.5 145t-141.5 399zM377 1655q0 36 26.5 61t63.5 25t62.5 -24.5t25.5 -61.5t-25.5 -62.5t-62.5 -25.5t-63.5 25.5t-26.5 62.5z
M840 1653q0 37 26.5 62.5t63.5 25.5t62.5 -25.5t25.5 -62.5q0 -35 -25.5 -60.5t-62.5 -25.5t-63.5 25.5t-26.5 60.5z" />
    <glyph glyph-name="Yacute" unicode="&#xdd;" horiz-adv-x="1255" 
d="M1151 1352l-471 -781v-571h-107v575l-469 777h117l408 -678l405 678h117zM582 1483l186 381h127v-19l-231 -362h-82z" />
    <glyph glyph-name="Thorn" unicode="&#xde;" horiz-adv-x="1155" 
d="M201 0v1352h106v-258h352q189 0 299.5 -105.5t110.5 -277.5t-110.5 -277.5t-299.5 -105.5h-352v-328h-106zM307 424h348q144 0 223.5 77t79.5 208t-79.5 209.5t-223.5 78.5h-348v-573z" />
    <glyph glyph-name="germandbls" unicode="&#xdf;" horiz-adv-x="1214" 
d="M496 125l59 72q115 -121 279 -121q97 0 155 41.5t58 118.5q0 62 -41 100q-33 33 -152 102q-121 66 -168 116t-47 122q0 62 37 166l92 276q27 76 27 148q0 91 -56.5 142.5t-154.5 51.5q-132 0 -211.5 -89.5t-79.5 -250.5v-1120h-103v1122q0 200 112 317t288 117
q141 0 226 -74.5t85 -203.5q0 -77 -29 -162l-92 -282q-35 -107 -35 -146q0 -34 19 -63q18 -23 44.5 -41.5t109.5 -67.5q132 -77 183.5 -134t51.5 -144q0 -119 -96 -191q-94 -67 -234 -67q-194 0 -327 145z" />
    <glyph glyph-name="agrave" unicode="&#xe0;" horiz-adv-x="1067" 
d="M893 621v-621h-98v156q-54 -85 -146 -130.5t-209 -45.5q-144 0 -241 69q-99 71 -99 199q0 121 94 192.5t250 71.5h344v113q0 139 -72.5 213.5t-199.5 74.5q-92 0 -164.5 -40.5t-136.5 -124.5l-72 57q144 205 379 205q170 0 270.5 -101.5t100.5 -287.5zM788 369v55h-333
q-121 0 -184.5 -44t-63.5 -126q0 -87 69.5 -135.5t174.5 -48.5q138 0 237.5 86.5t99.5 212.5zM483 1155l-231 424v18h127l186 -442h-82z" />
    <glyph glyph-name="aacute" unicode="&#xe1;" horiz-adv-x="1067" 
d="M893 621v-621h-98v156q-54 -85 -146 -130.5t-209 -45.5q-144 0 -241 69q-99 71 -99 199q0 121 94 192.5t250 71.5h344v113q0 139 -72.5 213.5t-199.5 74.5q-92 0 -164.5 -40.5t-136.5 -124.5l-72 57q144 205 379 205q170 0 270.5 -101.5t100.5 -287.5zM788 369v55h-333
q-121 0 -184.5 -44t-63.5 -126q0 -87 69.5 -135.5t174.5 -48.5q138 0 237.5 86.5t99.5 212.5zM481 1155l187 442h127v-18l-232 -424h-82z" />
    <glyph glyph-name="acircumflex" unicode="&#xe2;" horiz-adv-x="1067" 
d="M893 621v-621h-98v156q-54 -85 -146 -130.5t-209 -45.5q-144 0 -241 69q-99 71 -99 199q0 121 94 192.5t250 71.5h344v113q0 139 -72.5 213.5t-199.5 74.5q-92 0 -164.5 -40.5t-136.5 -124.5l-72 57q144 205 379 205q170 0 270.5 -101.5t100.5 -287.5zM788 369v55h-333
q-121 0 -184.5 -44t-63.5 -126q0 -87 69.5 -135.5t174.5 -48.5q138 0 237.5 86.5t99.5 212.5zM827 1155h-84l-223 311l-223 -311h-86l278 442h62z" />
    <glyph glyph-name="atilde" unicode="&#xe3;" horiz-adv-x="1067" 
d="M893 621v-621h-98v156q-54 -85 -146 -130.5t-209 -45.5q-144 0 -241 69q-99 71 -99 199q0 121 94 192.5t250 71.5h344v113q0 139 -72.5 213.5t-199.5 74.5q-92 0 -164.5 -40.5t-136.5 -124.5l-72 57q144 205 379 205q170 0 270.5 -101.5t100.5 -287.5zM788 369v55h-333
q-121 0 -184.5 -44t-63.5 -126q0 -87 69.5 -135.5t174.5 -48.5q138 0 237.5 86.5t99.5 212.5zM528 1296l-51 52q-28 28 -46 38.5t-42 10.5q-63 0 -63 -92v-41h-90q-3 15 -3 45q0 81 39 132.5t109 51.5t131 -61l51 -52q49 -49 88 -49q31 0 48.5 26t17.5 68v39h90q2 -10 2 -45
q0 -79 -39 -131.5t-108 -52.5q-73 0 -134 61z" />
    <glyph glyph-name="adieresis" unicode="&#xe4;" horiz-adv-x="1067" 
d="M893 621v-621h-98v156q-54 -85 -146 -130.5t-209 -45.5q-144 0 -241 69q-99 71 -99 199q0 121 94 192.5t250 71.5h344v113q0 139 -72.5 213.5t-199.5 74.5q-92 0 -164.5 -40.5t-136.5 -124.5l-72 57q144 205 379 205q170 0 270.5 -101.5t100.5 -287.5zM788 369v55h-333
q-121 0 -184.5 -44t-63.5 -126q0 -87 69.5 -135.5t174.5 -48.5q138 0 237.5 86.5t99.5 212.5zM225 1370q0 36 26 62t62 26q37 0 63.5 -25.5t26.5 -62.5q0 -35 -26.5 -60.5t-63.5 -25.5q-35 0 -61.5 25.5t-26.5 60.5zM635 1370q0 37 26.5 62.5t63.5 25.5t62.5 -25.5
t25.5 -62.5q0 -35 -25.5 -60.5t-62.5 -25.5t-63.5 25.5t-26.5 60.5z" />
    <glyph glyph-name="aring" unicode="&#xe5;" horiz-adv-x="1067" 
d="M893 621v-621h-98v156q-54 -85 -146 -130.5t-209 -45.5q-144 0 -241 69q-99 71 -99 199q0 121 94 192.5t250 71.5h344v113q0 139 -72.5 213.5t-199.5 74.5q-92 0 -164.5 -40.5t-136.5 -124.5l-72 57q144 205 379 205q170 0 270.5 -101.5t100.5 -287.5zM788 369v55h-333
q-121 0 -184.5 -44t-63.5 -126q0 -87 69.5 -135.5t174.5 -48.5q138 0 237.5 86.5t99.5 212.5zM307 1366q0 88 61.5 148.5t151.5 60.5q88 0 149.5 -60.5t61.5 -148.5t-61.5 -148.5t-149.5 -60.5q-90 0 -151.5 60.5t-61.5 148.5zM643 1366q0 54 -35.5 89.5t-87.5 35.5
q-54 0 -88.5 -35.5t-34.5 -89.5t34.5 -89.5t88.5 -35.5t88.5 35.5t34.5 89.5z" />
    <glyph glyph-name="ae" unicode="&#xe6;" horiz-adv-x="1847" 
d="M1724 453h-825q12 -164 127.5 -270.5t278.5 -106.5q196 0 327 155l68 -67q-74 -88 -176.5 -136t-220.5 -48q-145 0 -264.5 72t-182.5 196q-42 -123 -155 -195.5t-257 -72.5q-153 0 -248.5 75.5t-95.5 206.5q0 128 94 204.5t250 76.5h344v82q0 139 -72.5 213.5
t-197.5 74.5q-173 0 -301 -165l-72 57q144 205 379 205q128 0 218.5 -63t125.5 -179q67 112 178.5 177t243.5 65q187 0 315 -123t128 -320q0 -67 -9 -114zM899 543h727q6 109 -39.5 194.5t-125.5 131.5t-179 46q-152 0 -260 -105t-123 -267zM788 369v84h-333
q-121 0 -184.5 -46.5t-63.5 -134.5q0 -96 70 -149t178 -53q135 0 234 86.5t99 212.5z" />
    <glyph glyph-name="ccedilla" unicode="&#xe7;" horiz-adv-x="1130" 
d="M115 496q-2 103 38.5 199t109.5 166t165 110.5t199 38.5q122 0 225.5 -53.5t173.5 -149.5l-74 -59q-125 165 -325 165q-171 0 -288.5 -121.5t-117.5 -295.5q0 -177 117 -298.5t287 -121.5q198 0 327 166l74 -60q-70 -95 -174 -148.5t-227 -53.5q-137 -3 -256 67
t-188 190.5t-66 258.5zM381 -369v80q60 -14 123 -14q74 0 119 38t45 109q0 89 -88 164l38 31q68 -32 107 -85.5t39 -121.5q0 -96 -67.5 -158.5t-178.5 -62.5q-70 0 -137 20z" />
    <glyph glyph-name="egrave" unicode="&#xe8;" horiz-adv-x="1171" 
d="M1049 471h-828q9 -173 124.5 -284t283.5 -111q198 0 329 155l66 -67q-74 -87 -177 -135.5t-220 -48.5q-103 -2 -199 38.5t-165 110.5t-109.5 166t-38.5 199q-2 103 37.5 199.5t107.5 166.5t161 111t193 39q187 0 315 -123.5t128 -317.5q0 -67 -8 -98zM225 563h725
q6 157 -93.5 254.5t-246.5 97.5q-150 0 -256 -100q-108 -99 -129 -252zM563 1155l-231 424v18h127l186 -442h-82z" />
    <glyph glyph-name="eacute" unicode="&#xe9;" horiz-adv-x="1171" 
d="M1049 471h-828q9 -173 124.5 -284t283.5 -111q198 0 329 155l66 -67q-74 -87 -177 -135.5t-220 -48.5q-103 -2 -199 38.5t-165 110.5t-109.5 166t-38.5 199q-2 103 37.5 199.5t107.5 166.5t161 111t193 39q187 0 315 -123.5t128 -317.5q0 -67 -8 -98zM225 563h725
q6 157 -93.5 254.5t-246.5 97.5q-150 0 -256 -100q-108 -99 -129 -252zM561 1155l187 442h126v-18l-231 -424h-82z" />
    <glyph glyph-name="ecircumflex" unicode="&#xea;" horiz-adv-x="1171" 
d="M1049 471h-828q9 -173 124.5 -284t283.5 -111q198 0 329 155l66 -67q-74 -87 -177 -135.5t-220 -48.5q-103 -2 -199 38.5t-165 110.5t-109.5 166t-38.5 199q-2 103 37.5 199.5t107.5 166.5t161 111t193 39q187 0 315 -123.5t128 -317.5q0 -67 -8 -98zM225 563h725
q6 157 -93.5 254.5t-246.5 97.5q-150 0 -256 -100q-108 -99 -129 -252zM909 1155h-84l-223 311l-223 -311h-86l278 442h62z" />
    <glyph glyph-name="edieresis" unicode="&#xeb;" horiz-adv-x="1171" 
d="M1049 471h-828q9 -173 124.5 -284t283.5 -111q198 0 329 155l66 -67q-74 -87 -177 -135.5t-220 -48.5q-103 -2 -199 38.5t-165 110.5t-109.5 166t-38.5 199q-2 103 37.5 199.5t107.5 166.5t161 111t193 39q187 0 315 -123.5t128 -317.5q0 -67 -8 -98zM225 563h725
q6 157 -93.5 254.5t-246.5 97.5q-150 0 -256 -100q-108 -99 -129 -252zM307 1370q0 36 26 62t62 26q37 0 63.5 -25.5t26.5 -62.5q0 -35 -26.5 -60.5t-63.5 -25.5q-35 0 -61.5 25.5t-26.5 60.5zM717 1370q0 37 26.5 62.5t63.5 25.5t62.5 -25.5t25.5 -62.5q0 -35 -25.5 -60.5
t-62.5 -25.5t-63.5 25.5t-26.5 60.5z" />
    <glyph glyph-name="igrave" unicode="&#xec;" horiz-adv-x="483" 
d="M190 0v989h103v-989h-103zM205 1155l-170 424v18h127l125 -442h-82z" />
    <glyph glyph-name="iacute" unicode="&#xed;" horiz-adv-x="483" 
d="M190 0v989h103v-989h-103zM199 1155l125 442h127v-18l-170 -424h-82z" />
    <glyph glyph-name="icircumflex" unicode="&#xee;" horiz-adv-x="483" 
d="M190 0v989h103v-989h-103zM549 1155h-84l-223 311l-224 -311h-86l279 442h61z" />
    <glyph glyph-name="idieresis" unicode="&#xef;" horiz-adv-x="483" 
d="M190 0v989h103v-989h-103zM-23 1370q0 36 26.5 62t62.5 26q37 0 63.5 -25.5t26.5 -62.5q0 -35 -26.5 -60.5t-63.5 -25.5q-36 0 -62.5 25.5t-26.5 60.5zM326 1370q0 37 26.5 62.5t63.5 25.5t62.5 -25.5t25.5 -62.5q0 -35 -25.5 -60.5t-62.5 -25.5t-63.5 25.5t-26.5 60.5z
" />
    <glyph glyph-name="eth" unicode="&#xf0;" horiz-adv-x="1161" 
d="M1047 451q0 -199 -133.5 -335t-333.5 -136q-132 0 -239 61.5t-166.5 166.5t-59.5 232q0 193 132 328t318 135q104 0 183 -39l-254 353l-318 -150l-39 80l303 143l-151 209l80 57l163 -223l314 148l39 -78l-301 -141l250 -342q67 -93 120 -177q93 -139 93 -292zM938 442
q0 156 -103.5 260.5t-256.5 104.5q-151 0 -254 -105.5t-103 -261.5q0 -155 102.5 -259.5t256.5 -104.5q152 0 255 105.5t103 260.5z" />
    <glyph glyph-name="ntilde" unicode="&#xf1;" horiz-adv-x="1142" 
d="M967 625v-625h-103v618q0 132 -75 213.5t-201 81.5q-129 0 -213 -84q-82 -82 -82 -211v-618h-103v989h99v-133q107 154 315 154q168 0 265.5 -105.5t97.5 -279.5zM590 1296l-51 52q-28 28 -46 38.5t-42 10.5q-31 0 -47.5 -24.5t-16.5 -67.5v-41h-90q-2 10 -2 45
q0 81 38.5 132.5t108.5 51.5t131 -61l52 -52q49 -49 88 -49q31 0 48 25.5t17 68.5v39h90q2 -10 2 -45q0 -79 -39 -131.5t-108 -52.5q-72 0 -133 61z" />
    <glyph glyph-name="ograve" unicode="&#xf2;" horiz-adv-x="1253" 
d="M115 496q-2 105 38.5 201t109.5 165.5t165 109.5t199 38q139 0 257 -68.5t186.5 -187t68.5 -258.5q2 -103 -38.5 -199.5t-110.5 -166.5t-166 -111t-199 -39q-137 -3 -256 67t-188 190.5t-66 258.5zM1032 494q0 178 -117.5 298.5t-287.5 120.5q-172 0 -289 -120.5
t-117 -298.5q0 -175 117 -296.5t287 -121.5t288.5 121.5t118.5 296.5zM590 1155l-232 424v18h127l187 -442h-82z" />
    <glyph glyph-name="oacute" unicode="&#xf3;" horiz-adv-x="1253" 
d="M115 496q-2 105 38.5 201t109.5 165.5t165 109.5t199 38q139 0 257 -68.5t186.5 -187t68.5 -258.5q2 -103 -38.5 -199.5t-110.5 -166.5t-166 -111t-199 -39q-137 -3 -256 67t-188 190.5t-66 258.5zM1032 494q0 178 -117.5 298.5t-287.5 120.5q-172 0 -289 -120.5
t-117 -298.5q0 -175 117 -296.5t287 -121.5t288.5 121.5t118.5 296.5zM588 1155l186 442h127v-18l-231 -424h-82z" />
    <glyph glyph-name="ocircumflex" unicode="&#xf4;" horiz-adv-x="1253" 
d="M115 496q-2 105 38.5 201t109.5 165.5t165 109.5t199 38q139 0 257 -68.5t186.5 -187t68.5 -258.5q2 -103 -38.5 -199.5t-110.5 -166.5t-166 -111t-199 -39q-137 -3 -256 67t-188 190.5t-66 258.5zM1032 494q0 178 -117.5 298.5t-287.5 120.5q-172 0 -289 -120.5
t-117 -298.5q0 -175 117 -296.5t287 -121.5t288.5 121.5t118.5 296.5zM934 1155h-84l-223 311l-224 -311h-86l279 442h61z" />
    <glyph glyph-name="otilde" unicode="&#xf5;" horiz-adv-x="1253" 
d="M115 496q-2 105 38.5 201t109.5 165.5t165 109.5t199 38q139 0 257 -68.5t186.5 -187t68.5 -258.5q2 -103 -38.5 -199.5t-110.5 -166.5t-166 -111t-199 -39q-137 -3 -256 67t-188 190.5t-66 258.5zM1032 494q0 178 -117.5 298.5t-287.5 120.5q-172 0 -289 -120.5
t-117 -298.5q0 -175 117 -296.5t287 -121.5t288.5 121.5t118.5 296.5zM635 1296l-51 52q-28 28 -46 38.5t-42 10.5q-31 0 -47.5 -24.5t-16.5 -67.5v-41h-90q-2 10 -2 45q0 81 38.5 132.5t108.5 51.5t131 -61l52 -52q49 -49 88 -49q31 0 48 25.5t17 68.5v39h90q2 -10 2 -45
q0 -79 -39 -131.5t-108 -52.5q-72 0 -133 61z" />
    <glyph glyph-name="odieresis" unicode="&#xf6;" horiz-adv-x="1253" 
d="M115 496q-2 105 38.5 201t109.5 165.5t165 109.5t199 38q139 0 257 -68.5t186.5 -187t68.5 -258.5q2 -103 -38.5 -199.5t-110.5 -166.5t-166 -111t-199 -39q-137 -3 -256 67t-188 190.5t-66 258.5zM1032 494q0 178 -117.5 298.5t-287.5 120.5q-172 0 -289 -120.5
t-117 -298.5q0 -175 117 -296.5t287 -121.5t288.5 121.5t118.5 296.5zM332 1370q0 36 26 62t62 26q37 0 63.5 -25.5t26.5 -62.5q0 -35 -26.5 -60.5t-63.5 -25.5q-35 0 -61.5 25.5t-26.5 60.5zM741 1370q0 37 26.5 62.5t63.5 25.5t63 -25.5t26 -62.5q0 -35 -26 -60.5
t-63 -25.5t-63.5 25.5t-26.5 60.5z" />
    <glyph glyph-name="divide" unicode="&#xf7;" 
d="M479 991q0 38 25.5 63t62.5 25q38 0 64 -25t26 -63q0 -37 -26 -61.5t-64 -24.5q-37 0 -62.5 24.5t-25.5 61.5zM127 592v92h891v-92h-891zM479 281q0 37 25.5 62.5t62.5 25.5q38 0 64 -25.5t26 -62.5t-26 -62.5t-64 -25.5q-37 0 -62.5 25.5t-25.5 62.5z" />
    <glyph glyph-name="oslash" unicode="&#xf8;" horiz-adv-x="1277" 
d="M1161 950l-127 -127q117 -147 117 -329q2 -101 -39.5 -197t-111.5 -166t-166 -111.5t-197 -39.5q-188 0 -328 118l-125 -127l-67 68l127 125q-117 142 -117 330q-2 103 39 199.5t111 166.5t165.5 111t196.5 39q185 0 328 -121l127 127zM229 494q0 -147 84 -263l590 590
q-111 97 -264 97q-174 0 -292 -122.5t-118 -301.5zM1049 494q0 146 -84 262l-590 -590q113 -94 262 -94q173 0 292.5 123.5t119.5 298.5z" />
    <glyph glyph-name="ugrave" unicode="&#xf9;" horiz-adv-x="1128" 
d="M176 375v614h103v-618q0 -133 80.5 -214t205.5 -81q124 0 204.5 81t80.5 214v618h102v-614q0 -177 -110.5 -286t-276.5 -109q-167 0 -278 109t-111 286zM526 1155l-231 424v18h127l186 -442h-82z" />
    <glyph glyph-name="uacute" unicode="&#xfa;" horiz-adv-x="1128" 
d="M176 375v614h103v-618q0 -133 80.5 -214t205.5 -81q124 0 204.5 81t80.5 214v618h102v-614q0 -177 -110.5 -286t-276.5 -109q-167 0 -278 109t-111 286zM524 1155l187 442h127v-18l-232 -424h-82z" />
    <glyph glyph-name="ucircumflex" unicode="&#xfb;" horiz-adv-x="1128" 
d="M176 375v614h103v-618q0 -133 80.5 -214t205.5 -81q124 0 204.5 81t80.5 214v618h102v-614q0 -177 -110.5 -286t-276.5 -109q-167 0 -278 109t-111 286zM870 1155h-84l-223 311l-223 -311h-86l278 442h62z" />
    <glyph glyph-name="udieresis" unicode="&#xfc;" horiz-adv-x="1128" 
d="M176 375v614h103v-618q0 -133 80.5 -214t205.5 -81q124 0 204.5 81t80.5 214v618h102v-614q0 -177 -110.5 -286t-276.5 -109q-167 0 -278 109t-111 286zM268 1370q0 36 26 62t62 26q37 0 63.5 -25.5t26.5 -62.5q0 -35 -26.5 -60.5t-63.5 -25.5q-35 0 -61.5 25.5
t-26.5 60.5zM678 1370q0 37 26.5 62.5t63.5 25.5t62.5 -25.5t25.5 -62.5q0 -35 -25.5 -60.5t-62.5 -25.5t-63.5 25.5t-26.5 60.5z" />
    <glyph glyph-name="yacute" unicode="&#xfd;" horiz-adv-x="1079" 
d="M903 989h111l-494 -1151q-53 -120 -127.5 -173.5t-181.5 -53.5q-71 0 -139 18v90q60 -14 125 -14q81 0 136.5 39.5t92.5 130.5l63 145l-423 969h112l367 -852zM498 1155l186 442h127v-18l-231 -424h-82z" />
    <glyph glyph-name="thorn" unicode="&#xfe;" horiz-adv-x="1298" 
d="M1184 496q0 -142 -65 -261t-178 -187t-249 -68q-126 0 -234.5 56.5t-164.5 153.5v-559h-103v1905h103v-737q57 98 164 154.5t235 56.5q206 0 349 -150t143 -364zM1077 494q0 178 -113 298.5t-282 120.5q-78 0 -147.5 -26t-124 -76t-86 -131t-31.5 -184t31.5 -185
t86 -132.5t124 -76.5t147.5 -26q170 0 282.5 119.5t112.5 298.5z" />
    <glyph glyph-name="ydieresis" unicode="&#xff;" horiz-adv-x="1079" 
d="M903 989h111l-494 -1151q-53 -120 -127.5 -173.5t-181.5 -53.5q-71 0 -139 18v90q60 -14 125 -14q81 0 136.5 39.5t92.5 130.5l63 145l-423 969h112l367 -852zM242 1370q0 36 26 62t62 26q37 0 63.5 -25.5t26.5 -62.5q0 -35 -26.5 -60.5t-63.5 -25.5q-35 0 -61.5 25.5
t-26.5 60.5zM651 1370q0 37 26.5 62.5t63.5 25.5t62.5 -25.5t25.5 -62.5q0 -35 -25.5 -60.5t-62.5 -25.5t-63.5 25.5t-26.5 60.5z" />
    <glyph glyph-name="Amacron" unicode="&#x100;" horiz-adv-x="1359" 
d="M1167 0l-133 322h-710l-134 -322h-110l579 1372h43l578 -1372h-113zM680 1182l-315 -764h628zM393 1591v88h578v-88h-578z" />
    <glyph glyph-name="amacron" unicode="&#x101;" horiz-adv-x="1067" 
d="M893 621v-621h-98v156q-54 -85 -146 -130.5t-209 -45.5q-144 0 -241 69q-99 71 -99 199q0 121 94 192.5t250 71.5h344v113q0 139 -72.5 213.5t-199.5 74.5q-92 0 -164.5 -40.5t-136.5 -124.5l-72 57q144 205 379 205q170 0 270.5 -101.5t100.5 -287.5zM788 369v55h-333
q-121 0 -184.5 -44t-63.5 -126q0 -87 69.5 -135.5t174.5 -48.5q138 0 237.5 86.5t99.5 212.5zM252 1327v88h536v-88h-536z" />
    <glyph glyph-name="Abreve" unicode="&#x102;" horiz-adv-x="1359" 
d="M1167 0l-133 322h-710l-134 -322h-110l579 1372h43l578 -1372h-113zM680 1182l-315 -764h628zM391 1802v62h90v-60q0 -103 54 -163t147 -60q94 0 147.5 59.5t53.5 163.5v60h90v-62q0 -139 -80 -223t-211 -84q-134 0 -212.5 83t-78.5 224z" />
    <glyph glyph-name="abreve" unicode="&#x103;" horiz-adv-x="1067" 
d="M893 621v-621h-98v156q-54 -85 -146 -130.5t-209 -45.5q-144 0 -241 69q-99 71 -99 199q0 121 94 192.5t250 71.5h344v113q0 139 -72.5 213.5t-199.5 74.5q-92 0 -164.5 -40.5t-136.5 -124.5l-72 57q144 205 379 205q170 0 270.5 -101.5t100.5 -287.5zM788 369v55h-333
q-121 0 -184.5 -44t-63.5 -126q0 -87 69.5 -135.5t174.5 -48.5q138 0 237.5 86.5t99.5 212.5zM229 1483v67h90v-63q0 -104 53.5 -164.5t147.5 -60.5t147.5 60.5t53.5 164.5v63h90v-67q0 -137 -80.5 -222t-210.5 -85q-131 0 -211 84t-80 223z" />
    <glyph glyph-name="Aogonek" unicode="&#x104;" horiz-adv-x="1359" 
d="M1167 0l-133 322h-710l-134 -322h-110l579 1372h43l578 -1372h-113zM680 1182l-315 -764h628zM940 -225q0 71 66 131q68 62 235 149l39 -55l-111 -72q-72 -47 -98.5 -75t-26.5 -64q0 -43 31.5 -67.5t85.5 -24.5q37 0 119 16v-82q-70 -20 -135 -20q-89 0 -147 45t-58 119z
" />
    <glyph glyph-name="aogonek" unicode="&#x105;" horiz-adv-x="1067" 
d="M893 621v-621h-98v156q-54 -85 -146 -130.5t-209 -45.5q-144 0 -241 69q-99 71 -99 199q0 121 94 192.5t250 71.5h344v113q0 139 -72.5 213.5t-199.5 74.5q-92 0 -164.5 -40.5t-136.5 -124.5l-72 57q144 205 379 205q170 0 270.5 -101.5t100.5 -287.5zM788 369v55h-333
q-121 0 -184.5 -44t-63.5 -126q0 -87 69.5 -135.5t174.5 -48.5q138 0 237.5 86.5t99.5 212.5zM553 -225q0 72 65 131q67 61 236 149l39 -55l-111 -72q-72 -47 -98.5 -75t-26.5 -64q0 -43 31.5 -67.5t85.5 -24.5q37 0 119 16v-82q-70 -20 -135 -20q-89 0 -147 45t-58 119z
" />
    <glyph glyph-name="Cacute" unicode="&#x106;" horiz-adv-x="1458" 
d="M109 676q-3 141 52 271.5t148.5 224t222.5 148t269 52.5q169 0 312 -72.5t235 -201.5l-80 -64q-81 114 -201 177t-264 63q-160 3 -295.5 -77t-212.5 -218.5t-74 -300.5q-3 -164 74 -302.5t212.5 -218t295.5 -77.5q145 0 265 62t200 175l80 -63q-92 -129 -235 -201.5
t-312 -72.5q-139 -3 -268.5 52t-223 149t-148.5 224t-52 271zM762 1483l186 381h127v-19l-231 -362h-82z" />
    <glyph glyph-name="cacute" unicode="&#x107;" horiz-adv-x="1130" 
d="M115 496q-2 103 38.5 199t109.5 166t165 110.5t199 38.5q122 0 225.5 -53.5t173.5 -149.5l-74 -59q-125 165 -325 165q-171 0 -288.5 -121.5t-117.5 -295.5q0 -177 117 -298.5t287 -121.5q198 0 327 166l74 -60q-70 -95 -174 -148.5t-227 -53.5q-137 -3 -256 67
t-188 190.5t-66 258.5zM586 1155l186 442h127v-18l-231 -424h-82z" />
    <glyph glyph-name="Ccircumflex" unicode="&#x108;" horiz-adv-x="1458" 
d="M109 676q-3 141 52 271.5t148.5 224t222.5 148t269 52.5q169 0 312 -72.5t235 -201.5l-80 -64q-81 114 -201 177t-264 63q-160 3 -295.5 -77t-212.5 -218.5t-74 -300.5q-3 -164 74 -302.5t212.5 -218t295.5 -77.5q145 0 265 62t200 175l80 -63q-92 -129 -235 -201.5
t-312 -72.5q-139 -3 -268.5 52t-223 149t-148.5 224t-52 271zM1133 1483h-86l-244 264l-246 -264h-84l299 381h59z" />
    <glyph glyph-name="ccircumflex" unicode="&#x109;" horiz-adv-x="1130" 
d="M115 496q-2 103 38.5 199t109.5 166t165 110.5t199 38.5q122 0 225.5 -53.5t173.5 -149.5l-74 -59q-125 165 -325 165q-171 0 -288.5 -121.5t-117.5 -295.5q0 -177 117 -298.5t287 -121.5q198 0 327 166l74 -60q-70 -95 -174 -148.5t-227 -53.5q-137 -3 -256 67
t-188 190.5t-66 258.5zM932 1155h-84l-223 311l-224 -311h-86l279 442h61z" />
    <glyph glyph-name="Cdotaccent" unicode="&#x10a;" horiz-adv-x="1458" 
d="M109 676q-3 141 52 271.5t148.5 224t222.5 148t269 52.5q169 0 312 -72.5t235 -201.5l-80 -64q-81 114 -201 177t-264 63q-160 3 -295.5 -77t-212.5 -218.5t-74 -300.5q-3 -164 74 -302.5t212.5 -218t295.5 -77.5q145 0 265 62t200 175l80 -63q-92 -129 -235 -201.5
t-312 -72.5q-139 -3 -268.5 52t-223 149t-148.5 224t-52 271zM713 1655q0 37 26 62.5t64 25.5q37 0 63.5 -25.5t26.5 -62.5q0 -38 -26.5 -64t-63.5 -26q-38 0 -64 26t-26 64z" />
    <glyph glyph-name="cdotaccent" unicode="&#x10b;" horiz-adv-x="1130" 
d="M115 496q-2 103 38.5 199t109.5 166t165 110.5t199 38.5q122 0 225.5 -53.5t173.5 -149.5l-74 -59q-125 165 -325 165q-171 0 -288.5 -121.5t-117.5 -295.5q0 -177 117 -298.5t287 -121.5q198 0 327 166l74 -60q-70 -95 -174 -148.5t-227 -53.5q-137 -3 -256 67
t-188 190.5t-66 258.5zM535 1370q0 37 26 63.5t64 26.5q37 0 63.5 -26.5t26.5 -63.5t-26.5 -63.5t-63.5 -26.5q-38 0 -64 26.5t-26 63.5z" />
    <glyph glyph-name="Ccaron" unicode="&#x10c;" horiz-adv-x="1458" 
d="M109 676q-3 141 52 271.5t148.5 224t222.5 148t269 52.5q169 0 312 -72.5t235 -201.5l-80 -64q-81 114 -201 177t-264 63q-160 3 -295.5 -77t-212.5 -218.5t-74 -300.5q-3 -164 74 -302.5t212.5 -218t295.5 -77.5q145 0 265 62t200 175l80 -63q-92 -129 -235 -201.5
t-312 -72.5q-139 -3 -268.5 52t-223 149t-148.5 224t-52 271zM1047 1864h86l-302 -381h-59l-299 381h84l246 -265z" />
    <glyph glyph-name="ccaron" unicode="&#x10d;" horiz-adv-x="1130" 
d="M115 496q-2 103 38.5 199t109.5 166t165 110.5t199 38.5q122 0 225.5 -53.5t173.5 -149.5l-74 -59q-125 165 -325 165q-171 0 -288.5 -121.5t-117.5 -295.5q0 -177 117 -298.5t287 -121.5q198 0 327 166l74 -60q-70 -95 -174 -148.5t-227 -53.5q-137 -3 -256 67
t-188 190.5t-66 258.5zM848 1597h84l-277 -442h-61l-279 442h86l224 -311z" />
    <glyph glyph-name="Dcaron" unicode="&#x10e;" horiz-adv-x="1425" 
d="M201 0v1352h381q172 0 311.5 -50.5t232 -140.5t142 -213.5t49.5 -269.5q2 -144 -48 -269t-143.5 -216t-234 -142.5t-309.5 -50.5h-381zM307 96h275q145 0 263.5 45t197 123t121 184.5t42.5 229.5t-42 228.5t-120.5 183t-197 121.5t-264.5 44h-275v-1159zM823 1864h86
l-301 -381h-59l-299 381h84l246 -265z" />
    <glyph glyph-name="dcaron" unicode="&#x10f;" horiz-adv-x="1480" 
d="M1006 1536h102v-1536h-98v201q-55 -102 -164.5 -161.5t-239.5 -59.5q-206 0 -348.5 150t-142.5 364q0 143 63 261t176 186.5t252 68.5q128 0 235.5 -57.5t164.5 -155.5v739zM1006 494q0 103 -32 185t-86.5 132t-123.5 76t-148 26q-170 0 -282.5 -119t-112.5 -298
q0 -178 113 -299t282 -121q78 0 147.5 26t124 76t86.5 131.5t32 184.5zM1327 1106l35 430h117l-72 -430h-80z" />
    <glyph glyph-name="Dcroat" unicode="&#x110;" horiz-adv-x="1425" 
d="M1317 678q2 -144 -48 -269t-143.5 -216t-234 -142.5t-309.5 -50.5h-381v575h-205v93h205v684h381q172 0 311.5 -50.5t232 -140.5t142 -213.5t49.5 -269.5zM1206 678q0 123 -42 228.5t-120.5 183t-197 121.5t-264.5 44h-275v-587h291v-93h-291v-479h275q145 0 263.5 45
t197 123t121 184.5t42.5 229.5z" />
    <glyph glyph-name="dslash" unicode="&#x111;" horiz-adv-x="1296" 
d="M1278 1307v-90h-174v-1217h-98v201q-55 -102 -165.5 -161.5t-240.5 -59.5q-99 -1 -190 38.5t-157.5 107.5t-105 163t-36.5 198q-2 138 63 257.5t179 188.5t247 66q127 0 235.5 -58.5t165.5 -156.5v433h-460v90h460v229h103v-229h174zM1001 487q0 102 -31.5 183t-86 131
t-124 76t-147.5 26q-170 0 -281.5 -119t-111.5 -297q0 -176 112 -294.5t281 -118.5q79 0 147.5 25.5t123.5 74.5t86.5 129.5t31.5 183.5z" />
    <glyph glyph-name="Emacron" unicode="&#x112;" horiz-adv-x="1153" 
d="M201 0v1352h846v-97h-740v-477h576v-96h-576v-586h764v-96h-870zM330 1591v88h577v-88h-577z" />
    <glyph glyph-name="emacron" unicode="&#x113;" horiz-adv-x="1171" 
d="M1049 471h-828q9 -173 124.5 -284t283.5 -111q198 0 329 155l66 -67q-74 -87 -177 -135.5t-220 -48.5q-103 -2 -199 38.5t-165 110.5t-109.5 166t-38.5 199q-2 103 37.5 199.5t107.5 166.5t161 111t193 39q187 0 315 -123.5t128 -317.5q0 -67 -8 -98zM225 563h725
q6 157 -93.5 254.5t-246.5 97.5q-150 0 -256 -100q-108 -99 -129 -252zM334 1327v88h536v-88h-536z" />
    <glyph glyph-name="Ebreve" unicode="&#x114;" horiz-adv-x="1153" 
d="M201 0v1352h846v-97h-740v-477h576v-96h-576v-586h764v-96h-870zM328 1802v62h90v-60q0 -103 53.5 -163t146.5 -60q94 0 147.5 59.5t53.5 163.5v60h90v-62q0 -139 -80 -223t-211 -84q-133 0 -211.5 83t-78.5 224z" />
    <glyph glyph-name="ebreve" unicode="&#x115;" horiz-adv-x="1171" 
d="M1049 471h-828q9 -173 124.5 -284t283.5 -111q198 0 329 155l66 -67q-74 -87 -177 -135.5t-220 -48.5q-103 -2 -199 38.5t-165 110.5t-109.5 166t-38.5 199q-2 103 37.5 199.5t107.5 166.5t161 111t193 39q187 0 315 -123.5t128 -317.5q0 -67 -8 -98zM225 563h725
q6 157 -93.5 254.5t-246.5 97.5q-150 0 -256 -100q-108 -99 -129 -252zM311 1483v67h90v-63q0 -104 53.5 -164.5t147.5 -60.5t147.5 60.5t53.5 164.5v63h90v-67q0 -137 -80.5 -222t-210.5 -85q-131 0 -211 84t-80 223z" />
    <glyph glyph-name="Edotaccent" unicode="&#x116;" horiz-adv-x="1153" 
d="M201 0v1352h846v-97h-740v-477h576v-96h-576v-586h764v-96h-870zM528 1655q0 37 26 62.5t64 25.5q37 0 64 -26t27 -62q0 -38 -27 -64t-64 -26q-38 0 -64 26t-26 64z" />
    <glyph glyph-name="edotaccent" unicode="&#x117;" horiz-adv-x="1171" 
d="M1049 471h-828q9 -173 124.5 -284t283.5 -111q198 0 329 155l66 -67q-74 -87 -177 -135.5t-220 -48.5q-103 -2 -199 38.5t-165 110.5t-109.5 166t-38.5 199q-2 103 37.5 199.5t107.5 166.5t161 111t193 39q187 0 315 -123.5t128 -317.5q0 -67 -8 -98zM225 563h725
q6 157 -93.5 254.5t-246.5 97.5q-150 0 -256 -100q-108 -99 -129 -252zM512 1370q0 37 26 63.5t64 26.5q37 0 63.5 -26.5t26.5 -63.5t-26.5 -63.5t-63.5 -26.5q-38 0 -64 26.5t-26 63.5z" />
    <glyph glyph-name="Eogonek" unicode="&#x118;" horiz-adv-x="1153" 
d="M201 0v1352h846v-97h-740v-477h576v-96h-576v-586h764v-96h-870zM731 -225q0 71 66 131q68 62 235 149l39 -55l-110 -72q-72 -47 -98.5 -75t-26.5 -64q0 -43 31 -67.5t85 -24.5q37 0 119 16v-82q-70 -20 -135 -20q-89 0 -147 45t-58 119z" />
    <glyph glyph-name="eogonek" unicode="&#x119;" horiz-adv-x="1171" 
d="M1049 471h-828q9 -173 124.5 -284t283.5 -111q198 0 329 155l66 -67q-74 -87 -177 -135.5t-220 -48.5q-103 -2 -199 38.5t-165 110.5t-109.5 166t-38.5 199q-2 103 37.5 199.5t107.5 166.5t161 111t193 39q187 0 315 -123.5t128 -317.5q0 -67 -8 -98zM225 563h725
q6 157 -93.5 254.5t-246.5 97.5q-150 0 -256 -100q-108 -99 -129 -252zM629 -225q5 69 28 109q29 49 156 180q27 28 98 100h113l-195 -211q-54 -57 -74 -92t-20 -72q0 -43 31 -67.5t86 -24.5q48 0 117 16v-82q-56 -20 -133 -20q-92 0 -149.5 45.5t-57.5 118.5z" />
    <glyph glyph-name="Ecaron" unicode="&#x11a;" horiz-adv-x="1153" 
d="M201 0v1352h846v-97h-740v-477h576v-96h-576v-586h764v-96h-870zM862 1864h86l-301 -381h-59l-299 381h84l245 -265z" />
    <glyph glyph-name="ecaron" unicode="&#x11b;" horiz-adv-x="1171" 
d="M1049 471h-828q9 -173 124.5 -284t283.5 -111q198 0 329 155l66 -67q-74 -87 -177 -135.5t-220 -48.5q-103 -2 -199 38.5t-165 110.5t-109.5 166t-38.5 199q-2 103 37.5 199.5t107.5 166.5t161 111t193 39q187 0 315 -123.5t128 -317.5q0 -67 -8 -98zM225 563h725
q6 157 -93.5 254.5t-246.5 97.5q-150 0 -256 -100q-108 -99 -129 -252zM825 1597h84l-276 -442h-62l-278 442h86l223 -311z" />
    <glyph glyph-name="Gcircumflex" unicode="&#x11c;" horiz-adv-x="1525" 
d="M109 676q-3 141 52 271.5t148.5 224t222.5 148t269 52.5q165 0 306.5 -70t233.5 -198l-79 -64q-80 111 -199 172.5t-260 61.5q-163 0 -297 -79t-209.5 -215.5t-75.5 -301.5q0 -167 75.5 -304.5t210 -216.5t300.5 -79q157 0 286 71t205 195v223h-497v99h604v-344
q-87 -159 -249 -250.5t-355 -91.5q-140 -3 -269 52t-222.5 149t-148 224t-52.5 271zM1133 1483h-86l-244 264l-246 -264h-84l299 381h59z" />
    <glyph glyph-name="gcircumflex" unicode="&#x11d;" horiz-adv-x="1310" 
d="M1022 989h98v-901q0 -220 -130.5 -348.5t-342.5 -128.5q-136 0 -255 51.5t-199 140.5l63 70q166 -166 389 -166q170 0 271.5 100t101.5 277v131q-57 -97 -166 -154t-236 -57q-206 0 -347.5 146.5t-141.5 357.5q0 139 64 254t176.5 181.5t248.5 66.5q130 0 240.5 -59
t165.5 -158v196zM1018 508q0 99 -32 177.5t-87 126.5t-123.5 73.5t-144.5 25.5q-171 0 -284.5 -117t-113.5 -288t113.5 -288.5t284.5 -117.5q77 0 146 26t123.5 75.5t86 128.5t31.5 178zM944 1155h-84l-223 311l-223 -311h-86l278 442h62z" />
    <glyph glyph-name="Gbreve" unicode="&#x11e;" horiz-adv-x="1525" 
d="M109 676q-3 141 52 271.5t148.5 224t222.5 148t269 52.5q165 0 306.5 -70t233.5 -198l-79 -64q-80 111 -199 172.5t-260 61.5q-163 0 -297 -79t-209.5 -215.5t-75.5 -301.5q0 -167 75.5 -304.5t210 -216.5t300.5 -79q157 0 286 71t205 195v223h-497v99h604v-344
q-87 -159 -249 -250.5t-355 -91.5q-140 -3 -269 52t-222.5 149t-148 224t-52.5 271zM512 1802v62h90v-60q0 -103 54 -163t147 -60q94 0 147.5 59.5t53.5 163.5v60h90v-62q0 -139 -80 -223t-211 -84q-134 0 -212.5 83t-78.5 224z" />
    <glyph glyph-name="gbreve" unicode="&#x11f;" horiz-adv-x="1310" 
d="M1022 989h98v-901q0 -220 -130.5 -348.5t-342.5 -128.5q-136 0 -255 51.5t-199 140.5l63 70q166 -166 389 -166q170 0 271.5 100t101.5 277v131q-57 -97 -166 -154t-236 -57q-206 0 -347.5 146.5t-141.5 357.5q0 139 64 254t176.5 181.5t248.5 66.5q130 0 240.5 -59
t165.5 -158v196zM1018 508q0 99 -32 177.5t-87 126.5t-123.5 73.5t-144.5 25.5q-171 0 -284.5 -117t-113.5 -288t113.5 -288.5t284.5 -117.5q77 0 146 26t123.5 75.5t86 128.5t31.5 178zM346 1483v67h90v-63q0 -104 53.5 -164.5t147.5 -60.5t147.5 60.5t53.5 164.5v63h90
v-67q0 -137 -80.5 -222t-210.5 -85q-131 0 -211 84t-80 223z" />
    <glyph glyph-name="Gdotaccent" unicode="&#x120;" horiz-adv-x="1525" 
d="M109 676q-3 141 52 271.5t148.5 224t222.5 148t269 52.5q165 0 306.5 -70t233.5 -198l-79 -64q-80 111 -199 172.5t-260 61.5q-163 0 -297 -79t-209.5 -215.5t-75.5 -301.5q0 -167 75.5 -304.5t210 -216.5t300.5 -79q157 0 286 71t205 195v223h-497v99h604v-344
q-87 -159 -249 -250.5t-355 -91.5q-140 -3 -269 52t-222.5 149t-148 224t-52.5 271zM713 1655q0 37 26 62.5t64 25.5q37 0 63.5 -25.5t26.5 -62.5q0 -38 -26.5 -64t-63.5 -26q-38 0 -64 26t-26 64z" />
    <glyph glyph-name="gdotaccent" unicode="&#x121;" horiz-adv-x="1310" 
d="M1022 989h98v-901q0 -220 -130.5 -348.5t-342.5 -128.5q-136 0 -255 51.5t-199 140.5l63 70q166 -166 389 -166q170 0 271.5 100t101.5 277v131q-57 -97 -166 -154t-236 -57q-206 0 -347.5 146.5t-141.5 357.5q0 139 64 254t176.5 181.5t248.5 66.5q130 0 240.5 -59
t165.5 -158v196zM1018 508q0 99 -32 177.5t-87 126.5t-123.5 73.5t-144.5 25.5q-171 0 -284.5 -117t-113.5 -288t113.5 -288.5t284.5 -117.5q77 0 146 26t123.5 75.5t86 128.5t31.5 178zM547 1370q0 37 26 63.5t64 26.5q37 0 63.5 -26.5t26.5 -63.5t-26.5 -63.5t-63.5 -26.5
q-38 0 -64 26.5t-26 63.5z" />
    <glyph glyph-name="uni0122" unicode="&#x122;" horiz-adv-x="1525" 
d="M109 676q-3 141 52 271.5t148.5 224t222.5 148t269 52.5q165 0 306.5 -70t233.5 -198l-79 -64q-80 111 -199 172.5t-260 61.5q-163 0 -297 -79t-209.5 -215.5t-75.5 -301.5q0 -167 75.5 -304.5t210 -216.5t300.5 -79q157 0 286 71t205 195v223h-497v99h604v-344
q-87 -159 -249 -250.5t-355 -91.5q-140 -3 -269 52t-222.5 149t-148 224t-52.5 271zM723 -451l25 347h110l-51 -347h-84z" />
    <glyph glyph-name="uni0123" unicode="&#x123;" horiz-adv-x="1310" 
d="M1022 989h98v-901q0 -220 -130.5 -348.5t-342.5 -128.5q-136 0 -255 51.5t-199 140.5l63 70q166 -166 389 -166q170 0 271.5 100t101.5 277v131q-57 -97 -166 -154t-236 -57q-206 0 -347.5 146.5t-141.5 357.5q0 139 64 254t176.5 181.5t248.5 66.5q130 0 240.5 -59
t165.5 -158v196zM1018 508q0 99 -32 177.5t-87 126.5t-123.5 73.5t-144.5 25.5q-171 0 -284.5 -117t-113.5 -288t113.5 -288.5t284.5 -117.5q77 0 146 26t123.5 75.5t86 128.5t31.5 178zM582 1155l61 442h84l-37 -442h-108z" />
    <glyph glyph-name="Hcircumflex" unicode="&#x124;" horiz-adv-x="1445" 
d="M201 0v1352h106v-574h832v574h106v-1352h-106v682h-832v-682h-106zM1053 1483h-86l-244 264l-246 -264h-84l299 381h60z" />
    <glyph glyph-name="hcircumflex" unicode="&#x125;" horiz-adv-x="1142" 
d="M967 625v-625h-103v616q0 134 -74.5 215.5t-201.5 81.5q-129 0 -212 -84t-83 -213v-616h-103v1536h103v-682q108 156 313 156q166 0 263.5 -106t97.5 -279zM635 1667h-86l-244 264l-246 -264h-84l299 381h60z" />
    <glyph glyph-name="Hbar" unicode="&#x126;" horiz-adv-x="1462" 
d="M207 0v965h-211v92h211v295h106v-295h834v295h106v-295h211v-92h-211v-965h-106v557h-834v-557h-106zM313 653h834v312h-834v-312z" />
    <glyph glyph-name="hbar" unicode="&#x127;" horiz-adv-x="1144" 
d="M971 614v-614h-105v606q0 132 -74 213.5t-200 81.5q-129 0 -213 -83t-84 -212v-606h-102v1214h-173v95h173v227h102v-227h424v-95h-424v-374q50 76 130.5 117.5t182.5 41.5q166 0 264.5 -106t98.5 -279z" />
    <glyph glyph-name="Itilde" unicode="&#x128;" horiz-adv-x="505" 
d="M201 0v1352h106v-1352h-106zM272 1589l-73 47q-65 43 -97 43q-31 0 -49 -23.5t-18 -62.5v-39h-92q-2 8 -2 45q0 76 41.5 126.5t107.5 50.5q61 0 143 -56l76 -49q45 -27 62.5 -35t36.5 -8q32 0 49.5 23.5t17.5 62.5v41h90q2 -10 2 -45q0 -78 -40.5 -127t-106.5 -49
q-62 0 -148 55z" />
    <glyph glyph-name="itilde" unicode="&#x129;" horiz-adv-x="483" 
d="M190 0v989h103v-989h-103zM244 1303l-41 45q-26 28 -42.5 38.5t-35.5 10.5q-62 0 -62 -92v-41h-90q-4 28 -4 43q0 78 39.5 132t106.5 54q65 0 125 -66l41 -45q28 -29 43 -40t34 -11q62 0 62 94v39h88q4 -20 4 -43q0 -79 -38.5 -132.5t-104.5 -53.5q-63 0 -125 68z" />
    <glyph glyph-name="Imacron" unicode="&#x12a;" horiz-adv-x="505" 
d="M201 0v1352h106v-1352h-106zM-35 1591v88h578v-88h-578z" />
    <glyph glyph-name="imacron" unicode="&#x12b;" horiz-adv-x="483" 
d="M190 0v989h103v-989h-103zM33 1325v90h418v-90h-418z" />
    <glyph glyph-name="Ibreve" unicode="&#x12c;" horiz-adv-x="505" 
d="M201 0v1352h106v-1352h-106zM-37 1802v62h90v-60q0 -103 54 -163t147 -60q94 0 147.5 59.5t53.5 163.5v60h90v-62q0 -139 -80 -223t-211 -84q-134 0 -212.5 83t-78.5 224z" />
    <glyph glyph-name="ibreve" unicode="&#x12d;" horiz-adv-x="483" 
d="M190 0v989h103v-989h-103zM-49 1483v67h90v-63q0 -104 53.5 -164.5t147.5 -60.5q93 0 146.5 60t53.5 165v63h90v-67q0 -137 -80 -222t-210 -85q-131 0 -211 84t-80 223z" />
    <glyph glyph-name="Iogonek" unicode="&#x12e;" horiz-adv-x="505" 
d="M201 0v1352h106v-1352h-106zM-33 -225q0 71 66 131q68 62 235 149l39 -55l-110 -72q-72 -47 -98.5 -75t-26.5 -64q0 -43 31 -67.5t85 -24.5q37 0 119 16v-82q-70 -20 -135 -20q-89 0 -147 45t-58 119z" />
    <glyph glyph-name="iogonek" unicode="&#x12f;" horiz-adv-x="483" 
d="M190 0v989h103v-989h-103zM152 1370q0 37 26 63.5t64 26.5q37 0 63.5 -26.5t26.5 -63.5t-26.5 -63.5t-63.5 -26.5q-38 0 -64 26.5t-26 63.5zM-47 -225q0 72 65 131q67 61 236 149l39 -55l-111 -72q-72 -47 -98.5 -75t-26.5 -64q0 -43 31.5 -67.5t85.5 -24.5q37 0 119 16
v-82q-70 -20 -135 -20q-89 0 -147 45t-58 119z" />
    <glyph glyph-name="Idot" unicode="&#x130;" horiz-adv-x="505" 
d="M201 0v1352h106v-1352h-106zM164 1655q0 37 26 62.5t64 25.5q37 0 63.5 -25.5t26.5 -62.5q0 -38 -26.5 -64t-63.5 -26q-38 0 -64 26t-26 64z" />
    <glyph glyph-name="dotlessi" unicode="&#x131;" horiz-adv-x="483" 
d="M190 0v989h103v-989h-103z" />
    <glyph glyph-name="IJ" unicode="&#x132;" horiz-adv-x="1257" 
d="M201 0v1352h106v-1352h-106zM563 0v94q71 -14 152 -14q118 0 176.5 49.5t58.5 169.5v1053h107v-1059q0 -156 -87 -234.5t-241 -78.5q-85 0 -166 20z" />
    <glyph glyph-name="ij" unicode="&#x133;" horiz-adv-x="966" 
d="M190 0v989h103v-989h-103zM152 1370q0 37 26 63.5t64 26.5q37 0 63.5 -26.5t26.5 -63.5t-26.5 -63.5t-63.5 -26.5q-38 0 -64 26.5t-26 63.5zM365 -377v90q41 -8 94 -8q107 0 161 48t54 159v1077h102v-1081q0 -149 -79 -223t-220 -74q-59 0 -112 12zM635 1370
q0 37 26 63.5t64 26.5q37 0 63.5 -26.5t26.5 -63.5t-26.5 -63.5t-63.5 -26.5q-38 0 -64 26.5t-26 63.5z" />
    <glyph glyph-name="Jcircumflex" unicode="&#x134;" horiz-adv-x="749" 
d="M57 0v94q71 -14 152 -14q118 0 176.5 49.5t58.5 169.5v1053h107v-1059q0 -156 -87 -234.5t-241 -78.5q-85 0 -166 20zM815 1483h-86l-244 264l-245 -264h-84l299 381h59z" />
    <glyph glyph-name="jcircumflex" unicode="&#x135;" horiz-adv-x="483" 
d="M-119 -377v90q41 -8 94 -8q107 0 161 48t54 159v1077h103v-1081q0 -149 -79 -223t-220 -74q-60 0 -113 12zM549 1155h-84l-223 311l-224 -311h-86l279 442h61z" />
    <glyph glyph-name="uni0136" unicode="&#x136;" horiz-adv-x="1255" 
d="M201 0v1352h106v-1352h-106zM477 729l705 -729h-138l-708 731l655 621h142zM516 -451l25 347h110l-51 -347h-84z" />
    <glyph glyph-name="uni0137" unicode="&#x137;" horiz-adv-x="987" 
d="M190 0v1536h103v-1536h-103zM455 555l497 -555h-135l-493 557l444 432h139zM414 -451l24 347h111l-51 -347h-84z" />
    <glyph glyph-name="Lacute" unicode="&#x139;" horiz-adv-x="1021" 
d="M201 0v1352h106v-1256h666v-96h-772zM211 1483l186 381h127v-19l-231 -362h-82z" />
    <glyph glyph-name="lacute" unicode="&#x13a;" horiz-adv-x="483" 
d="M190 0v1536h103v-1536h-103zM201 1667l186 381h127v-18l-231 -363h-82z" />
    <glyph glyph-name="uni013B" unicode="&#x13b;" horiz-adv-x="1021" 
d="M201 0v1352h106v-1256h666v-96h-772zM496 -451l24 347h111l-51 -347h-84z" />
    <glyph glyph-name="uni013C" unicode="&#x13c;" horiz-adv-x="483" 
d="M190 0v1536h103v-1536h-103zM162 -451l24 347h111l-51 -347h-84z" />
    <glyph glyph-name="Lcaron" unicode="&#x13d;" horiz-adv-x="1021" 
d="M201 0v1352h106v-1256h666v-96h-772zM750 1044l34 431h117l-72 -431h-79z" />
    <glyph glyph-name="lcaron" unicode="&#x13e;" horiz-adv-x="665" 
d="M190 0v1536h103v-1536h-103zM514 1106l35 430h117l-72 -430h-80z" />
    <glyph glyph-name="Ldot" unicode="&#x13f;" horiz-adv-x="1021" 
d="M201 0v1352h106v-1256h666v-96h-772zM676 743q0 44 28.5 73.5t69.5 29.5q44 0 73.5 -28.5t29.5 -74.5q0 -42 -30 -70t-73 -28q-39 0 -68.5 28t-29.5 70z" />
    <glyph glyph-name="ldot" unicode="&#x140;" horiz-adv-x="534" 
d="M190 0v1536h103v-1536h-103zM414 635q0 44 28 73t70 29q44 0 73 -28t29 -74q0 -42 -29.5 -70t-72.5 -28q-39 0 -68.5 28t-29.5 70z" />
    <glyph glyph-name="Lslash" unicode="&#x141;" horiz-adv-x="1021" 
d="M307 96h666v-96h-772v565l-166 -76v101l166 76v686h106v-645l475 215v-101l-475 -215v-510z" />
    <glyph glyph-name="lslash" unicode="&#x142;" horiz-adv-x="585" 
d="M514 918v-101l-176 -82v-735h-105v698l-167 -77v100l167 78v737h105v-700z" />
    <glyph glyph-name="Nacute" unicode="&#x143;" horiz-adv-x="1445" 
d="M1139 1352h106v-1372h-43l-895 1144v-1124h-106v1372h41l897 -1153v1133zM680 1483l186 381h127v-19l-231 -362h-82z" />
    <glyph glyph-name="nacute" unicode="&#x144;" horiz-adv-x="1142" 
d="M967 625v-625h-103v618q0 132 -75 213.5t-201 81.5q-129 0 -213 -84q-82 -82 -82 -211v-618h-103v989h99v-133q107 154 315 154q168 0 265.5 -105.5t97.5 -279.5zM543 1155l186 442h127v-18l-231 -424h-82z" />
    <glyph glyph-name="uni0145" unicode="&#x145;" horiz-adv-x="1445" 
d="M1139 1352h106v-1372h-43l-895 1144v-1124h-106v1372h41l897 -1153v1133zM643 -451l25 347h110l-51 -347h-84z" />
    <glyph glyph-name="uni0146" unicode="&#x146;" horiz-adv-x="1142" 
d="M967 625v-625h-103v618q0 132 -75 213.5t-201 81.5q-129 0 -213 -84q-82 -82 -82 -211v-618h-103v989h99v-133q107 154 315 154q168 0 265.5 -105.5t97.5 -279.5zM502 -451l24 347h111l-51 -347h-84z" />
    <glyph glyph-name="Ncaron" unicode="&#x147;" horiz-adv-x="1445" 
d="M1139 1352h106v-1372h-43l-895 1144v-1124h-106v1372h41l897 -1153v1133zM967 1864h86l-301 -381h-60l-299 381h84l246 -265z" />
    <glyph glyph-name="ncaron" unicode="&#x148;" horiz-adv-x="1142" 
d="M967 625v-625h-103v618q0 132 -75 213.5t-201 81.5q-129 0 -213 -84q-82 -82 -82 -211v-618h-103v989h99v-133q107 154 315 154q168 0 265.5 -105.5t97.5 -279.5zM805 1597h84l-277 -442h-61l-279 442h86l224 -311z" />
    <glyph glyph-name="Eng" unicode="&#x14a;" horiz-adv-x="1445" 
d="M1139 1352h106v-1444q0 -149 -79 -223t-220 -74q-60 0 -112 12v90q41 -8 94 -8q105 0 158 48t53 159v94l-832 1108v-1114h-106v1372h41l897 -1194v1174z" />
    <glyph glyph-name="eng" unicode="&#x14b;" horiz-adv-x="1142" 
d="M967 625v-717q0 -149 -79 -223t-220 -74q-61 0 -113 12v90q41 -8 94 -8q215 0 215 207v704q0 134 -74.5 215.5t-201.5 81.5q-129 0 -212 -84t-83 -213v-616h-103v989h99v-133q107 154 315 154q168 0 265.5 -105.5t97.5 -279.5z" />
    <glyph glyph-name="Omacron" unicode="&#x14c;" horiz-adv-x="1603" 
d="M109 676q-3 141 52 271.5t148.5 224t222.5 148t269 52.5q138 2 267 -52.5t224 -148t150.5 -224t52.5 -271.5q3 -141 -52.5 -271t-150 -224t-224 -149t-267.5 -52q-139 -3 -268.5 52t-223 149t-148.5 224t-52 271zM1382 678q3 162 -74 300.5t-212 218.5t-293 77
q-160 3 -295.5 -77t-212.5 -218.5t-74 -300.5q-3 -164 74 -302.5t212.5 -218t295.5 -77.5q158 -3 293 77.5t212 219.5t74 301zM514 1591v88h578v-88h-578z" />
    <glyph glyph-name="omacron" unicode="&#x14d;" horiz-adv-x="1253" 
d="M115 496q-2 105 38.5 201t109.5 165.5t165 109.5t199 38q139 0 257 -68.5t186.5 -187t68.5 -258.5q2 -103 -38.5 -199.5t-110.5 -166.5t-166 -111t-199 -39q-137 -3 -256 67t-188 190.5t-66 258.5zM1032 494q0 178 -117.5 298.5t-287.5 120.5q-172 0 -289 -120.5
t-117 -298.5q0 -175 117 -296.5t287 -121.5t288.5 121.5t118.5 296.5zM358 1327v88h537v-88h-537z" />
    <glyph glyph-name="Obreve" unicode="&#x14e;" horiz-adv-x="1603" 
d="M109 676q-3 141 52 271.5t148.5 224t222.5 148t269 52.5q138 2 267 -52.5t224 -148t150.5 -224t52.5 -271.5q3 -141 -52.5 -271t-150 -224t-224 -149t-267.5 -52q-139 -3 -268.5 52t-223 149t-148.5 224t-52 271zM1382 678q3 162 -74 300.5t-212 218.5t-293 77
q-160 3 -295.5 -77t-212.5 -218.5t-74 -300.5q-3 -164 74 -302.5t212.5 -218t295.5 -77.5q158 -3 293 77.5t212 219.5t74 301zM512 1802v62h90v-60q0 -103 54 -163t147 -60q94 0 147.5 59.5t53.5 163.5v60h90v-62q0 -139 -80 -223t-211 -84q-134 0 -212.5 83t-78.5 224z" />
    <glyph glyph-name="obreve" unicode="&#x14f;" horiz-adv-x="1253" 
d="M115 496q-2 105 38.5 201t109.5 165.5t165 109.5t199 38q139 0 257 -68.5t186.5 -187t68.5 -258.5q2 -103 -38.5 -199.5t-110.5 -166.5t-166 -111t-199 -39q-137 -3 -256 67t-188 190.5t-66 258.5zM1032 494q0 178 -117.5 298.5t-287.5 120.5q-172 0 -289 -120.5
t-117 -298.5q0 -175 117 -296.5t287 -121.5t288.5 121.5t118.5 296.5zM336 1483v67h90v-63q0 -104 53.5 -164.5t147.5 -60.5q93 0 146.5 60t53.5 165v63h91v-67q0 -137 -80.5 -222t-210.5 -85q-131 0 -211 84t-80 223z" />
    <glyph glyph-name="Ohungarumlaut" unicode="&#x150;" horiz-adv-x="1603" 
d="M109 676q-3 141 52 271.5t148.5 224t222.5 148t269 52.5q138 2 267 -52.5t224 -148t150.5 -224t52.5 -271.5q3 -141 -52.5 -271t-150 -224t-224 -149t-267.5 -52q-139 -3 -268.5 52t-223 149t-148.5 224t-52 271zM1382 678q3 162 -74 300.5t-212 218.5t-293 77
q-160 3 -295.5 -77t-212.5 -218.5t-74 -300.5q-3 -164 74 -302.5t212.5 -218t295.5 -77.5q158 -3 293 77.5t212 219.5t74 301zM522 1483l189 381h116v-19l-225 -362h-80zM954 1483l187 381h116v-19l-225 -362h-78z" />
    <glyph glyph-name="ohungarumlaut" unicode="&#x151;" horiz-adv-x="1253" 
d="M115 496q-2 105 38.5 201t109.5 165.5t165 109.5t199 38q139 0 257 -68.5t186.5 -187t68.5 -258.5q2 -103 -38.5 -199.5t-110.5 -166.5t-166 -111t-199 -39q-137 -3 -256 67t-188 190.5t-66 258.5zM1032 494q0 178 -117.5 298.5t-287.5 120.5q-172 0 -289 -120.5
t-117 -298.5q0 -175 117 -296.5t287 -121.5t288.5 121.5t118.5 296.5zM381 1155l188 442h117v-18l-225 -424h-80zM772 1155l186 442h117v-18l-225 -424h-78z" />
    <glyph glyph-name="OE" unicode="&#x152;" horiz-adv-x="2336" 
d="M1489 96h766v-96h-873v324q-76 -156 -235 -252q-157 -92 -348 -92q-139 -3 -268 52t-222.5 149t-148 224t-51.5 271q-3 142 52 272.5t148.5 224t222.5 148t269 51.5q193 0 348 -94q155 -91 233 -250v324h848v-97h-741v-477h575v-96h-575v-586zM1382 678q3 162 -74 300.5
t-212 218.5t-295 77q-160 3 -294.5 -77t-211 -218t-74.5 -301q0 -167 75.5 -304t209 -215.5t295.5 -78.5q160 -2 295 77.5t212 218t74 302.5z" />
    <glyph glyph-name="oe" unicode="&#x153;" horiz-adv-x="2048" 
d="M1925 469h-811q6 -170 117 -281.5t274 -111.5q201 0 328 155l68 -67q-75 -88 -178.5 -136t-219.5 -48q-146 0 -262.5 76.5t-177.5 207.5q-61 -132 -177.5 -208t-262.5 -76q-138 0 -255 68.5t-185 187t-68 258.5q-2 103 39 199.5t110 166.5t164.5 111t196.5 39
q146 0 262 -77t174 -208q58 131 173 208t259 77q183 0 311.5 -124.5t128.5 -316.5q0 -35 -8 -100zM1012 494q0 180 -109 299.5t-278 119.5q-173 0 -288.5 -120.5t-115.5 -298.5q0 -175 116 -296.5t286 -121.5q168 0 278.5 120.5t110.5 297.5zM1118 563h709q6 156 -94 253
t-246 97q-147 0 -248 -98q-99 -92 -121 -252z" />
    <glyph glyph-name="Racute" unicode="&#x154;" horiz-adv-x="1257" 
d="M1217 0h-125l-455 606h-330v-606h-106v1352h458q187 0 298.5 -104t111.5 -267q0 -143 -82 -242t-227 -125zM307 1255v-553h348q143 0 223 75.5t80 201.5t-79.5 201t-223.5 75h-348zM498 1483l186 381h127v-19l-231 -362h-82z" />
    <glyph glyph-name="racute" unicode="&#x155;" horiz-adv-x="716" 
d="M680 989v-90h-51q-87 0 -162.5 -37t-124.5 -110.5t-49 -169.5v-582h-103v989h99v-168q53 85 138 129.5t189 44.5q16 0 38.5 -3t25.5 -3zM285 1155l186 442h127v-18l-231 -424h-82z" />
    <glyph glyph-name="uni0156" unicode="&#x156;" horiz-adv-x="1257" 
d="M1217 0h-125l-455 606h-330v-606h-106v1352h458q187 0 298.5 -104t111.5 -267q0 -143 -82 -242t-227 -125zM307 1255v-553h348q143 0 223 75.5t80 201.5t-79.5 201t-223.5 75h-348zM549 -451l24 347h111l-51 -347h-84z" />
    <glyph glyph-name="uni0157" unicode="&#x157;" horiz-adv-x="716" 
d="M680 989v-90h-51q-87 0 -162.5 -37t-124.5 -110.5t-49 -169.5v-582h-103v989h99v-168q53 85 138 129.5t189 44.5q16 0 38.5 -3t25.5 -3zM162 -451l24 347h111l-51 -347h-84z" />
    <glyph glyph-name="Rcaron" unicode="&#x158;" horiz-adv-x="1257" 
d="M1217 0h-125l-455 606h-330v-606h-106v1352h458q187 0 298.5 -104t111.5 -267q0 -143 -82 -242t-227 -125zM307 1255v-553h348q143 0 223 75.5t80 201.5t-79.5 201t-223.5 75h-348zM782 1864h86l-301 -381h-59l-299 381h84l246 -265z" />
    <glyph glyph-name="rcaron" unicode="&#x159;" horiz-adv-x="716" 
d="M680 989v-90h-51q-87 0 -162.5 -37t-124.5 -110.5t-49 -169.5v-582h-103v989h99v-168q53 85 138 129.5t189 44.5q16 0 38.5 -3t25.5 -3zM547 1597h84l-277 -442h-61l-279 442h86l224 -311z" />
    <glyph glyph-name="Sacute" unicode="&#x15a;" horiz-adv-x="1138" 
d="M94 266l80 60q157 -246 408 -246q137 0 222 69.5t85 186.5q-2 44 -12 76.5t-26 57.5t-49 49.5t-67.5 44.5t-95.5 50l-154 74q-58 27 -96.5 48t-79 52t-64.5 64.5t-40.5 80.5t-18.5 105q0 151 113.5 242.5t280.5 91.5q127 0 232.5 -57.5t172.5 -157.5l-80 -59
q-125 176 -325 176q-119 0 -199 -57q-84 -60 -84 -173q2 -36 8.5 -63.5t22 -51t31 -40t47 -36.5t57.5 -33.5t74 -37.5l151 -73q165 -77 238 -159.5t73 -211.5q0 -158 -119 -258t-300 -100q-152 0 -279 75.5t-207 210.5zM537 1483l186 381h127v-19l-232 -362h-81z" />
    <glyph glyph-name="sacute" unicode="&#x15b;" horiz-adv-x="931" 
d="M94 184l72 68q70 -89 144 -132.5t165 -43.5q97 0 159 46t62 128q-7 76 -46.5 111.5t-155.5 87.5l-91 38q-126 55 -184.5 114t-58.5 151q0 117 92 188q91 70 223 70q198 0 320 -158l-68 -66q-115 127 -258 127q-89 0 -145 -41t-56 -114q0 -60 40.5 -96.5t146.5 -81.5
l92 -41q133 -59 194.5 -123t61.5 -162q0 -131 -96 -203q-95 -71 -234 -71q-120 0 -217 54.5t-162 149.5zM434 1155l187 442h127v-18l-232 -424h-82z" />
    <glyph glyph-name="Scircumflex" unicode="&#x15c;" horiz-adv-x="1138" 
d="M94 266l80 60q157 -246 408 -246q137 0 222 69.5t85 186.5q-2 44 -12 76.5t-26 57.5t-49 49.5t-67.5 44.5t-95.5 50l-154 74q-58 27 -96.5 48t-79 52t-64.5 64.5t-40.5 80.5t-18.5 105q0 151 113.5 242.5t280.5 91.5q127 0 232.5 -57.5t172.5 -157.5l-80 -59
q-125 176 -325 176q-119 0 -199 -57q-84 -60 -84 -173q2 -36 8.5 -63.5t22 -51t31 -40t47 -36.5t57.5 -33.5t74 -37.5l151 -73q165 -77 238 -159.5t73 -211.5q0 -158 -119 -258t-300 -100q-152 0 -279 75.5t-207 210.5zM909 1483h-86l-243 264l-246 -264h-84l299 381h59z
" />
    <glyph glyph-name="scircumflex" unicode="&#x15d;" horiz-adv-x="931" 
d="M94 184l72 68q70 -89 144 -132.5t165 -43.5q97 0 159 46t62 128q-7 76 -46.5 111.5t-155.5 87.5l-91 38q-126 55 -184.5 114t-58.5 151q0 117 92 188q91 70 223 70q198 0 320 -158l-68 -66q-115 127 -258 127q-89 0 -145 -41t-56 -114q0 -60 40.5 -96.5t146.5 -81.5
l92 -41q133 -59 194.5 -123t61.5 -162q0 -131 -96 -203q-95 -71 -234 -71q-120 0 -217 54.5t-162 149.5zM780 1155h-84l-223 311l-223 -311h-86l278 442h62z" />
    <glyph glyph-name="Scedilla" unicode="&#x15e;" horiz-adv-x="1138" 
d="M94 266l80 60q157 -246 408 -246q137 0 222 69.5t85 186.5q-2 44 -12 76.5t-26 57.5t-49 49.5t-67.5 44.5t-95.5 50l-154 74q-58 27 -96.5 48t-79 52t-64.5 64.5t-40.5 80.5t-18.5 105q0 151 113.5 242.5t280.5 91.5q127 0 232.5 -57.5t172.5 -157.5l-80 -59
q-125 176 -325 176q-119 0 -199 -57q-84 -60 -84 -173q2 -36 8.5 -63.5t22 -51t31 -40t47 -36.5t57.5 -33.5t74 -37.5l151 -73q165 -77 238 -159.5t73 -211.5q0 -158 -119 -258t-300 -100q-152 0 -279 75.5t-207 210.5zM344 -369v80q60 -14 123 -14q75 0 119.5 38t44.5 109
q0 89 -88 164l39 31q67 -31 106 -85t39 -122q0 -96 -67.5 -158.5t-178.5 -62.5q-70 0 -137 20z" />
    <glyph glyph-name="scedilla" unicode="&#x15f;" horiz-adv-x="931" 
d="M94 184l72 68q70 -89 144 -132.5t165 -43.5q97 0 159 46t62 128q-7 76 -46.5 111.5t-155.5 87.5l-91 38q-126 55 -184.5 114t-58.5 151q0 117 92 188q91 70 223 70q198 0 320 -158l-68 -66q-115 127 -258 127q-89 0 -145 -41t-56 -114q0 -60 40.5 -96.5t146.5 -81.5
l92 -41q133 -59 194.5 -123t61.5 -162q0 -131 -96 -203q-95 -71 -234 -71q-120 0 -217 54.5t-162 149.5zM248 -369v80q60 -14 123 -14q75 0 119.5 38t44.5 109q0 88 -89 164l39 31q68 -32 107 -85.5t39 -121.5q0 -96 -67.5 -158.5t-178.5 -62.5q-70 0 -137 20z" />
    <glyph glyph-name="Scaron" unicode="&#x160;" horiz-adv-x="1138" 
d="M94 266l80 60q157 -246 408 -246q137 0 222 69.5t85 186.5q-2 44 -12 76.5t-26 57.5t-49 49.5t-67.5 44.5t-95.5 50l-154 74q-58 27 -96.5 48t-79 52t-64.5 64.5t-40.5 80.5t-18.5 105q0 151 113.5 242.5t280.5 91.5q127 0 232.5 -57.5t172.5 -157.5l-80 -59
q-125 176 -325 176q-119 0 -199 -57q-84 -60 -84 -173q2 -36 8.5 -63.5t22 -51t31 -40t47 -36.5t57.5 -33.5t74 -37.5l151 -73q165 -77 238 -159.5t73 -211.5q0 -158 -119 -258t-300 -100q-152 0 -279 75.5t-207 210.5zM823 1864h86l-301 -381h-59l-299 381h84l246 -265z
" />
    <glyph glyph-name="scaron" unicode="&#x161;" horiz-adv-x="931" 
d="M94 184l72 68q70 -89 144 -132.5t165 -43.5q97 0 159 46t62 128q-7 76 -46.5 111.5t-155.5 87.5l-91 38q-126 55 -184.5 114t-58.5 151q0 117 92 188q91 70 223 70q198 0 320 -158l-68 -66q-115 127 -258 127q-89 0 -145 -41t-56 -114q0 -60 40.5 -96.5t146.5 -81.5
l92 -41q133 -59 194.5 -123t61.5 -162q0 -131 -96 -203q-95 -71 -234 -71q-120 0 -217 54.5t-162 149.5zM696 1597h84l-276 -442h-62l-278 442h86l223 -311z" />
    <glyph glyph-name="uni0162" unicode="&#x162;" horiz-adv-x="1193" 
d="M543 0v1255h-494v97h1096v-97h-496v-1255h-106zM354 -369v80q60 -14 123 -14q75 0 119.5 38t44.5 109q0 89 -88 164l39 31q67 -31 106 -85t39 -122q0 -96 -67 -158.5t-178 -62.5q-71 0 -138 20z" />
    <glyph glyph-name="uni0163" unicode="&#x163;" horiz-adv-x="743" 
d="M686 90v-90q-73 -20 -154 -20q-144 0 -223.5 73t-79.5 223v619h-172v94h172v281h105v-281h319v-94h-319v-614q0 -207 215 -207q55 0 137 16zM197 -369v80q60 -14 122 -14q75 0 119.5 38t44.5 109q0 89 -88 164l39 31q68 -32 107 -85.5t39 -121.5q0 -96 -67.5 -158.5
t-178.5 -62.5q-70 0 -137 20z" />
    <glyph glyph-name="Tcaron" unicode="&#x164;" horiz-adv-x="1193" 
d="M543 0v1255h-494v97h1096v-97h-496v-1255h-106zM842 1864h86l-301 -381h-60l-299 381h84l246 -265z" />
    <glyph glyph-name="tcaron" unicode="&#x165;" horiz-adv-x="743" 
d="M686 90v-90q-73 -20 -154 -20q-144 0 -223.5 73t-79.5 223v619h-172v94h172v281h105v-281h319v-94h-319v-614q0 -207 215 -207q55 0 137 16zM524 1106l35 430h117l-72 -430h-80z" />
    <glyph glyph-name="Tbar" unicode="&#x166;" horiz-adv-x="1193" 
d="M543 0v563h-416v90h416v602h-494v97h1096v-97h-496v-602h418v-90h-418v-563h-106z" />
    <glyph glyph-name="tbar" unicode="&#x167;" horiz-adv-x="772" 
d="M705 90v-90q-73 -20 -154 -20q-142 0 -221.5 73.5t-79.5 222.5v193h-174v90h174v338h-174v92h174v281h102v-281h320v-92h-320v-338h320v-90h-320v-188q0 -109 54.5 -158t158.5 -49q58 0 140 16z" />
    <glyph glyph-name="Utilde" unicode="&#x168;" horiz-adv-x="1398" 
d="M180 524v828h107v-832q0 -208 112 -324t301 -116q188 0 300 116.5t112 323.5v832h107v-828q0 -253 -142 -398.5t-377 -145.5q-237 0 -378.5 145t-141.5 399zM717 1589l-74 47q-65 43 -96 43t-49.5 -24t-18.5 -62v-39h-92q-2 8 -2 45q0 76 41.5 126.5t108.5 50.5
q61 0 143 -56l76 -49q46 -28 62.5 -35.5t35.5 -7.5q32 0 50 23.5t18 62.5v41h90q2 -10 2 -45q0 -78 -41 -127t-107 -49q-61 0 -147 55z" />
    <glyph glyph-name="utilde" unicode="&#x169;" horiz-adv-x="1128" 
d="M176 375v614h103v-618q0 -133 80.5 -214t205.5 -81q124 0 204.5 81t80.5 214v618h102v-614q0 -177 -110.5 -286t-276.5 -109q-167 0 -278 109t-111 286zM571 1296l-51 52q-28 28 -46 38.5t-42 10.5q-63 0 -63 -92v-41h-90q-3 15 -3 45q0 81 39 132.5t109 51.5t131 -61
l51 -52q49 -49 88 -49q31 0 48.5 26t17.5 68v39h90q2 -10 2 -45q0 -79 -39 -131.5t-108 -52.5q-73 0 -134 61z" />
    <glyph glyph-name="Umacron" unicode="&#x16a;" horiz-adv-x="1398" 
d="M180 524v828h107v-832q0 -208 112 -324t301 -116q188 0 300 116.5t112 323.5v832h107v-828q0 -253 -142 -398.5t-377 -145.5q-237 0 -378.5 145t-141.5 399zM410 1591v88h577v-88h-577z" />
    <glyph glyph-name="umacron" unicode="&#x16b;" horiz-adv-x="1128" 
d="M176 375v614h103v-618q0 -133 80.5 -214t205.5 -81q124 0 204.5 81t80.5 214v618h102v-614q0 -177 -110.5 -286t-276.5 -109q-167 0 -278 109t-111 286zM295 1327v88h536v-88h-536z" />
    <glyph glyph-name="Ubreve" unicode="&#x16c;" horiz-adv-x="1398" 
d="M180 524v828h107v-832q0 -208 112 -324t301 -116q188 0 300 116.5t112 323.5v832h107v-828q0 -253 -142 -398.5t-377 -145.5q-237 0 -378.5 145t-141.5 399zM408 1802v62h90v-60q0 -103 53.5 -163t146.5 -60q94 0 147.5 59.5t53.5 163.5v60h90v-62q0 -139 -80 -223
t-211 -84q-133 0 -211.5 83t-78.5 224z" />
    <glyph glyph-name="ubreve" unicode="&#x16d;" horiz-adv-x="1128" 
d="M176 375v614h103v-618q0 -133 80.5 -214t205.5 -81q124 0 204.5 81t80.5 214v618h102v-614q0 -177 -110.5 -286t-276.5 -109q-167 0 -278 109t-111 286zM272 1483v67h90v-63q0 -104 53.5 -164.5t147.5 -60.5t147.5 60.5t53.5 164.5v63h90v-67q0 -137 -80.5 -222
t-210.5 -85q-131 0 -211 84t-80 223z" />
    <glyph glyph-name="Uring" unicode="&#x16e;" horiz-adv-x="1398" 
d="M180 524v828h107v-832q0 -208 112 -324t301 -116q188 0 300 116.5t112 323.5v832h107v-828q0 -253 -142 -398.5t-377 -145.5q-237 0 -378.5 145t-141.5 399zM485 1659q0 88 61.5 148.5t151.5 60.5q88 0 149.5 -60.5t61.5 -148.5t-61.5 -148.5t-149.5 -60.5
q-90 0 -151.5 60.5t-61.5 148.5zM821 1659q0 54 -34.5 89.5t-88.5 35.5t-88.5 -35.5t-34.5 -89.5t34.5 -89.5t88.5 -35.5q52 0 87.5 36t35.5 89z" />
    <glyph glyph-name="uring" unicode="&#x16f;" horiz-adv-x="1128" 
d="M176 375v614h103v-618q0 -133 80.5 -214t205.5 -81q124 0 204.5 81t80.5 214v618h102v-614q0 -177 -110.5 -286t-276.5 -109q-167 0 -278 109t-111 286zM350 1366q0 88 61.5 148.5t151.5 60.5q88 0 149.5 -60.5t61.5 -148.5t-61.5 -148.5t-149.5 -60.5q-90 0 -151.5 60.5
t-61.5 148.5zM686 1366q0 54 -36 89.5t-87 35.5q-54 0 -88.5 -35.5t-34.5 -89.5t34.5 -89.5t88.5 -35.5t88.5 35.5t34.5 89.5z" />
    <glyph glyph-name="Uhungarumlaut" unicode="&#x170;" horiz-adv-x="1398" 
d="M180 524v828h107v-832q0 -208 112 -324t301 -116q188 0 300 116.5t112 323.5v832h107v-828q0 -253 -142 -398.5t-377 -145.5q-237 0 -378.5 145t-141.5 399zM418 1483l188 381h117v-19l-225 -362h-80zM850 1483l186 381h117v-19l-225 -362h-78z" />
    <glyph glyph-name="uhungarumlaut" unicode="&#x171;" horiz-adv-x="1128" 
d="M176 375v614h103v-618q0 -133 80.5 -214t205.5 -81q124 0 204.5 81t80.5 214v618h102v-614q0 -177 -110.5 -286t-276.5 -109q-167 0 -278 109t-111 286zM319 1155l189 442h117v-18l-226 -424h-80zM711 1155l186 442h117v-18l-226 -424h-77z" />
    <glyph glyph-name="Uogonek" unicode="&#x172;" horiz-adv-x="1398" 
d="M180 524v828h107v-832q0 -208 112 -324t301 -116q188 0 300 116.5t112 323.5v832h107v-828q0 -253 -142 -398.5t-377 -145.5q-237 0 -378.5 145t-141.5 399zM713 -225q5 69 28 109q29 49 156 180q27 28 98 100h113l-195 -211q-54 -57 -74 -92t-20 -72q0 -43 31 -67.5
t86 -24.5q48 0 117 16v-82q-56 -20 -133 -20q-92 0 -149.5 45.5t-57.5 118.5z" />
    <glyph glyph-name="uogonek" unicode="&#x173;" horiz-adv-x="1128" 
d="M850 989h102v-614q0 -89 -24 -154q-23 -58 -61 -101.5t-128 -125.5l-39 -35q-65 -58 -89.5 -93.5t-24.5 -76.5q0 -94 119 -94q52 0 118 16v-78q-68 -22 -139 -22q-89 0 -144 41.5t-55 118.5q0 107 136 213q-50 -4 -56 -4q-167 0 -278 109t-111 286v614h103v-618
q0 -133 80.5 -214t205.5 -81q124 0 204.5 81t80.5 214v618z" />
    <glyph glyph-name="Wcircumflex" unicode="&#x174;" horiz-adv-x="2195" 
d="M1978 1352h113l-500 -1372h-43l-450 1181l-451 -1181h-43l-500 1372h115l410 -1153l448 1173h41l451 -1173zM1430 1483h-87l-243 264l-246 -264h-84l299 381h59z" />
    <glyph glyph-name="wcircumflex" unicode="&#x175;" horiz-adv-x="1730" 
d="M1554 989h111l-397 -1009h-43l-361 833l-358 -833h-41l-399 1009h110l311 -821l357 842h43l358 -838zM1171 1155h-84l-223 311l-223 -311h-86l279 442h61z" />
    <glyph glyph-name="Ycircumflex" unicode="&#x176;" horiz-adv-x="1255" 
d="M1151 1352l-471 -781v-571h-107v575l-469 777h117l408 -678l405 678h117zM954 1483h-86l-243 264l-246 -264h-84l299 381h59z" />
    <glyph glyph-name="ycircumflex" unicode="&#x177;" horiz-adv-x="1079" 
d="M903 989h111l-494 -1151q-53 -120 -127.5 -173.5t-181.5 -53.5q-71 0 -139 18v90q60 -14 125 -14q81 0 136.5 39.5t92.5 130.5l63 145l-423 969h112l367 -852zM844 1155h-84l-223 311l-224 -311h-86l279 442h61z" />
    <glyph glyph-name="Ydieresis" unicode="&#x178;" horiz-adv-x="1255" 
d="M1151 1352l-471 -781v-571h-107v575l-469 777h117l408 -678l405 678h117zM303 1655q0 36 26.5 61t63.5 25t62.5 -24.5t25.5 -61.5t-25.5 -62.5t-62.5 -25.5t-63.5 25.5t-26.5 62.5zM766 1653q0 37 26.5 62.5t63.5 25.5t62.5 -25.5t25.5 -62.5q0 -35 -25.5 -60.5
t-62.5 -25.5t-63.5 25.5t-26.5 60.5z" />
    <glyph glyph-name="Zacute" unicode="&#x179;" horiz-adv-x="1208" 
d="M242 96h888v-96h-1052v35l885 1220h-797v97h962v-35zM569 1483l187 381h127v-19l-232 -362h-82z" />
    <glyph glyph-name="zacute" unicode="&#x17a;" horiz-adv-x="921" 
d="M225 94h631v-94h-788v35l620 860h-573v94h731v-35zM442 1155l187 442h127v-18l-232 -424h-82z" />
    <glyph glyph-name="Zdotaccent" unicode="&#x17b;" horiz-adv-x="1208" 
d="M242 96h888v-96h-1052v35l885 1220h-797v97h962v-35zM522 1655q0 37 26 62.5t64 25.5q37 0 63.5 -25.5t26.5 -62.5q0 -38 -26.5 -64t-63.5 -26q-38 0 -64 26t-26 64z" />
    <glyph glyph-name="zdotaccent" unicode="&#x17c;" horiz-adv-x="921" 
d="M225 94h631v-94h-788v35l620 860h-573v94h731v-35zM391 1370q0 37 26 63.5t64 26.5q37 0 63.5 -26.5t26.5 -63.5t-26.5 -63.5t-63.5 -26.5q-38 0 -64 26.5t-26 63.5z" />
    <glyph glyph-name="Zcaron" unicode="&#x17d;" horiz-adv-x="1208" 
d="M242 96h888v-96h-1052v35l885 1220h-797v97h962v-35zM856 1864h86l-301 -381h-59l-299 381h84l245 -265z" />
    <glyph glyph-name="zcaron" unicode="&#x17e;" horiz-adv-x="921" 
d="M225 94h631v-94h-788v35l620 860h-573v94h731v-35zM705 1597h83l-276 -442h-61l-279 442h86l223 -311z" />
    <glyph glyph-name="uni018F" unicode="&#x18f;" horiz-adv-x="1495" 
d="M1386 680q3 -142 -48.5 -272.5t-140 -224.5t-211 -149.5t-255.5 -53.5q-124 -1 -238 42t-200 120t-136 191t-48 245q0 52 10 120h1157q-6 248 -159.5 412t-381.5 164q-148 0 -276.5 -62.5t-210.5 -173.5l-74 64q94 128 242 199t321 71q180 4 331 -90t236 -254.5
t82 -347.5zM1272 602h-1055q-9 -115 30.5 -214.5t112 -166.5t170.5 -104.5t205 -36.5q212 0 362 147.5t175 374.5z" />
    <glyph glyph-name="florin" unicode="&#x192;" horiz-adv-x="899" 
d="M881 1360v-86q-20 1 -41.5 2t-33 1.5t-15.5 0.5q-104 0 -158.5 -47t-67.5 -160l-33 -264h228v-94h-240l-84 -688q-37 -297 -311 -297q-57 0 -107 12v88q55 -6 91 -6q105 0 158 49t67 158l84 684h-205v94h217l33 268q37 297 311 297q58 0 107 -12z" />
    <glyph glyph-name="uni01D4" unicode="&#x1d4;" horiz-adv-x="1128" 
d="M176 375v614h103v-618q0 -133 80.5 -214t205.5 -81q124 0 204.5 81t80.5 214v618h102v-614q0 -177 -110.5 -286t-276.5 -109q-167 0 -278 109t-111 286zM786 1597h84l-276 -442h-62l-278 442h86l223 -311z" />
    <glyph glyph-name="AEacute" unicode="&#x1fc;" horiz-adv-x="1652" 
d="M1065 96h506v-96h-600l-56 324h-596l-169 -324h-115l704 1352h807v-97h-684l84 -477h436v-96h-419zM766 1194l-397 -774h530zM784 1483l187 381h127v-19l-232 -362h-82z" />
    <glyph glyph-name="aeacute" unicode="&#x1fd;" horiz-adv-x="1847" 
d="M1724 453h-825q12 -164 127.5 -270.5t278.5 -106.5q196 0 327 155l68 -67q-74 -88 -176.5 -136t-220.5 -48q-145 0 -264.5 72t-182.5 196q-42 -123 -155 -195.5t-257 -72.5q-153 0 -248.5 75.5t-95.5 206.5q0 128 94 204.5t250 76.5h344v82q0 139 -72.5 213.5
t-197.5 74.5q-173 0 -301 -165l-72 57q144 205 379 205q128 0 218.5 -63t125.5 -179q67 112 178.5 177t243.5 65q187 0 315 -123t128 -320q0 -67 -9 -114zM899 543h727q6 109 -39.5 194.5t-125.5 131.5t-179 46q-152 0 -260 -105t-123 -267zM788 369v84h-333
q-121 0 -184.5 -46.5t-63.5 -134.5q0 -96 70 -149t178 -53q135 0 234 86.5t99 212.5zM840 1155l186 442h127v-18l-231 -424h-82z" />
    <glyph glyph-name="Oslashacute" unicode="&#x1fe;" horiz-adv-x="1603" 
d="M1505 1313l-178 -178q80 -93 124 -211.5t44 -247.5q3 -141 -52.5 -271t-150 -224t-224 -149t-267.5 -52q-265 0 -457 170l-178 -179l-68 68l178 178q-80 93 -123.5 211.5t-43.5 247.5q-3 141 52 271.5t148.5 224t222.5 148t269 52.5q267 0 459 -170l178 178zM217 678
q0 -224 131 -389l842 841q-165 146 -387 146q-162 3 -298 -77.5t-213 -219t-75 -301.5zM1384 678q0 219 -131 385l-839 -842q158 -145 389 -145q162 0 295.5 80t209.5 218t76 304zM760 1483l186 381h127v-19l-231 -362h-82z" />
    <glyph glyph-name="oslashacute" unicode="&#x1ff;" horiz-adv-x="1277" 
d="M1161 950l-127 -127q117 -147 117 -329q2 -101 -39.5 -197t-111.5 -166t-166 -111.5t-197 -39.5q-188 0 -328 118l-125 -127l-67 68l127 125q-117 142 -117 330q-2 103 39 199.5t111 166.5t165.5 111t196.5 39q185 0 328 -121l127 127zM229 494q0 -147 84 -263l590 590
q-111 97 -264 97q-174 0 -292 -122.5t-118 -301.5zM1049 494q0 146 -84 262l-590 -590q113 -94 262 -94q173 0 292.5 123.5t119.5 298.5zM602 1155l186 442h127v-18l-231 -424h-82z" />
    <glyph glyph-name="uni0218" unicode="&#x218;" horiz-adv-x="1138" 
d="M94 266l80 60q157 -246 408 -246q137 0 222 69.5t85 186.5q-2 44 -12 76.5t-26 57.5t-49 49.5t-67.5 44.5t-95.5 50l-154 74q-58 27 -96.5 48t-79 52t-64.5 64.5t-40.5 80.5t-18.5 105q0 151 113.5 242.5t280.5 91.5q127 0 232.5 -57.5t172.5 -157.5l-80 -59
q-125 176 -325 176q-119 0 -199 -57q-84 -60 -84 -173q2 -36 8.5 -63.5t22 -51t31 -40t47 -36.5t57.5 -33.5t74 -37.5l151 -73q165 -77 238 -159.5t73 -211.5q0 -158 -119 -258t-300 -100q-152 0 -279 75.5t-207 210.5zM508 -451l24 347h111l-51 -347h-84z" />
    <glyph glyph-name="uni0219" unicode="&#x219;" horiz-adv-x="931" 
d="M94 184l72 68q70 -89 144 -132.5t165 -43.5q97 0 159 46t62 128q-7 76 -46.5 111.5t-155.5 87.5l-91 38q-126 55 -184.5 114t-58.5 151q0 117 92 188q91 70 223 70q198 0 320 -158l-68 -66q-115 127 -258 127q-89 0 -145 -41t-56 -114q0 -60 40.5 -96.5t146.5 -81.5
l92 -41q133 -59 194.5 -123t61.5 -162q0 -131 -96 -203q-95 -71 -234 -71q-120 0 -217 54.5t-162 149.5zM412 -451l24 347h111l-51 -347h-84z" />
    <glyph glyph-name="uni021A" unicode="&#x21a;" horiz-adv-x="1193" 
d="M543 0v1255h-494v97h1096v-97h-496v-1255h-106zM516 -451l25 347h110l-51 -347h-84z" />
    <glyph glyph-name="uni021B" unicode="&#x21b;" horiz-adv-x="743" 
d="M686 90v-90q-73 -20 -154 -20q-144 0 -223.5 73t-79.5 223v619h-172v94h172v281h105v-281h319v-94h-319v-614q0 -207 215 -207q55 0 137 16zM358 -451l25 347h111l-52 -347h-84z" />
    <glyph glyph-name="uni0237" unicode="&#x237;" horiz-adv-x="483" 
d="M-119 -377v90q41 -8 94 -8q107 0 161 48t54 159v1077h103v-1081q0 -149 -79 -223t-220 -74q-60 0 -113 12z" />
    <glyph glyph-name="uni0259" unicode="&#x259;" horiz-adv-x="1171" 
d="M1057 496q0 -143 -62.5 -261t-174.5 -186.5t-251 -68.5q-191 0 -322.5 123t-131.5 317q0 41 8 98h827q-6 174 -116.5 284.5t-278.5 110.5q-212 0 -342 -155l-66 67q74 88 180 136.5t230 48.5q215 0 357.5 -148t142.5 -366zM946 426h-725q-3 -158 98.5 -255t253.5 -97
q148 0 250.5 97.5t122.5 254.5z" />
    <glyph glyph-name="circumflex" unicode="&#x2c6;" horiz-adv-x="1228" 
d="M922 1155h-84l-224 311l-223 -311h-86l279 442h61z" />
    <glyph glyph-name="caron" unicode="&#x2c7;" horiz-adv-x="1228" 
d="M838 1597h84l-277 -442h-61l-279 442h86l223 -311z" />
    <glyph glyph-name="breve" unicode="&#x2d8;" horiz-adv-x="1228" 
d="M324 1483v67h90v-63q0 -105 53.5 -165t146.5 -60q94 0 147.5 60.5t53.5 164.5v63h90v-67q0 -137 -80.5 -222t-210.5 -85q-131 0 -210.5 84t-79.5 223z" />
    <glyph glyph-name="dotaccent" unicode="&#x2d9;" horiz-adv-x="1228" 
d="M524 1370q0 37 26 63.5t64 26.5q37 0 64 -26.5t27 -63.5t-27 -63.5t-64 -26.5q-38 0 -64 26.5t-26 63.5z" />
    <glyph glyph-name="ring" unicode="&#x2da;" horiz-adv-x="1228" 
d="M401 1366q0 88 61.5 148.5t151.5 60.5q88 0 149.5 -60.5t61.5 -148.5t-61.5 -148.5t-149.5 -60.5q-90 0 -151.5 60.5t-61.5 148.5zM737 1366q0 54 -35.5 89.5t-87.5 35.5q-54 0 -88 -35.5t-34 -89.5t34 -89.5t88 -35.5t88.5 35.5t34.5 89.5z" />
    <glyph glyph-name="ogonek" unicode="&#x2db;" horiz-adv-x="1228" 
d="M444 -225q0 71 66 131q68 62 235 149l39 -55l-110 -72q-72 -47 -98.5 -75t-26.5 -64q0 -43 31.5 -67.5t85.5 -24.5q36 0 118 16v-82q-70 -20 -135 -20q-89 0 -147 45t-58 119z" />
    <glyph glyph-name="tilde" unicode="&#x2dc;" horiz-adv-x="1228" 
d="M623 1296l-52 52q-28 28 -46 38.5t-42 10.5q-63 0 -63 -92v-41h-90q-2 10 -2 45q0 81 38.5 132.5t108.5 51.5t131 -61l51 -52q49 -49 88 -49q31 0 48.5 26t17.5 68v39h90q2 -10 2 -45q0 -79 -39 -131.5t-108 -52.5q-72 0 -133 61z" />
    <glyph glyph-name="hungarumlaut" unicode="&#x2dd;" horiz-adv-x="1228" 
d="M266 1155l189 442h116v-18l-225 -424h-80zM657 1155l187 442h117v-18l-226 -424h-78z" />
    <glyph glyph-name="gravecomb" unicode="&#x300;" horiz-adv-x="0" 
d="M-438 1155l-232 424v18h127l187 -442h-82z" />
    <glyph glyph-name="acutecomb" unicode="&#x301;" horiz-adv-x="0" 
d="M-670 1155l187 442h127v-18l-232 -424h-82z" />
    <glyph glyph-name="uni0302" unicode="&#x302;" horiz-adv-x="0" 
d="M-205 1155h-84l-223 311l-223 -311h-86l278 442h62z" />
    <glyph glyph-name="tildecomb" unicode="&#x303;" horiz-adv-x="0" 
d="M-504 1296l-51 52q-28 28 -46 38.5t-42 10.5q-31 0 -47.5 -24.5t-16.5 -67.5v-41h-90q-2 10 -2 45q0 81 39 132.5t109 51.5t131 -61l51 -52q49 -49 88 -49q31 0 48.5 26t17.5 68v39h90q2 -10 2 -45q0 -79 -39.5 -131.5t-108.5 -52.5q-72 0 -133 61z" />
    <glyph glyph-name="uni0304" unicode="&#x304;" horiz-adv-x="0" 
d="M-780 1327v88h536v-88h-536z" />
    <glyph glyph-name="uni0306" unicode="&#x306;" horiz-adv-x="0" 
d="M-803 1483v67h90v-63q0 -104 53.5 -164.5t147.5 -60.5t147.5 60.5t53.5 164.5v63h90v-67q0 -137 -80.5 -222t-210.5 -85q-131 0 -211 84t-80 223z" />
    <glyph glyph-name="uni0307" unicode="&#x307;" horiz-adv-x="0" 
d="M-602 1370q0 37 26 63.5t64 26.5q37 0 63.5 -26.5t26.5 -63.5t-26.5 -63.5t-63.5 -26.5q-38 0 -64 26.5t-26 63.5z" />
    <glyph glyph-name="uni0308" unicode="&#x308;" horiz-adv-x="0" 
d="M-807 1370q0 36 26 62t62 26q37 0 63.5 -25.5t26.5 -62.5q0 -35 -26.5 -60.5t-63.5 -25.5q-35 0 -61.5 25.5t-26.5 60.5zM-397 1370q0 37 26.5 62.5t63.5 25.5t62.5 -25.5t25.5 -62.5q0 -35 -25.5 -60.5t-62.5 -25.5t-63.5 25.5t-26.5 60.5z" />
    <glyph glyph-name="uni030A" unicode="&#x30a;" horiz-adv-x="0" 
d="M-725 1366q0 88 61.5 148.5t151.5 60.5q88 0 149.5 -60.5t61.5 -148.5t-61.5 -148.5t-149.5 -60.5q-90 0 -151.5 60.5t-61.5 148.5zM-389 1366q0 54 -35.5 89.5t-87.5 35.5q-54 0 -88.5 -35.5t-34.5 -89.5t34.5 -89.5t88.5 -35.5t88.5 35.5t34.5 89.5z" />
    <glyph glyph-name="uni030B" unicode="&#x30b;" horiz-adv-x="0" 
d="M-860 1155l188 442h117v-18l-225 -424h-80zM-469 1155l186 442h117v-18l-225 -424h-78z" />
    <glyph glyph-name="uni030C" unicode="&#x30c;" horiz-adv-x="0" 
d="M-289 1597h84l-276 -442h-62l-278 442h86l223 -311z" />
    <glyph glyph-name="uni0326" unicode="&#x326;" horiz-adv-x="0" 
d="M-580 -451l25 347h111l-52 -347h-84z" />
    <glyph glyph-name="uni0327" unicode="&#x327;" horiz-adv-x="0" 
d="M-705 -369v80q60 -14 123 -14q74 0 119 38t45 109q0 89 -88 164l39 31q67 -31 106 -85t39 -122q0 -96 -67 -158.5t-178 -62.5q-71 0 -138 20z" />
    <glyph glyph-name="uni0328" unicode="&#x328;" horiz-adv-x="0" 
d="M-682 -225q0 71 66 131q68 62 235 149l39 -55l-111 -72q-72 -47 -98.5 -75t-26.5 -64q0 -43 31.5 -67.5t85.5 -24.5q37 0 119 16v-82q-70 -20 -135 -20q-89 0 -147 45t-58 119z" />
    <glyph glyph-name="tonos" unicode="&#x384;" horiz-adv-x="1024" 
d="M412 1155l71 442h127v-18l-114 -424h-84z" />
    <glyph glyph-name="dieresistonos" unicode="&#x385;" horiz-adv-x="1024" 
d="M434 1155l58 442h126v-18l-100 -424h-84zM150 1370q0 36 26 62t62 26q37 0 62.5 -25.5t25.5 -62.5q0 -35 -25.5 -60.5t-62.5 -25.5q-35 0 -61.5 25.5t-26.5 60.5zM696 1370q0 36 26 62t62 26q37 0 63.5 -25.5t26.5 -62.5q0 -35 -26.5 -60.5t-63.5 -25.5q-35 0 -61.5 25.5
t-26.5 60.5z" />
    <glyph glyph-name="Alphatonos" unicode="&#x386;" horiz-adv-x="1359" 
d="M1167 0l-133 322h-710l-134 -322h-110l579 1372h43l578 -1372h-113zM680 1182l-315 -764h628zM125 922l35 430h116l-71 -430h-80z" />
    <glyph glyph-name="anoteleia" unicode="&#x387;" horiz-adv-x="573" 
d="M186 635q0 44 28.5 73t70.5 29q44 0 73 -28t29 -74q0 -42 -29.5 -70t-72.5 -28q-39 0 -69 28t-30 70z" />
    <glyph glyph-name="Epsilontonos" unicode="&#x388;" horiz-adv-x="1153" 
d="M201 0v1352h846v-97h-740v-477h576v-96h-576v-586h764v-96h-870zM-152 922l35 430h117l-72 -430h-80z" />
    <glyph glyph-name="Etatonos" unicode="&#x389;" horiz-adv-x="1445" 
d="M201 0v1352h106v-574h832v574h106v-1352h-106v682h-832v-682h-106zM-152 922l35 430h117l-72 -430h-80z" />
    <glyph glyph-name="Iotatonos" unicode="&#x38a;" horiz-adv-x="505" 
d="M201 0v1352h106v-1352h-106zM-152 922l35 430h117l-72 -430h-80z" />
    <glyph glyph-name="Omicrontonos" unicode="&#x38c;" horiz-adv-x="1603" 
d="M109 676q-3 141 52 271.5t148.5 224t222.5 148t269 52.5q138 2 267 -52.5t224 -148t150.5 -224t52.5 -271.5q3 -141 -52.5 -271t-150 -224t-224 -149t-267.5 -52q-139 -3 -268.5 52t-223 149t-148.5 224t-52 271zM1382 678q3 162 -74 300.5t-212 218.5t-293 77
q-160 3 -295.5 -77t-212.5 -218.5t-74 -300.5q-3 -164 74 -302.5t212.5 -218t295.5 -77.5q158 -3 293 77.5t212 219.5t74 301zM-76 922l35 430h117l-72 -430h-80z" />
    <glyph glyph-name="Upsilontonos" unicode="&#x38e;" horiz-adv-x="1255" 
d="M1151 1352l-471 -781v-571h-107v575l-469 777h117l408 -678l405 678h117zM-195 922l35 430h117l-72 -430h-80z" />
    <glyph glyph-name="Omegatonos" unicode="&#x38f;" horiz-adv-x="1624" 
d="M1128 96h357v-96h-535v94q443 212 443 602q0 247 -166.5 412.5t-415.5 165.5q-165 0 -297.5 -74.5t-207.5 -206.5t-75 -295q0 -394 443 -604v-94h-535v96h350q-370 233 -370 602q-4 184 88 341t253 247t351 86q140 3 269.5 -49.5t223 -143.5t148.5 -217t53 -264
q0 -183 -92.5 -331t-284.5 -271zM-76 922l35 430h117l-72 -430h-80z" />
    <glyph glyph-name="iotadieresistonos" unicode="&#x390;" horiz-adv-x="608" 
d="M182 272v717h105v-708q0 -106 42 -156.5t132 -50.5q49 0 137 16v-90q-73 -20 -154 -20q-128 0 -195 75t-67 217zM164 1155l57 442h127v-18l-100 -424h-84zM-121 1370q0 36 26 62t62 26q37 0 62.5 -25.5t25.5 -62.5q0 -35 -25.5 -60.5t-62.5 -25.5q-35 0 -61.5 25.5
t-26.5 60.5zM426 1370q0 36 26 62t62 26q37 0 63.5 -25.5t26.5 -62.5q0 -35 -26.5 -60.5t-63.5 -25.5q-35 0 -61.5 25.5t-26.5 60.5z" />
    <glyph glyph-name="Alpha" unicode="&#x391;" horiz-adv-x="1359" 
d="M1167 0l-133 322h-710l-134 -322h-110l579 1372h43l578 -1372h-113zM680 1182l-315 -764h628z" />
    <glyph glyph-name="Beta" unicode="&#x392;" horiz-adv-x="1255" 
d="M1157 385q0 -170 -113 -277.5t-307 -107.5h-536v1352h458q168 0 266.5 -91t98.5 -239q0 -90 -40.5 -160.5t-115.5 -113.5q136 -32 212.5 -129t76.5 -234zM649 1257l-342 -2v-479h342q126 0 195 65.5t69 174.5q0 110 -67.5 175.5t-196.5 65.5zM1049 387q0 132 -85.5 212.5
t-236.5 80.5h-420v-584h420q151 0 236.5 80t85.5 211z" />
    <glyph glyph-name="Gamma" unicode="&#x393;" horiz-adv-x="1021" 
d="M201 0v1352h772v-97h-666v-1255h-106z" />
    <glyph glyph-name="uni0394" unicode="&#x394;" horiz-adv-x="1359" 
d="M702 1372l564 -1337v-35h-1172v35l565 1337h43zM680 1174l-449 -1078h897z" />
    <glyph glyph-name="Epsilon" unicode="&#x395;" horiz-adv-x="1153" 
d="M201 0v1352h846v-97h-740v-477h576v-96h-576v-586h764v-96h-870z" />
    <glyph glyph-name="Zeta" unicode="&#x396;" horiz-adv-x="1208" 
d="M242 96h888v-96h-1052v35l885 1220h-797v97h962v-35z" />
    <glyph glyph-name="Eta" unicode="&#x397;" horiz-adv-x="1445" 
d="M201 0v1352h106v-574h832v574h106v-1352h-106v682h-832v-682h-106z" />
    <glyph glyph-name="Theta" unicode="&#x398;" horiz-adv-x="1603" 
d="M109 676q-3 141 52 271.5t148.5 224t222.5 148t269 52.5q138 2 267 -52.5t224 -148t150.5 -224t52.5 -271.5q3 -141 -52.5 -271t-150 -224t-224 -149t-267.5 -52q-139 -3 -268.5 52t-223 149t-148.5 224t-52 271zM1386 678q3 162 -75 301t-214 219.5t-296 77.5
q-121 1 -230 -45.5t-187.5 -126.5t-123.5 -191.5t-43 -234.5q-2 -123 43 -235.5t123 -193.5t187.5 -128t230.5 -45q160 -3 296 77.5t214 220.5t75 304zM428 621v96h735v-96h-735z" />
    <glyph glyph-name="Iota" unicode="&#x399;" horiz-adv-x="505" 
d="M201 0v1352h106v-1352h-106z" />
    <glyph glyph-name="Kappa" unicode="&#x39a;" horiz-adv-x="1255" 
d="M201 0v1352h106v-1352h-106zM477 729l705 -729h-138l-708 731l655 621h142z" />
    <glyph glyph-name="Lambda" unicode="&#x39b;" horiz-adv-x="1359" 
d="M1280 0h-113l-487 1174l-490 -1174h-110l579 1372h43z" />
    <glyph glyph-name="Mu" unicode="&#x39c;" horiz-adv-x="1607" 
d="M1366 1372h41v-1372h-107v1098l-475 -676h-41l-477 676v-1098h-106v1372h41l563 -803z" />
    <glyph glyph-name="Nu" unicode="&#x39d;" horiz-adv-x="1445" 
d="M1139 1352h106v-1372h-43l-895 1144v-1124h-106v1372h41l897 -1153v1133z" />
    <glyph glyph-name="Xi" unicode="&#x39e;" horiz-adv-x="1243" 
d="M82 1255v97h1079v-97h-1079zM236 635v96h772v-96h-772zM82 0v96h1079v-96h-1079z" />
    <glyph glyph-name="Omicron" unicode="&#x39f;" horiz-adv-x="1603" 
d="M109 676q-3 141 52 271.5t148.5 224t222.5 148t269 52.5q138 2 267 -52.5t224 -148t150.5 -224t52.5 -271.5q3 -141 -52.5 -271t-150 -224t-224 -149t-267.5 -52q-139 -3 -268.5 52t-223 149t-148.5 224t-52 271zM1382 678q3 162 -74 300.5t-212 218.5t-293 77
q-160 3 -295.5 -77t-212.5 -218.5t-74 -300.5q-3 -164 74 -302.5t212.5 -218t295.5 -77.5q158 -3 293 77.5t212 219.5t74 301z" />
    <glyph glyph-name="Pi" unicode="&#x3a0;" horiz-adv-x="1386" 
d="M201 0v1352h987v-1352h-107v1255h-774v-1255h-106z" />
    <glyph glyph-name="Rho" unicode="&#x3a1;" horiz-adv-x="1155" 
d="M201 0v1352h458q187 0 298.5 -104t111.5 -267q0 -166 -111 -270.5t-299 -104.5h-352v-606h-106zM307 702h348q143 0 223 75.5t80 201.5t-79.5 201t-223.5 75h-348v-553z" />
    <glyph glyph-name="Sigma" unicode="&#x3a3;" horiz-adv-x="1138" 
d="M287 96h770v-96h-936v35l508 657l-508 625v35h911v-97h-739l444 -546v-29z" />
    <glyph glyph-name="Tau" unicode="&#x3a4;" horiz-adv-x="1193" 
d="M543 0v1255h-494v97h1096v-97h-496v-1255h-106z" />
    <glyph glyph-name="Upsilon" unicode="&#x3a5;" horiz-adv-x="1255" 
d="M1151 1352l-471 -781v-571h-107v575l-469 777h117l408 -678l405 678h117z" />
    <glyph glyph-name="Phi" unicode="&#x3a6;" horiz-adv-x="1638" 
d="M872 51v-133h-106v133q-191 0 -341 79.5t-233 221t-83 320.5q0 276 183 451t474 175v134h106v-134q292 0 474 -175t182 -451q0 -272 -183.5 -446.5t-472.5 -174.5zM766 150v1050q-248 0 -396.5 -146t-148.5 -384q0 -231 150 -375.5t395 -144.5zM1417 670
q0 237 -150 383.5t-395 146.5v-1050q244 0 394.5 144.5t150.5 375.5z" />
    <glyph glyph-name="Chi" unicode="&#x3a7;" horiz-adv-x="1204" 
d="M1130 0h-122l-406 606l-405 -606h-123l469 696l-437 656h123l375 -572l369 572h123l-430 -660z" />
    <glyph glyph-name="Psi" unicode="&#x3a8;" horiz-adv-x="1501" 
d="M696 0v317q-264 14 -416.5 166.5t-152.5 419.5v449h106v-453q0 -223 125.5 -349.5t337.5 -131.5v934h107v-934q214 5 339.5 131.5t125.5 349.5v453h106v-449q0 -268 -152.5 -420t-418.5 -166v-317h-107z" />
    <glyph glyph-name="uni03A9" unicode="&#x3a9;" horiz-adv-x="1624" 
d="M1128 96h357v-96h-535v94q443 212 443 602q0 247 -166.5 412.5t-415.5 165.5q-165 0 -297.5 -74.5t-207.5 -206.5t-75 -295q0 -394 443 -604v-94h-535v96h350q-370 233 -370 602q-4 184 88 341t253 247t351 86q140 3 269.5 -49.5t223 -143.5t148.5 -217t53 -264
q0 -183 -92.5 -331t-284.5 -271z" />
    <glyph glyph-name="Iotadieresis" unicode="&#x3aa;" horiz-adv-x="505" 
d="M201 0v1352h106v-1352h-106zM-68 1655q0 36 27 61t64 25t62.5 -24.5t25.5 -61.5t-25.5 -62.5t-62.5 -25.5t-64 26t-27 62zM395 1653q0 37 26.5 62.5t63.5 25.5t62.5 -25.5t25.5 -62.5q0 -35 -25.5 -60.5t-62.5 -25.5t-63.5 25.5t-26.5 60.5z" />
    <glyph glyph-name="Upsilondieresis" unicode="&#x3ab;" horiz-adv-x="1255" 
d="M1151 1352l-471 -781v-571h-107v575l-469 777h117l408 -678l405 678h117zM305 1655q0 36 26.5 61t63.5 25t62.5 -24.5t25.5 -61.5t-25.5 -62.5t-62.5 -25.5t-63.5 25.5t-26.5 62.5zM768 1653q0 37 26.5 62.5t63.5 25.5t62.5 -25.5t25.5 -62.5q0 -35 -25.5 -60.5
t-62.5 -25.5t-63.5 25.5t-26.5 60.5z" />
    <glyph glyph-name="alphatonos" unicode="&#x3ac;" horiz-adv-x="1320" 
d="M1272 90v-90q-58 -10 -88 -10q-178 0 -193 203q-55 -98 -161.5 -155.5t-231.5 -57.5q-136 0 -247 68.5t-173.5 186.5t-62.5 261q0 141 62.5 259t174 186.5t246.5 68.5q133 0 242.5 -64t160.5 -170l13 213h98l-4 -84q-16 -315 -16 -393v-276q0 -152 118 -152q22 0 62 6z
M989 494q0 197 -109.5 308t-271.5 111q-168 0 -277.5 -120t-109.5 -297q0 -180 109.5 -300t277.5 -120q159 0 270 111.5t111 306.5zM553 1155l72 442h127v-18l-115 -424h-84z" />
    <glyph glyph-name="epsilontonos" unicode="&#x3ad;" horiz-adv-x="1028" 
d="M850 233l74 -59q-130 -194 -408 -194q-195 0 -298 72.5t-103 207.5q0 94 52 158.5t148 87.5q-78 26 -119.5 84.5t-41.5 140.5q0 129 100.5 204t273.5 75q125 0 222 -43.5t151 -122.5l-72 -62q-94 131 -297 131q-129 0 -200.5 -51t-71.5 -143q0 -80 62 -125t176 -45h213
v-94h-203q-147 0 -217 -45.5t-70 -139.5q0 -194 293 -194q121 0 198.5 36t137.5 121zM485 1155l72 442h127v-18l-115 -424h-84z" />
    <glyph glyph-name="etatonos" unicode="&#x3ae;" horiz-adv-x="1181" 
d="M1008 625v-994h-105v985q0 135 -74.5 216t-199.5 81q-130 0 -213.5 -84t-83.5 -213v-616h-103v754q0 151 -118 151l-62 -2v86q58 10 90 10q151 0 185 -149q50 76 133 118t186 42q166 0 265.5 -104.5t99.5 -280.5zM575 1155l72 442h127v-18l-115 -424h-84z" />
    <glyph glyph-name="iotatonos" unicode="&#x3af;" horiz-adv-x="608" 
d="M182 272v717h105v-708q0 -106 42 -156.5t132 -50.5q49 0 137 16v-90q-73 -20 -154 -20q-128 0 -195 75t-67 217zM182 1155l72 442h127v-18l-115 -424h-84z" />
    <glyph glyph-name="upsilondieresistonos" unicode="&#x3b0;" 
d="M176 393v596h103v-600q0 -141 80.5 -227t213.5 -86t214 86t81 227v600h103v-596q0 -191 -107.5 -302t-290.5 -111t-290 110.5t-107 302.5zM498 1155l57 442h127v-18l-100 -424h-84zM213 1370q0 36 26 62t62 26q37 0 62.5 -25.5t25.5 -62.5q0 -35 -25.5 -60.5t-62.5 -25.5
q-35 0 -61.5 25.5t-26.5 60.5zM760 1370q0 36 26 62t62 26q37 0 63.5 -25.5t26.5 -62.5q0 -35 -26.5 -60.5t-63.5 -25.5q-35 0 -61.5 25.5t-26.5 60.5z" />
    <glyph glyph-name="alpha" unicode="&#x3b1;" horiz-adv-x="1320" 
d="M1272 90v-90q-58 -10 -88 -10q-178 0 -193 203q-55 -98 -161.5 -155.5t-231.5 -57.5q-136 0 -247 68.5t-173.5 186.5t-62.5 261q0 141 62.5 259t174 186.5t246.5 68.5q133 0 242.5 -64t160.5 -170l13 213h98l-4 -84q-16 -315 -16 -393v-276q0 -152 118 -152q22 0 62 6z
M989 494q0 197 -109.5 308t-271.5 111q-168 0 -277.5 -120t-109.5 -297q0 -180 109.5 -300t277.5 -120q159 0 270 111.5t111 306.5z" />
    <glyph glyph-name="beta" unicode="&#x3b2;" horiz-adv-x="1228" 
d="M1114 432q0 -198 -131.5 -325t-335.5 -127q-100 0 -192.5 34t-161.5 97v-480h-103v1516q0 179 117 295.5t297 116.5q167 0 278 -105.5t111 -265.5q0 -112 -54.5 -199t-152.5 -131q153 -41 240.5 -154t87.5 -272zM1008 432q0 163 -107 264q-104 101 -276 101h-158v92h127
q133 0 213 80t80 211q0 125 -79 202.5t-206 77.5q-137 0 -223 -88t-86 -229v-918q63 -72 154 -110.5t194 -38.5q163 0 264 98q103 100 103 258z" />
    <glyph glyph-name="gamma" unicode="&#x3b3;" horiz-adv-x="1073" 
d="M1008 989l-420 -1022v-336h-103v340l-419 1018h110l361 -887l360 887h111z" />
    <glyph glyph-name="delta" unicode="&#x3b4;" horiz-adv-x="1226" 
d="M1112 487q0 -220 -141.5 -363.5t-358.5 -143.5q-215 0 -356 142t-141 359q0 216 141 358t354 142q52 0 88 -8l-546 528v35h897v-98h-687l512 -494q133 -133 183 -225q55 -101 55 -232zM1006 479q0 175 -113 290.5t-283 115.5q-167 0 -278 -115.5t-111 -290.5
q0 -177 110 -290t281 -113q169 0 281.5 115t112.5 288z" />
    <glyph glyph-name="epsilon" unicode="&#x3b5;" horiz-adv-x="1028" 
d="M850 233l74 -59q-130 -194 -408 -194q-195 0 -298 72.5t-103 207.5q0 94 52 158.5t148 87.5q-78 26 -119.5 84.5t-41.5 140.5q0 129 100.5 204t273.5 75q125 0 222 -43.5t151 -122.5l-72 -62q-94 131 -297 131q-129 0 -200.5 -51t-71.5 -143q0 -80 62 -125t176 -45h213
v-94h-203q-147 0 -217 -45.5t-70 -139.5q0 -194 293 -194q121 0 198.5 36t137.5 121z" />
    <glyph glyph-name="zeta" unicode="&#x3b6;" horiz-adv-x="892" 
d="M893 1501l-379 -543q-164 -231 -227 -352q-66 -126 -66 -219q0 -115 68.5 -183.5t218.5 -103.5l76 -16q260 -58 260 -279q0 -94 -45 -174h-107q45 80 45 162q0 84 -47 129.5t-153 69.5l-76 16q-346 76 -346 373q0 81 30 160q29 79 95 184q96 152 194 291l293 424h-637v96
h803v-35z" />
    <glyph glyph-name="eta" unicode="&#x3b7;" horiz-adv-x="1181" 
d="M1008 625v-994h-105v985q0 135 -74.5 216t-199.5 81q-130 0 -213.5 -84t-83.5 -213v-616h-103v754q0 151 -118 151l-62 -2v86q58 10 90 10q151 0 185 -149q50 76 133 118t186 42q166 0 265.5 -104.5t99.5 -280.5z" />
    <glyph glyph-name="theta" unicode="&#x3b8;" horiz-adv-x="1241" 
d="M1124 768q0 -380 -136 -584t-367 -204q-229 0 -365.5 205t-136.5 583q0 380 136.5 584t365.5 204q232 0 367.5 -203.5t135.5 -584.5zM225 821h791q-10 307 -116 473t-279 166t-279.5 -166t-116.5 -473zM1016 725h-791q6 -310 115 -479.5t281 -169.5q171 0 280 169.5
t115 479.5z" />
    <glyph glyph-name="iota" unicode="&#x3b9;" horiz-adv-x="608" 
d="M182 272v717h105v-708q0 -106 42 -156.5t132 -50.5q49 0 137 16v-90q-73 -20 -154 -20q-128 0 -195 75t-67 217z" />
    <glyph glyph-name="kappa" unicode="&#x3ba;" horiz-adv-x="983" 
d="M190 0v989h103v-989h-103zM459 535l489 -535h-133l-491 535l462 454h138z" />
    <glyph glyph-name="lambda" unicode="&#x3bb;" horiz-adv-x="1099" 
d="M1032 86h49v-86q-27 -8 -69 -8q-66 0 -111 38t-74 120l-270 737l-395 -887h-111l457 1008l-100 280q-36 96 -78.5 135t-118.5 39q-45 0 -86 -8v90q46 12 100 12q99 0 164 -54t109 -175l417 -1137q24 -58 49.5 -81t67.5 -23z" />
    <glyph glyph-name="uni03BC" unicode="&#x3bc;" horiz-adv-x="1196" 
d="M1147 90v-90q-58 -10 -86 -10q-150 0 -184 143q-47 -73 -124 -113t-171 -40q-92 0 -167 38.5t-122 110.5v-498h-103v1358h103v-602q0 -135 80.5 -223t204.5 -88q125 0 204 88q82 88 82 223v602h103v-745q0 -160 118 -160q21 0 62 6z" />
    <glyph glyph-name="nu" unicode="&#x3bd;" horiz-adv-x="1079" 
d="M903 989h111l-451 -1009h-43l-454 1009h110l365 -833z" />
    <glyph glyph-name="xi" unicode="&#x3be;" horiz-adv-x="958" 
d="M315 1141q0 -121 81 -210t208 -89h225v-97h-243q-160 0 -252 -88.5t-92 -242.5q0 -260 321 -318l90 -16q132 -24 195 -92.5t63 -182.5q0 -97 -45 -174h-104q43 87 43 160q0 87 -46.5 134.5t-150.5 64.5l-98 16q-177 26 -276 134t-99 268q0 149 76.5 252.5t216.5 144.5
q-104 44 -161.5 130.5t-57.5 192.5q0 95 42.5 178.5t119.5 133.5h-230v96h777v-96h-304q-138 0 -218.5 -85.5t-80.5 -213.5z" />
    <glyph glyph-name="omicron" unicode="&#x3bf;" horiz-adv-x="1253" 
d="M115 496q-2 105 38.5 201t109.5 165.5t165 109.5t199 38q139 0 257 -68.5t186.5 -187t68.5 -258.5q2 -103 -38.5 -199.5t-110.5 -166.5t-166 -111t-199 -39q-137 -3 -256 67t-188 190.5t-66 258.5zM1032 494q0 178 -117.5 298.5t-287.5 120.5q-172 0 -289 -120.5
t-117 -298.5q0 -175 117 -296.5t287 -121.5t288.5 121.5t118.5 296.5z" />
    <glyph glyph-name="pi" unicode="&#x3c0;" horiz-adv-x="1198" 
d="M223 0v889h-168v100h1088v-100h-168v-889h-103v889h-544v-889h-105z" />
    <glyph glyph-name="rho" unicode="&#x3c1;" horiz-adv-x="1275" 
d="M1161 496q0 -142 -64.5 -261t-176 -187t-244.5 -68q-128 0 -234.5 57.5t-162.5 155.5v-562h-103v861q0 229 134 373.5t347 144.5q217 0 360.5 -146.5t143.5 -367.5zM1055 494q0 181 -113.5 300t-284.5 119t-276 -114t-105 -303q0 -185 108 -302.5t278 -117.5
q168 0 280.5 119t112.5 299z" />
    <glyph glyph-name="uni03C2" unicode="&#x3c2;" horiz-adv-x="1073" 
d="M795 -209q0 81 -43.5 127t-143.5 72l-110 26q-185 47 -284 171.5t-99 308.5q0 224 137 369t348 145q129 0 234.5 -52.5t177.5 -152.5l-74 -62q-129 170 -334 170q-166 0 -274.5 -116.5t-108.5 -296.5q0 -153 83 -253t245 -141l113 -28q123 -29 181 -95.5t58 -177.5
q0 -92 -43 -174h-106q43 82 43 160z" />
    <glyph glyph-name="sigma" unicode="&#x3c3;" horiz-adv-x="1288" 
d="M1264 989v-100h-353q100 -62 156.5 -167.5t56.5 -232.5q0 -214 -146.5 -361.5t-359.5 -147.5q-136 -3 -253 66t-185 188.5t-65 257.5q-3 135 65 250.5t186.5 182t256.5 64.5h641zM621 893q-173 0 -286.5 -113.5t-113.5 -287.5q0 -177 114 -296.5t283 -119.5
q170 0 285 121.5t115 296.5q0 173 -112.5 286t-284.5 113z" />
    <glyph glyph-name="tau" unicode="&#x3c4;" horiz-adv-x="960" 
d="M901 889h-407v-608q0 -207 213 -207q57 0 139 16v-90q-73 -20 -154 -20q-146 0 -223.5 76.5t-77.5 219.5v613h-352v100h862v-100z" />
    <glyph glyph-name="upsilon" unicode="&#x3c5;" 
d="M176 393v596h103v-600q0 -141 80.5 -227t213.5 -86t214 86t81 227v600h103v-596q0 -191 -107.5 -302t-290.5 -111t-290 110.5t-107 302.5z" />
    <glyph glyph-name="phi" unicode="&#x3c6;" horiz-adv-x="1480" 
d="M791 -20v-349h-103v349q-252 6 -412.5 147.5t-160.5 366.5q0 224 161 367t412 149v342h103v-342q165 -4 296 -69.5t206 -182t75 -264.5q0 -226 -161 -367t-416 -147zM690 72v843q-209 -3 -342 -118q-129 -114 -129 -305q0 -190 129 -304q131 -113 342 -116zM1262 492
q0 189 -131 303t-343 120v-843q211 3 342 116q132 114 132 304z" />
    <glyph glyph-name="chi" unicode="&#x3c7;" horiz-adv-x="985" 
d="M995 -283v-86q-36 -8 -77 -8q-70 0 -115.5 35t-83.5 111l-227 469l-306 -607h-114l362 707l-215 467q-26 55 -53.5 77.5t-75.5 22.5q-41 0 -59 -2v86q36 8 78 8q76 0 118 -33t80 -114l189 -422l286 561h113l-342 -663l250 -510q30 -58 58.5 -79.5t78.5 -21.5q43 0 55 2z
" />
    <glyph glyph-name="psi" unicode="&#x3c8;" horiz-adv-x="1462" 
d="M680 -369v349q-223 0 -363.5 138t-140.5 359v512h103v-508q0 -175 113.5 -290t287.5 -115v1276h102v-1276q174 0 288 115t114 290v508h102v-512q0 -221 -140.5 -359t-363.5 -138v-349h-102z" />
    <glyph glyph-name="omega" unicode="&#x3c9;" horiz-adv-x="1587" 
d="M1473 469q0 -226 -102 -357.5t-279 -131.5q-109 0 -184.5 49.5t-112.5 146.5q-37 -96 -113.5 -146t-185.5 -50q-177 0 -279 131.5t-102 357.5q0 196 81.5 331t237.5 201l41 -92q-254 -123 -254 -440q0 -180 75 -286.5t202 -106.5q113 0 179 80.5t66 216.5v274h101v-274
q0 -136 66.5 -216.5t179.5 -80.5q125 0 200.5 106.5t75.5 284.5q0 319 -252 442l39 92q158 -66 239 -200.5t81 -331.5z" />
    <glyph glyph-name="iotadieresis" unicode="&#x3ca;" horiz-adv-x="608" 
d="M182 272v717h105v-708q0 -106 42 -156.5t132 -50.5q49 0 137 16v-90q-73 -20 -154 -20q-128 0 -195 75t-67 217zM-29 1370q0 36 26 62t62 26q37 0 64 -26t27 -62q0 -35 -27 -60.5t-64 -25.5q-35 0 -61.5 25.5t-26.5 60.5zM319 1370q0 36 27 62t64 26t62.5 -25.5
t25.5 -62.5q0 -35 -25.5 -60.5t-62.5 -25.5t-64 25.5t-27 60.5z" />
    <glyph glyph-name="upsilondieresis" unicode="&#x3cb;" 
d="M176 393v596h103v-600q0 -141 80.5 -227t213.5 -86t214 86t81 227v600h103v-596q0 -191 -107.5 -302t-290.5 -111t-290 110.5t-107 302.5zM272 1370q0 36 26 62t62 26q37 0 64 -26t27 -62q0 -35 -27 -60.5t-64 -25.5q-35 0 -61.5 25.5t-26.5 60.5zM682 1370
q0 37 26.5 62.5t63.5 25.5t62.5 -25.5t25.5 -62.5q0 -35 -25.5 -60.5t-62.5 -25.5t-63.5 25.5t-26.5 60.5z" />
    <glyph glyph-name="omicrontonos" unicode="&#x3cc;" horiz-adv-x="1253" 
d="M115 496q-2 105 38.5 201t109.5 165.5t165 109.5t199 38q139 0 257 -68.5t186.5 -187t68.5 -258.5q2 -103 -38.5 -199.5t-110.5 -166.5t-166 -111t-199 -39q-137 -3 -256 67t-188 190.5t-66 258.5zM1032 494q0 178 -117.5 298.5t-287.5 120.5q-172 0 -289 -120.5
t-117 -298.5q0 -175 117 -296.5t287 -121.5t288.5 121.5t118.5 296.5zM575 1155l72 442h127v-18l-115 -424h-84z" />
    <glyph glyph-name="upsilontonos" unicode="&#x3cd;" 
d="M176 393v596h103v-600q0 -141 80.5 -227t213.5 -86t214 86t81 227v600h103v-596q0 -191 -107.5 -302t-290.5 -111t-290 110.5t-107 302.5zM516 1155l72 442h127v-18l-115 -424h-84z" />
    <glyph glyph-name="omegatonos" unicode="&#x3ce;" horiz-adv-x="1587" 
d="M1473 469q0 -226 -102 -357.5t-279 -131.5q-109 0 -184.5 49.5t-112.5 146.5q-37 -96 -113.5 -146t-185.5 -50q-177 0 -279 131.5t-102 357.5q0 196 81.5 331t237.5 201l41 -92q-254 -123 -254 -440q0 -180 75 -286.5t202 -106.5q113 0 179 80.5t66 216.5v274h101v-274
q0 -136 66.5 -216.5t179.5 -80.5q125 0 200.5 106.5t75.5 284.5q0 319 -252 442l39 92q158 -66 239 -200.5t81 -331.5zM743 1155l72 442h127v-18l-115 -424h-84z" />
    <glyph glyph-name="uni0400" unicode="&#x400;" horiz-adv-x="1153" 
d="M201 0v1352h846v-97h-740v-477h576v-96h-576v-586h764v-96h-870zM578 1483l-232 362v19h127l186 -381h-81z" />
    <glyph glyph-name="uni0401" unicode="&#x401;" horiz-adv-x="1153" 
d="M201 0v1352h846v-97h-740v-477h576v-96h-576v-586h764v-96h-870zM297 1655q0 36 26.5 61t63.5 25t62.5 -24.5t25.5 -61.5t-25.5 -62.5t-62.5 -25.5t-63.5 25.5t-26.5 62.5zM760 1653q0 37 26.5 62.5t63.5 25.5t62.5 -25.5t25.5 -62.5q0 -35 -25.5 -60.5t-62.5 -25.5
t-63.5 25.5t-26.5 60.5z" />
    <glyph glyph-name="uni0402" unicode="&#x402;" horiz-adv-x="1495" 
d="M958 -20l-18 92q350 50 350 334q0 151 -97.5 233t-264.5 82q-179 0 -328 -68v-653h-106v1255h-445v97h1067v-97h-516v-505q147 69 332 69q216 0 341.5 -110t125.5 -306q0 -190 -125 -297q-123 -105 -316 -126z" />
    <glyph glyph-name="uni0403" unicode="&#x403;" horiz-adv-x="1021" 
d="M201 0v1352h772v-97h-666v-1255h-106zM477 1483l187 381h127v-19l-232 -362h-82z" />
    <glyph glyph-name="uni0404" unicode="&#x404;" horiz-adv-x="1458" 
d="M1268 317l80 -63q-92 -129 -235 -201.5t-312 -72.5q-139 -3 -268.5 52t-223 149t-148.5 224t-52 271q-3 141 52 271.5t148.5 224t222.5 148t269 52.5q169 0 312 -72.5t235 -201.5l-80 -64q-81 114 -201 177t-264 63q-231 0 -394.5 -151.5t-185.5 -381.5h699v-96h-701
q5 -156 83.5 -287t210.5 -206t288 -72q145 0 265 62t200 175z" />
    <glyph glyph-name="uni0405" unicode="&#x405;" horiz-adv-x="1138" 
d="M94 266l80 60q157 -246 408 -246q137 0 222 69.5t85 186.5q-2 44 -12 76.5t-26 57.5t-49 49.5t-67.5 44.5t-95.5 50l-154 74q-58 27 -96.5 48t-79 52t-64.5 64.5t-40.5 80.5t-18.5 105q0 151 113.5 242.5t280.5 91.5q127 0 232.5 -57.5t172.5 -157.5l-80 -59
q-125 176 -325 176q-119 0 -199 -57q-84 -60 -84 -173q2 -36 8.5 -63.5t22 -51t31 -40t47 -36.5t57.5 -33.5t74 -37.5l151 -73q165 -77 238 -159.5t73 -211.5q0 -158 -119 -258t-300 -100q-152 0 -279 75.5t-207 210.5z" />
    <glyph glyph-name="uni0406" unicode="&#x406;" horiz-adv-x="505" 
d="M201 0v1352h106v-1352h-106z" />
    <glyph glyph-name="uni0407" unicode="&#x407;" horiz-adv-x="505" 
d="M201 0v1352h106v-1352h-106zM-68 1655q0 36 27 61t64 25t62.5 -24.5t25.5 -61.5t-25.5 -62.5t-62.5 -25.5t-64 26t-27 62zM395 1653q0 37 26.5 62.5t63.5 25.5t62.5 -25.5t25.5 -62.5q0 -35 -25.5 -60.5t-62.5 -25.5t-63.5 25.5t-26.5 60.5z" />
    <glyph glyph-name="uni0408" unicode="&#x408;" horiz-adv-x="749" 
d="M57 0v94q71 -14 152 -14q118 0 176.5 49.5t58.5 169.5v1053h107v-1059q0 -156 -87 -234.5t-241 -78.5q-85 0 -166 20z" />
    <glyph glyph-name="uni0409" unicode="&#x409;" horiz-adv-x="1976" 
d="M1880 391q0 -173 -116.5 -282t-311.5 -109h-453v1255h-534l-4 -141q-15 -424 -57 -665t-119 -347.5t-207 -109.5q-40 0 -53 8v96q12 -6 43 -6q140 0 209 241.5t81 747.5l7 273h741v-570h346q196 0 312 -109t116 -282zM1769 391q0 133 -84 214t-235 81h-344v-590h344
q150 0 234.5 81.5t84.5 213.5z" />
    <glyph glyph-name="uni040A" unicode="&#x40a;" horiz-adv-x="1986" 
d="M201 0v1352h106v-564h703v564h106v-564h330q206 0 325 -110t119 -283q0 -174 -119 -284.5t-325 -110.5h-436v692h-703v-692h-106zM1116 96h328q157 0 246.5 82.5t89.5 214.5q0 133 -89.5 216t-246.5 83h-328v-596z" />
    <glyph glyph-name="uni040B" unicode="&#x40b;" horiz-adv-x="1597" 
d="M1407 326v-326h-107v319q0 193 -99.5 297.5t-272.5 104.5q-174 0 -328 -68v-653h-106v1255h-445v97h1067v-97h-516v-503q152 67 332 67q219 0 347 -130.5t128 -362.5z" />
    <glyph glyph-name="uni040C" unicode="&#x40c;" horiz-adv-x="1255" 
d="M201 0v1352h106v-1352h-106zM477 729l705 -729h-138l-708 731l655 621h142zM586 1483l186 381h127v-19l-231 -362h-82z" />
    <glyph glyph-name="uni040D" unicode="&#x40d;" horiz-adv-x="1466" 
d="M1223 1372h43v-1372h-107v1153l-917 -1173h-41v1372h106v-1153zM692 1483l-231 362v19h127l186 -381h-82z" />
    <glyph glyph-name="uni040E" unicode="&#x40e;" horiz-adv-x="1306" 
d="M1118 1352h111l-488 -1088q-68 -153 -146 -216.5t-200 -63.5q-53 0 -112 16v96q49 -14 110 -14q88 0 143.5 42t98.5 140l6 15l-537 1073h117l477 -951zM369 1802v62h92v-60q0 -106 52.5 -166.5t145.5 -60.5t146 60.5t53 166.5v60h92v-62q0 -141 -78.5 -224t-212.5 -83
q-133 0 -211.5 83t-78.5 224z" />
    <glyph glyph-name="uni040F" unicode="&#x40f;" horiz-adv-x="1425" 
d="M1225 1352v-1352h-459v-289h-107v289h-458v1352h106v-1256h811v1256h107z" />
    <glyph glyph-name="uni0410" unicode="&#x410;" horiz-adv-x="1359" 
d="M1167 0l-133 322h-710l-134 -322h-110l579 1372h43l578 -1372h-113zM680 1182l-315 -764h628z" />
    <glyph glyph-name="uni0411" unicode="&#x411;" horiz-adv-x="1171" 
d="M201 0v1352h766v-97h-660v-481h340q195 0 311.5 -109t116.5 -278t-116.5 -278t-311.5 -109h-446zM307 96h336q151 0 236.5 80t85.5 211t-85.5 211t-236.5 80h-336v-582z" />
    <glyph glyph-name="uni0412" unicode="&#x412;" horiz-adv-x="1255" 
d="M1157 385q0 -170 -113 -277.5t-307 -107.5h-536v1352h458q168 0 266.5 -91t98.5 -239q0 -90 -40.5 -160.5t-115.5 -113.5q136 -32 212.5 -129t76.5 -234zM649 1257l-342 -2v-479h342q126 0 195 65.5t69 174.5q0 110 -67.5 175.5t-196.5 65.5zM1049 387q0 132 -85.5 212.5
t-236.5 80.5h-420v-584h420q151 0 236.5 80t85.5 211z" />
    <glyph glyph-name="uni0413" unicode="&#x413;" horiz-adv-x="1021" 
d="M201 0v1352h772v-97h-666v-1255h-106z" />
    <glyph glyph-name="uni0414" unicode="&#x414;" horiz-adv-x="1366" 
d="M1135 96h170v-385h-107v289h-1071v-289h-107v385h117q106 115 152 338q48 217 57 668l4 250h785v-1256zM258 96h770v1159h-577l-7 -141q-9 -424 -51 -657q-43 -240 -135 -361z" />
    <glyph glyph-name="uni0415" unicode="&#x415;" horiz-adv-x="1153" 
d="M201 0v1352h846v-97h-740v-477h576v-96h-576v-586h764v-96h-870z" />
    <glyph glyph-name="uni0416" unicode="&#x416;" horiz-adv-x="1921" 
d="M121 1352h143l613 -621l-666 -731h-137l665 729zM907 0v1352h107v-1352h-107zM1182 731l665 -731h-137l-666 731l613 621h141z" />
    <glyph glyph-name="uni0417" unicode="&#x417;" horiz-adv-x="1187" 
d="M1081 387q0 -178 -130 -292.5t-335 -114.5q-168 0 -298 73t-207 215l77 60q69 -122 177.5 -185t248.5 -63q156 0 256 86q101 85 101 221q0 127 -89.5 210t-246.5 83h-197v96h191q126 0 195 67t69 179q0 115 -75.5 183.5t-209.5 68.5q-222 0 -348 -184l-78 59
q141 223 426 223q180 0 288 -98.5t108 -247.5q0 -94 -48 -170t-135 -119q122 -38 191 -132.5t69 -217.5z" />
    <glyph glyph-name="uni0418" unicode="&#x418;" horiz-adv-x="1466" 
d="M1223 1372h43v-1372h-107v1153l-917 -1173h-41v1372h106v-1153z" />
    <glyph glyph-name="uni0419" unicode="&#x419;" horiz-adv-x="1466" 
d="M1223 1372h43v-1372h-107v1153l-917 -1173h-41v1372h106v-1153zM442 1802v62h93v-60q0 -106 52.5 -166.5t145.5 -60.5t146 60.5t53 166.5v60h92v-62q0 -141 -78.5 -224t-212.5 -83t-212.5 83t-78.5 224z" />
    <glyph glyph-name="uni041A" unicode="&#x41a;" horiz-adv-x="1255" 
d="M201 0v1352h106v-1352h-106zM477 729l705 -729h-138l-708 731l655 621h142z" />
    <glyph glyph-name="uni041B" unicode="&#x41b;" horiz-adv-x="1355" 
d="M365 1352h790v-1352h-106v1255h-584l-4 -135q-15 -425 -58 -668.5t-120 -350t-205 -109.5q-40 0 -53 8v96q12 -6 43 -6q140 0 209 241.5t81 747.5z" />
    <glyph glyph-name="uni041C" unicode="&#x41c;" horiz-adv-x="1607" 
d="M1366 1372h41v-1372h-107v1098l-475 -676h-41l-477 676v-1098h-106v1372h41l563 -803z" />
    <glyph glyph-name="uni041D" unicode="&#x41d;" horiz-adv-x="1445" 
d="M201 0v1352h106v-574h832v574h106v-1352h-106v682h-832v-682h-106z" />
    <glyph glyph-name="uni041E" unicode="&#x41e;" horiz-adv-x="1603" 
d="M109 676q-3 141 52 271.5t148.5 224t222.5 148t269 52.5q138 2 267 -52.5t224 -148t150.5 -224t52.5 -271.5q3 -141 -52.5 -271t-150 -224t-224 -149t-267.5 -52q-139 -3 -268.5 52t-223 149t-148.5 224t-52 271zM1382 678q3 162 -74 300.5t-212 218.5t-293 77
q-160 3 -295.5 -77t-212.5 -218.5t-74 -300.5q-3 -164 74 -302.5t212.5 -218t295.5 -77.5q158 -3 293 77.5t212 219.5t74 301z" />
    <glyph glyph-name="uni041F" unicode="&#x41f;" horiz-adv-x="1425" 
d="M201 0v1352h1024v-1352h-107v1255h-811v-1255h-106z" />
    <glyph glyph-name="uni0420" unicode="&#x420;" horiz-adv-x="1155" 
d="M201 0v1352h458q187 0 298.5 -104t111.5 -267q0 -166 -111 -270.5t-299 -104.5h-352v-606h-106zM307 702h348q143 0 223 75.5t80 201.5t-79.5 201t-223.5 75h-348v-553z" />
    <glyph glyph-name="uni0421" unicode="&#x421;" horiz-adv-x="1458" 
d="M109 676q-3 141 52 271.5t148.5 224t222.5 148t269 52.5q169 0 312 -72.5t235 -201.5l-80 -64q-81 114 -201 177t-264 63q-160 3 -295.5 -77t-212.5 -218.5t-74 -300.5q-3 -164 74 -302.5t212.5 -218t295.5 -77.5q145 0 265 62t200 175l80 -63q-92 -129 -235 -201.5
t-312 -72.5q-139 -3 -268.5 52t-223 149t-148.5 224t-52 271z" />
    <glyph glyph-name="uni0422" unicode="&#x422;" horiz-adv-x="1193" 
d="M543 0v1255h-494v97h1096v-97h-496v-1255h-106z" />
    <glyph glyph-name="uni0423" unicode="&#x423;" horiz-adv-x="1306" 
d="M1118 1352h111l-488 -1088q-68 -153 -146 -216.5t-200 -63.5q-53 0 -112 16v96q49 -14 110 -14q88 0 143.5 42t98.5 140l6 15l-537 1073h117l477 -951z" />
    <glyph glyph-name="uni0424" unicode="&#x424;" horiz-adv-x="1572" 
d="M838 135v-176h-107v176q-186 2 -330.5 68.5t-226.5 191t-82 289.5q0 248 177.5 395t461.5 150v164h107v-164q285 0 463 -147.5t178 -397.5q0 -166 -82 -291.5t-227 -191.5t-332 -66zM731 233v900q-241 0 -383.5 -120t-142.5 -329q0 -213 143 -332t383 -119zM1368 684
q0 209 -145 330q-143 119 -385 119v-900q242 0 385 119q145 121 145 332z" />
    <glyph glyph-name="uni0425" unicode="&#x425;" horiz-adv-x="1204" 
d="M1130 0h-122l-406 606l-405 -606h-123l469 696l-437 656h123l375 -572l369 572h123l-430 -660z" />
    <glyph glyph-name="uni0426" unicode="&#x426;" horiz-adv-x="1456" 
d="M1288 -289v289h-1087v1352h106v-1256h811v1256h107v-1256h170v-385h-107z" />
    <glyph glyph-name="uni0427" unicode="&#x427;" horiz-adv-x="1337" 
d="M1030 1352h107v-1352h-107v582q-153 -66 -375 -66q-241 0 -371 126.5t-130 375.5v334h106v-330q0 -408 397 -408q223 0 373 66v672z" />
    <glyph glyph-name="uni0428" unicode="&#x428;" horiz-adv-x="1982" 
d="M201 0v1352h106v-1256h631v1256h106v-1256h631v1256h107v-1352h-1581z" />
    <glyph glyph-name="uni0429" unicode="&#x429;" horiz-adv-x="2013" 
d="M1845 -289v289h-1644v1352h106v-1256h631v1256h106v-1256h631v1256h107v-1256h170v-385h-107z" />
    <glyph glyph-name="uni042A" unicode="&#x42a;" horiz-adv-x="1339" 
d="M362 0v1255h-313v97h420v-570h346q195 0 310.5 -109t115.5 -282t-115.5 -282t-310.5 -109h-453zM469 96h342q151 0 236.5 81.5t85.5 213.5q0 133 -85.5 214t-236.5 81h-342v-590z" />
    <glyph glyph-name="uni042B" unicode="&#x42b;" horiz-adv-x="1662" 
d="M201 0v1352h106v-570h346q195 0 310.5 -109t115.5 -282t-115.5 -282t-310.5 -109h-452zM307 96h342q151 0 236.5 81.5t85.5 213.5q0 133 -85.5 214t-236.5 81h-342v-590zM1358 0v1352h106v-1352h-106z" />
    <glyph glyph-name="uni042C" unicode="&#x42c;" horiz-adv-x="1177" 
d="M201 0v1352h106v-570h346q195 0 310.5 -109t115.5 -282t-115.5 -282t-310.5 -109h-452zM307 96h342q151 0 236.5 81.5t85.5 213.5q0 133 -85.5 214t-236.5 81h-342v-590z" />
    <glyph glyph-name="uni042D" unicode="&#x42d;" horiz-adv-x="1458" 
d="M1348 676q2 -141 -53 -271t-148.5 -224t-222 -149t-267.5 -52q-169 0 -313.5 73t-232.5 201l79 63q80 -113 200 -175t265 -62q117 0 222 43.5t182 118t124.5 179.5t53.5 224h-692v96h690q-22 230 -185.5 381.5t-394.5 151.5q-144 0 -264 -63t-201 -177l-79 64
q92 129 234.5 201.5t311.5 72.5q139 3 267.5 -51.5t222 -148t148.5 -224t53 -272.5z" />
    <glyph glyph-name="uni042E" unicode="&#x42e;" horiz-adv-x="2021" 
d="M1911 676q2 -141 -51 -271t-143.5 -224t-215.5 -149t-260 -52q-135 -3 -259.5 52t-214 149t-142 224t-50.5 271v6h-268v-682h-106v1352h106v-574h275q34 257 220 425.5t439 168.5q135 3 260 -51.5t215.5 -148t143.5 -224t51 -272.5zM1800 678q0 165 -72.5 301.5
t-200.5 215.5t-284 79t-283.5 -78t-199.5 -214.5t-72 -303.5t71.5 -304t199 -215.5t284.5 -78.5q156 0 284 78.5t200.5 215.5t72.5 304z" />
    <glyph glyph-name="uni042F" unicode="&#x42f;" horiz-adv-x="1236" 
d="M598 1352h438v-1352h-106v565h-314l-393 -565h-125l402 575q-153 29 -243.5 133t-90.5 253q0 177 118.5 284t313.5 107zM930 662v593h-330q-149 0 -236.5 -80t-87.5 -217q0 -136 87.5 -216t236.5 -80h330z" />
    <glyph glyph-name="uni0430" unicode="&#x430;" horiz-adv-x="1067" 
d="M893 621v-621h-98v156q-54 -85 -146 -130.5t-209 -45.5q-144 0 -241 69q-99 71 -99 199q0 121 94 192.5t250 71.5h344v113q0 139 -72.5 213.5t-199.5 74.5q-92 0 -164.5 -40.5t-136.5 -124.5l-72 57q144 205 379 205q170 0 270.5 -101.5t100.5 -287.5zM788 369v55h-333
q-121 0 -184.5 -44t-63.5 -126q0 -87 69.5 -135.5t174.5 -48.5q138 0 237.5 86.5t99.5 212.5z" />
    <glyph glyph-name="uni0431" unicode="&#x431;" horiz-adv-x="1263" 
d="M1149 487q0 -138 -68.5 -255t-187 -184.5t-258.5 -67.5q-219 0 -362.5 152t-143.5 390v211q1 136 18 236.5t56.5 184.5t106 142.5t164.5 100t235 67.5q275 50 352 90v-100q-52 -27 -126.5 -45.5t-211.5 -40.5q-105 -19 -182.5 -45.5t-132 -66t-89.5 -85t-55 -110.5
t-28 -134.5t-9 -166.5v-21q63 119 174.5 187.5t245.5 68.5q132 3 249 -66t186.5 -188t66.5 -254zM1042 487q0 171 -117.5 291.5t-287.5 120.5q-168 0 -284.5 -119.5t-116.5 -292.5t116.5 -292t284.5 -119q170 0 287.5 120t117.5 291z" />
    <glyph glyph-name="uni0432" unicode="&#x432;" horiz-adv-x="1095" 
d="M961 289q0 -129 -92.5 -209t-250.5 -80h-428v989h398q139 0 219 -67.5t80 -180.5q0 -69 -33.5 -125t-93.5 -88q95 -30 148 -91.5t53 -147.5zM293 895v-332h291q96 0 147 47t51 127q0 76 -50.5 117t-147.5 41h-291zM854 287q0 86 -64 135t-180 49h-317v-377h317
q115 0 179.5 53t64.5 140z" />
    <glyph glyph-name="uni0433" unicode="&#x433;" horiz-adv-x="866" 
d="M190 0v989h633v-94h-530v-895h-103z" />
    <glyph glyph-name="uni0434" unicode="&#x434;" horiz-adv-x="1144" 
d="M909 94h158v-383h-102v289h-846v-289h-103v383h101q69 75 104 223q34 144 43 422l8 250h637v-895zM233 94h574v801h-438l-7 -158q-18 -496 -129 -643z" />
    <glyph glyph-name="uni0435" unicode="&#x435;" horiz-adv-x="1171" 
d="M1049 471h-828q9 -173 124.5 -284t283.5 -111q198 0 329 155l66 -67q-74 -87 -177 -135.5t-220 -48.5q-103 -2 -199 38.5t-165 110.5t-109.5 166t-38.5 199q-2 103 37.5 199.5t107.5 166.5t161 111t193 39q187 0 315 -123.5t128 -317.5q0 -67 -8 -98zM225 563h725
q6 157 -93.5 254.5t-246.5 97.5q-150 0 -256 -100q-108 -99 -129 -252z" />
    <glyph glyph-name="uni0436" unicode="&#x436;" horiz-adv-x="1517" 
d="M96 989h135l445 -452l-494 -537h-129l492 537zM707 0v989h102v-989h-102zM973 539l493 -539h-133l-491 537l442 452h135z" />
    <glyph glyph-name="uni0437" unicode="&#x437;" horiz-adv-x="952" 
d="M838 279q0 -134 -99 -216.5t-264 -82.5q-242 0 -371 194l74 62q108 -160 297 -160q121 0 187.5 56.5t66.5 150.5q0 90 -65.5 142t-190.5 52h-131v94h133q102 0 154.5 47t52.5 127q0 78 -55.5 123t-153.5 45q-87 0 -148.5 -32.5t-115.5 -98.5l-70 62q120 166 336 166
q143 0 227 -70t84 -188q0 -74 -37.5 -134t-105.5 -90q92 -31 143.5 -97.5t51.5 -151.5z" />
    <glyph glyph-name="uni0438" unicode="&#x438;" horiz-adv-x="1155" 
d="M924 1010h43v-1010h-105v799l-629 -819h-43v1009h103v-803z" />
    <glyph glyph-name="uni0439" unicode="&#x439;" horiz-adv-x="1155" 
d="M924 1010h43v-1010h-105v799l-629 -819h-43v1009h103v-803zM299 1483v67h92v-63q0 -106 53 -166.5t146 -60.5t145.5 60.5t52.5 166.5v63h93v-67q0 -140 -79 -223.5t-212 -83.5t-212 83.5t-79 223.5z" />
    <glyph glyph-name="uni043A" unicode="&#x43a;" horiz-adv-x="1005" 
d="M190 0v989h103v-989h-103zM459 539l495 -539h-133l-497 537l448 452h135z" />
    <glyph glyph-name="uni043B" unicode="&#x43b;" horiz-adv-x="1095" 
d="M285 989h620v-989h-104v895h-420l-6 -150q-8 -177 -21 -296t-34.5 -209.5t-55 -141t-79 -76t-111.5 -28.5q-17 0 -41 6v90q8 -2 37 -2q108 7 150 154.5t56 507.5z" />
    <glyph glyph-name="uni043C" unicode="&#x43c;" horiz-adv-x="1402" 
d="M190 0v1010h43l469 -586l469 586h43v-1010h-104v778l-385 -481h-45l-387 483v-780h-103z" />
    <glyph glyph-name="uni043D" unicode="&#x43d;" horiz-adv-x="1136" 
d="M190 0v989h103v-407h551v407h102v-989h-102v485h-551v-485h-103z" />
    <glyph glyph-name="uni043E" unicode="&#x43e;" horiz-adv-x="1253" 
d="M115 496q-2 105 38.5 201t109.5 165.5t165 109.5t199 38q139 0 257 -68.5t186.5 -187t68.5 -258.5q2 -103 -38.5 -199.5t-110.5 -166.5t-166 -111t-199 -39q-137 -3 -256 67t-188 190.5t-66 258.5zM1032 494q0 178 -117.5 298.5t-287.5 120.5q-172 0 -289 -120.5
t-117 -298.5q0 -175 117 -296.5t287 -121.5t288.5 121.5t118.5 296.5z" />
    <glyph glyph-name="uni043F" unicode="&#x43f;" horiz-adv-x="1120" 
d="M190 0v989h742v-989h-105v895h-534v-895h-103z" />
    <glyph glyph-name="uni0440" unicode="&#x440;" horiz-adv-x="1298" 
d="M1184 496q0 -142 -65 -261t-178 -187t-249 -68q-126 0 -234.5 56.5t-164.5 153.5v-559h-103v1358h99v-198q56 100 165 159.5t238 59.5q206 0 349 -150t143 -364zM1077 494q0 178 -113 298.5t-282 120.5q-78 0 -147.5 -26t-124 -76t-86 -131t-31.5 -184t31.5 -185
t86 -132.5t124 -76.5t147.5 -26q170 0 282.5 119.5t112.5 298.5z" />
    <glyph glyph-name="uni0441" unicode="&#x441;" horiz-adv-x="1130" 
d="M115 496q-2 103 38.5 199t109.5 166t165 110.5t199 38.5q122 0 225.5 -53.5t173.5 -149.5l-74 -59q-125 165 -325 165q-171 0 -288.5 -121.5t-117.5 -295.5q0 -177 117 -298.5t287 -121.5q198 0 327 166l74 -60q-70 -95 -174 -148.5t-227 -53.5q-137 -3 -256 67
t-188 190.5t-66 258.5z" />
    <glyph glyph-name="uni0442" unicode="&#x442;" horiz-adv-x="927" 
d="M414 0v895h-363v94h826v-94h-361v-895h-102z" />
    <glyph glyph-name="uni0443" unicode="&#x443;" horiz-adv-x="1079" 
d="M903 989h111l-494 -1151q-53 -120 -127.5 -173.5t-181.5 -53.5q-71 0 -139 18v90q60 -14 125 -14q81 0 136.5 39.5t92.5 130.5l63 145l-423 969h112l367 -852z" />
    <glyph glyph-name="uni0444" unicode="&#x444;" horiz-adv-x="1439" 
d="M772 -20v-349h-104v349q-246 3 -399.5 144.5t-153.5 369.5q0 225 155.5 369t397.5 147v526h104v-526q246 -6 400.5 -148.5t154.5 -367.5q0 -227 -154.5 -369t-400.5 -145zM670 72v843q-203 -3 -326 -118.5t-123 -302.5q0 -190 122 -303.5t327 -118.5zM1219 494
q0 187 -123 302.5t-326 118.5v-843q205 5 327 118.5t122 303.5z" />
    <glyph glyph-name="uni0445" unicode="&#x445;" horiz-adv-x="983" 
d="M930 0h-123l-315 442l-316 -442h-123l375 520l-344 469h123l282 -397l287 397h123l-348 -473z" />
    <glyph glyph-name="uni0446" unicode="&#x446;" horiz-adv-x="1165" 
d="M985 -289v289h-795v989h103v-895h534v895h103v-895h157v-383h-102z" />
    <glyph glyph-name="uni0447" unicode="&#x447;" horiz-adv-x="1048" 
d="M756 989h102v-989h-102v434q-102 -51 -262 -51q-177 0 -278 97t-101 280v229h102v-225q0 -287 289 -287q156 0 250 49v463z" />
    <glyph glyph-name="uni0448" unicode="&#x448;" horiz-adv-x="1660" 
d="M190 0v989h103v-895h485v895h105v-895h485v895h102v-989h-1280z" />
    <glyph glyph-name="uni0449" unicode="&#x449;" horiz-adv-x="1705" 
d="M1526 -289v289h-1336v989h103v-895h485v895h105v-895h485v895h102v-895h158v-383h-102z" />
    <glyph glyph-name="uni044A" unicode="&#x44a;" horiz-adv-x="1140" 
d="M305 0v895h-254v94h359v-368h260q164 0 260 -84.5t96 -225.5q0 -142 -95.5 -226.5t-260.5 -84.5h-365zM410 94h254q121 0 188.5 58.5t67.5 156.5t-68.5 157.5t-189.5 59.5h-252v-432z" />
    <glyph glyph-name="uni044B" unicode="&#x44b;" horiz-adv-x="1402" 
d="M190 0v989h103v-368h260q165 0 261.5 -85t96.5 -225q0 -142 -96.5 -226.5t-261.5 -84.5h-363zM1110 0v989h102v-989h-102zM293 94h254q122 0 189 58t67 157q0 100 -67.5 158.5t-188.5 58.5h-254v-432z" />
    <glyph glyph-name="uni044C" unicode="&#x44c;" horiz-adv-x="1026" 
d="M190 0v989h103v-368h260q166 0 262 -84.5t96 -225.5q0 -142 -96 -226.5t-262 -84.5h-363zM293 94h254q121 0 188.5 58.5t67.5 156.5q0 99 -67.5 158t-188.5 59h-254v-432z" />
    <glyph glyph-name="uni044D" unicode="&#x44d;" horiz-adv-x="1130" 
d="M1016 496q2 -103 -39 -199.5t-110 -166.5t-164.5 -111t-196.5 -39q-122 0 -227 53.5t-175 148.5l74 60q61 -79 145.5 -122.5t182.5 -43.5q163 0 277 111.5t126 277.5h-485v94h481q-21 152 -135 254q-109 100 -266 100q-201 0 -326 -165l-74 59q70 95 174.5 149t227.5 54
q102 2 197 -38.5t164 -110.5t110 -166t39 -199z" />
    <glyph glyph-name="uni044E" unicode="&#x44e;" horiz-adv-x="1634" 
d="M1522 496q3 -138 -66.5 -258.5t-187.5 -190.5t-252 -67q-204 0 -350.5 147.5t-149.5 357.5h-223v-485h-103v989h103v-407h229q28 183 169 305.5t327 122.5q136 0 252 -68.5t184 -187t68 -258.5zM1413 494q0 177 -114.5 298t-280.5 121q-169 0 -282 -120.5t-113 -298.5
q0 -175 114 -296.5t279 -121.5q167 0 282 121.5t115 296.5z" />
    <glyph glyph-name="uni044F" unicode="&#x44f;" horiz-adv-x="1062" 
d="M510 989h362v-989h-102v389h-235l-299 -389h-125l311 399q-123 23 -191.5 99.5t-68.5 189.5q0 137 94.5 219t253.5 82zM770 483v412h-254q-115 0 -181.5 -55.5t-66.5 -149.5q0 -97 66.5 -152t183.5 -55h252z" />
    <glyph glyph-name="uni0450" unicode="&#x450;" horiz-adv-x="1171" 
d="M1049 471h-828q9 -173 124.5 -284t283.5 -111q198 0 329 155l66 -67q-74 -87 -177 -135.5t-220 -48.5q-103 -2 -199 38.5t-165 110.5t-109.5 166t-38.5 199q-2 103 37.5 199.5t107.5 166.5t161 111t193 39q187 0 315 -123.5t128 -317.5q0 -67 -8 -98zM225 563h725
q6 157 -93.5 254.5t-246.5 97.5q-150 0 -256 -100q-108 -99 -129 -252zM563 1155l-231 424v18h127l186 -442h-82z" />
    <glyph glyph-name="uni0451" unicode="&#x451;" horiz-adv-x="1171" 
d="M1049 471h-828q9 -173 124.5 -284t283.5 -111q198 0 329 155l66 -67q-74 -87 -177 -135.5t-220 -48.5q-103 -2 -199 38.5t-165 110.5t-109.5 166t-38.5 199q-2 103 37.5 199.5t107.5 166.5t161 111t193 39q187 0 315 -123.5t128 -317.5q0 -67 -8 -98zM225 563h725
q6 157 -93.5 254.5t-246.5 97.5q-150 0 -256 -100q-108 -99 -129 -252zM307 1370q0 36 26 62t62 26q37 0 63.5 -25.5t26.5 -62.5q0 -35 -26.5 -60.5t-63.5 -25.5q-35 0 -61.5 25.5t-26.5 60.5zM717 1370q0 37 26.5 62.5t63.5 25.5t62.5 -25.5t25.5 -62.5q0 -35 -25.5 -60.5
t-62.5 -25.5t-63.5 25.5t-26.5 60.5z" />
    <glyph glyph-name="uni0452" unicode="&#x452;" horiz-adv-x="1144" 
d="M971 614v-706q0 -149 -80 -223t-221 -74q-60 0 -113 12v90q41 -8 94 -8q107 0 161 48t54 159v694q0 132 -74 213.5t-200 81.5q-129 0 -213 -83t-84 -212v-606h-102v1217h-173v92h173v227h102v-227h424v-92h-424v-377q50 76 130.5 117.5t182.5 41.5q166 0 264.5 -106
t98.5 -279z" />
    <glyph glyph-name="uni0453" unicode="&#x453;" horiz-adv-x="866" 
d="M190 0v989h633v-94h-530v-895h-103zM440 1155l187 442h127v-18l-232 -424h-82z" />
    <glyph glyph-name="uni0454" unicode="&#x454;" horiz-adv-x="1130" 
d="M952 242l74 -60q-70 -95 -174.5 -148.5t-226.5 -53.5q-101 -2 -196.5 39t-164.5 111t-110 166.5t-39 199.5q-2 103 39 199.5t111 165.5t165 110t197 39q121 0 225 -54t174 -149l-72 -59q-128 165 -327 165q-157 0 -269 -100q-112 -103 -133 -254h482v-94h-486
q12 -167 126.5 -278t277.5 -111q202 0 327 166z" />
    <glyph glyph-name="uni0455" unicode="&#x455;" horiz-adv-x="931" 
d="M94 184l72 68q70 -89 144 -132.5t165 -43.5q97 0 159 46t62 128q-7 76 -46.5 111.5t-155.5 87.5l-91 38q-126 55 -184.5 114t-58.5 151q0 117 92 188q91 70 223 70q198 0 320 -158l-68 -66q-115 127 -258 127q-89 0 -145 -41t-56 -114q0 -60 40.5 -96.5t146.5 -81.5
l92 -41q133 -59 194.5 -123t61.5 -162q0 -131 -96 -203q-95 -71 -234 -71q-120 0 -217 54.5t-162 149.5z" />
    <glyph glyph-name="uni0456" unicode="&#x456;" horiz-adv-x="538" 
d="M180 1370q0 37 26 63.5t64 26.5t64 -26.5t26 -63.5t-26 -63.5t-64 -26.5t-64 26.5t-26 63.5zM219 0v989h103v-989h-103z" />
    <glyph glyph-name="uni0457" unicode="&#x457;" horiz-adv-x="497" 
d="M41 1370q0 37 24.5 62.5t59.5 25.5t59.5 -25.5t24.5 -62.5t-24.5 -61.5t-59.5 -24.5t-59.5 24.5t-24.5 61.5zM289 1370q0 37 24.5 62.5t59.5 25.5t59.5 -25.5t24.5 -62.5t-24.5 -61.5t-59.5 -24.5t-59.5 24.5t-24.5 61.5zM197 0v989h104v-989h-104z" />
    <glyph glyph-name="uni0458" unicode="&#x458;" horiz-adv-x="483" 
d="M-119 -377v90q41 -8 94 -8q107 0 161 48t54 159v1077h103v-1081q0 -149 -79 -223t-220 -74q-60 0 -113 12zM152 1370q0 37 26 63.5t64 26.5q37 0 63.5 -26.5t26.5 -63.5t-26.5 -63.5t-63.5 -26.5q-38 0 -64 26.5t-26 63.5z" />
    <glyph glyph-name="uni0459" unicode="&#x459;" horiz-adv-x="1585" 
d="M1470 311q0 -142 -95.5 -226.5t-260.5 -84.5h-352v895h-381l-6 -150q-8 -177 -21 -296t-34.5 -209.5t-55 -141t-79 -76t-111.5 -28.5q-17 0 -41 6v90q8 -2 37 -2q108 7 150 154.5t56 507.5l9 239h581v-368h248q164 0 260 -84.5t96 -225.5zM1364 309q0 98 -68.5 157.5
t-189.5 59.5h-240v-432h242q121 0 188.5 58.5t67.5 156.5z" />
    <glyph glyph-name="uni045A" unicode="&#x45a;" horiz-adv-x="1640" 
d="M1526 307q0 -142 -97 -224.5t-266 -82.5h-368v514h-502v-514h-103v989h103v-383h502v383h102v-383h266q169 0 266 -81t97 -218zM1417 305q0 98 -68 153.5t-192 55.5h-260v-420h260q123 0 191.5 56.5t68.5 154.5z" />
    <glyph glyph-name="uni045B" unicode="&#x45b;" horiz-adv-x="1144" 
d="M971 614v-614h-105v606q0 132 -74 213.5t-200 81.5q-129 0 -213 -83t-84 -212v-606h-102v1214h-173v95h173v227h102v-227h424v-95h-424v-374q50 76 130.5 117.5t182.5 41.5q166 0 264.5 -106t98.5 -279z" />
    <glyph glyph-name="uni045C" unicode="&#x45c;" horiz-adv-x="1005" 
d="M190 0v989h103v-989h-103zM459 539l495 -539h-133l-497 537l448 452h135zM479 1155l187 442h127v-18l-232 -424h-82z" />
    <glyph glyph-name="uni045D" unicode="&#x45d;" horiz-adv-x="1155" 
d="M924 1010h43v-1010h-105v799l-629 -819h-43v1009h103v-803zM553 1155l-231 424v18h127l186 -442h-82z" />
    <glyph glyph-name="uni045E" unicode="&#x45e;" horiz-adv-x="1079" 
d="M903 989h111l-494 -1151q-53 -120 -127.5 -173.5t-181.5 -53.5q-71 0 -139 18v90q60 -14 125 -14q81 0 136.5 39.5t92.5 130.5l63 145l-423 969h112l367 -852zM246 1483v67h92v-63q0 -106 53 -166.5t146 -60.5t145.5 60.5t52.5 166.5v63h92v-67q0 -140 -78.5 -223.5
t-211.5 -83.5t-212 83.5t-79 223.5z" />
    <glyph glyph-name="uni045F" unicode="&#x45f;" horiz-adv-x="1122" 
d="M932 989v-989h-320v-289h-102v289h-320v989h103v-895h534v895h105z" />
    <glyph glyph-name="uni0462" unicode="&#x462;" horiz-adv-x="1284" 
d="M319 0v1042h-270v91h270v219h107v-219h420v-91h-420v-276h340q194 0 308 -107t114 -276t-114 -276t-308 -107h-447zM426 96h336q151 0 234 78.5t83 208.5t-83 208.5t-234 78.5h-336v-574z" />
    <glyph glyph-name="uni0463" unicode="&#x463;" horiz-adv-x="1112" 
d="M276 0v895h-256v94h256v547h105v-547h338v-94h-338v-285h260q164 0 260 -82.5t96 -220.5q0 -140 -95.5 -223.5t-260.5 -83.5h-365zM381 94h254q121 0 188.5 57.5t67.5 153.5t-68.5 154.5t-189.5 58.5h-252v-424z" />
    <glyph glyph-name="uni0472" unicode="&#x472;" horiz-adv-x="1603" 
d="M1495 676q3 -141 -52.5 -271t-150 -224t-224 -149t-267.5 -52q-139 -3 -268.5 52t-223 149t-148.5 224t-52 271q-3 141 52 271.5t148.5 224t222.5 148t269 52.5q138 2 267 -52.5t224 -148t150.5 -224t52.5 -271.5zM223 719q157 65 305 65q110 0 281 -47q167 -45 274 -45
q141 0 295 60q-25 226 -187.5 374t-389.5 148q-155 0 -285 -72.5t-207.5 -200t-85.5 -282.5zM1382 653q-154 -59 -299 -59q-68 0 -126.5 10t-159.5 37q-164 45 -269 45q-146 0 -305 -65q9 -114 58 -214t125 -172t179 -113.5t216 -41.5q157 0 288.5 75t209 206t83.5 292z" />
    <glyph glyph-name="uni0473" unicode="&#x473;" horiz-adv-x="1253" 
d="M1139 496q2 -103 -39.5 -199.5t-111.5 -166.5t-166 -111t-197 -39q-101 -2 -196.5 39t-164.5 111t-110 166.5t-39 199.5q-2 103 38.5 199t109.5 166t165 110.5t199 38.5q102 2 197 -39t165 -110t111 -165.5t39 -199.5zM225 549q103 41 197 41q91 0 207 -39
q124 -37 202 -37q96 0 197 39q-19 156 -133 258t-268 102q-159 0 -273 -102q-111 -102 -129 -262zM1032 465q-101 -43 -201 -43q-50 0 -91.5 8.5t-118.5 30.5q-125 39 -199 39q-92 0 -199 -43q12 -163 126 -272t276 -109q164 0 281 112t126 277z" />
    <glyph glyph-name="uni0474" unicode="&#x474;" horiz-adv-x="1417" 
d="M1411 1352v-95q-47 7 -68 7q-56 0 -93 -34.5t-70 -113.5l-478 -1136h-43l-579 1372h115l485 -1170l405 973q45 108 102.5 156.5t147.5 48.5q45 0 76 -8z" />
    <glyph glyph-name="uni0475" unicode="&#x475;" horiz-adv-x="1103" 
d="M1104 989v-88q-14 2 -49 2q-43 0 -73.5 -25.5t-55.5 -82.5l-363 -815h-43l-454 1009h110l365 -835l295 680q37 83 85.5 122t116.5 39q32 0 66 -6z" />
    <glyph glyph-name="uni0490" unicode="&#x490;" horiz-adv-x="991" 
d="M201 0v1352h635v264h106v-361h-635v-1255h-106z" />
    <glyph glyph-name="uni0491" unicode="&#x491;" horiz-adv-x="866" 
d="M190 0v989h531v264h102v-358h-530v-895h-103z" />
    <glyph glyph-name="uni0492" unicode="&#x492;" horiz-adv-x="1026" 
d="M991 1255h-665v-575h368v-92h-368v-588h-107v588h-203v92h203v672h772v-97z" />
    <glyph glyph-name="uni0493" unicode="&#x493;" horiz-adv-x="886" 
d="M844 895h-555v-365h315v-94h-315v-436h-103v436h-170v94h170v459h658v-94z" />
    <glyph glyph-name="uni0496" unicode="&#x496;" horiz-adv-x="1933" 
d="M123 1352h141l615 -621l-668 -731h-137l667 729zM907 0v1352h107v-1352h-107zM1763 96h152v-385h-107v289h-98l-666 731l615 621h141l-618 -623z" />
    <glyph glyph-name="uni0497" unicode="&#x497;" horiz-adv-x="1589" 
d="M96 989h135l445 -452l-494 -537h-129l492 537zM707 0v989h102v-989h-102zM1380 94h144v-383h-105v289h-86l-491 537l442 452h135l-446 -450z" />
    <glyph glyph-name="uni0498" unicode="&#x498;" horiz-adv-x="1187" 
d="M1081 387q0 -178 -130 -292.5t-335 -114.5q-168 0 -298 73t-207 215l77 60q69 -122 177.5 -185t248.5 -63q156 0 256 86q101 85 101 221q0 127 -89.5 210t-246.5 83h-197v96h191q126 0 195 67t69 179q0 115 -75.5 183.5t-209.5 68.5q-222 0 -348 -184l-78 59
q141 223 426 223q180 0 288 -98.5t108 -247.5q0 -94 -48 -170t-135 -119q122 -38 191 -132.5t69 -217.5zM373 -369v80q60 -14 123 -14q74 0 118.5 38t44.5 109q0 89 -88 164l39 31q68 -32 107 -85.5t39 -121.5q0 -96 -67.5 -158.5t-178.5 -62.5q-70 0 -137 20z" />
    <glyph glyph-name="uni0499" unicode="&#x499;" horiz-adv-x="952" 
d="M838 279q0 -134 -99 -216.5t-264 -82.5q-242 0 -371 194l74 62q108 -160 297 -160q121 0 187.5 56.5t66.5 150.5q0 90 -65.5 142t-190.5 52h-131v94h133q102 0 154.5 47t52.5 127q0 78 -55.5 123t-153.5 45q-87 0 -148.5 -32.5t-115.5 -98.5l-70 62q120 166 336 166
q143 0 227 -70t84 -188q0 -74 -37.5 -134t-105.5 -90q92 -31 143.5 -97.5t51.5 -151.5zM250 -369v80q60 -14 123 -14q75 0 119.5 38t44.5 109q0 89 -88 164l38 31q68 -32 107 -85.5t39 -121.5q0 -96 -67.5 -158.5t-178.5 -62.5q-70 0 -137 20z" />
    <glyph glyph-name="uni049A" unicode="&#x49a;" horiz-adv-x="1263" 
d="M201 0v1352h106v-1352h-106zM1092 96h155v-385h-106v289h-97l-708 731l655 621h142l-654 -621z" />
    <glyph glyph-name="uni049B" unicode="&#x49b;" horiz-adv-x="1075" 
d="M190 0v989h103v-989h-103zM866 94h144v-383h-103v289h-86l-497 537l448 452h135l-450 -452z" />
    <glyph glyph-name="uni04A0" unicode="&#x4a0;" horiz-adv-x="1611" 
d="M51 1255v97h613v-1352h-107v1255h-506zM836 729l704 -729h-139l-707 731l654 621h143z" />
    <glyph glyph-name="uni04A1" unicode="&#x4a1;" horiz-adv-x="1241" 
d="M51 895v94h477v-989h-102v895h-375zM694 539l496 -539h-133l-498 537l449 452h135z" />
    <glyph glyph-name="uni04A2" unicode="&#x4a2;" horiz-adv-x="1476" 
d="M1309 -289v289h-170v682h-832v-682h-106v1352h106v-574h832v574h106v-1256h170v-385h-106z" />
    <glyph glyph-name="uni04A3" unicode="&#x4a3;" horiz-adv-x="1193" 
d="M1014 -289v289h-158v485h-563v-485h-103v989h103v-409h563v409h102v-895h158v-383h-102z" />
    <glyph glyph-name="uni04AA" unicode="&#x4aa;" horiz-adv-x="1458" 
d="M109 676q-3 141 52 271.5t148.5 224t222.5 148t269 52.5q169 0 312 -72.5t235 -201.5l-80 -64q-81 114 -201 177t-264 63q-160 3 -295.5 -77t-212.5 -218.5t-74 -300.5q-3 -164 74 -302.5t212.5 -218t295.5 -77.5q145 0 265 62t200 175l80 -63q-92 -129 -235 -201.5
t-312 -72.5q-139 -3 -268.5 52t-223 149t-148.5 224t-52 271zM569 -369v80q60 -14 123 -14q75 0 119.5 38t44.5 109q0 89 -88 164l39 31q67 -31 106 -85t39 -122q0 -96 -67 -158.5t-178 -62.5q-71 0 -138 20z" />
    <glyph glyph-name="uni04AB" unicode="&#x4ab;" horiz-adv-x="1130" 
d="M115 496q-2 103 38.5 199t109.5 166t165 110.5t199 38.5q122 0 225.5 -53.5t173.5 -149.5l-74 -59q-125 165 -325 165q-171 0 -288.5 -121.5t-117.5 -295.5q0 -177 117 -298.5t287 -121.5q198 0 327 166l74 -60q-70 -95 -174 -148.5t-227 -53.5q-137 -3 -256 67
t-188 190.5t-66 258.5zM381 -369v80q60 -14 123 -14q74 0 119 38t45 109q0 89 -88 164l38 31q68 -32 107 -85.5t39 -121.5q0 -96 -67.5 -158.5t-178.5 -62.5q-70 0 -137 20z" />
    <glyph glyph-name="uni04AE" unicode="&#x4ae;" horiz-adv-x="1255" 
d="M1151 1352l-471 -781v-571h-107v575l-469 777h117l408 -678l405 678h117z" />
    <glyph glyph-name="uni04AF" unicode="&#x4af;" horiz-adv-x="1079" 
d="M1014 989l-422 -985v-373h-103v367l-423 991h110l365 -878l362 878h111z" />
    <glyph glyph-name="uni04B0" unicode="&#x4b0;" horiz-adv-x="1255" 
d="M1151 1352l-469 -777h330v-92h-332v-483h-107v483h-329v92h329l-469 777h117l408 -678l405 678h117z" />
    <glyph glyph-name="uni04B1" unicode="&#x4b1;" horiz-adv-x="1079" 
d="M592 2v-2h278v-94h-278v-275h-103v275h-280v94h278l-421 989h110l365 -880l362 880h111z" />
    <glyph glyph-name="uni04B2" unicode="&#x4b2;" horiz-adv-x="1232" 
d="M1067 96h147v-385h-106v289h-100l-406 606l-405 -606h-123l469 696l-437 656h123l375 -572l369 572h123l-430 -660z" />
    <glyph glyph-name="uni04B3" unicode="&#x4b3;" horiz-adv-x="1062" 
d="M860 94h137v-383h-102v289h-86l-317 440l-318 -440h-121l377 520l-346 469h121l284 -395l289 395h121l-348 -473z" />
    <glyph glyph-name="uni04B6" unicode="&#x4b6;" horiz-adv-x="1368" 
d="M1137 96h170v-385h-107v289h-170v582q-141 -66 -375 -66q-241 0 -371 126.5t-130 375.5v334h106v-330q0 -408 397 -408q235 0 373 66v672h107v-1256z" />
    <glyph glyph-name="uni04B7" unicode="&#x4b7;" horiz-adv-x="1093" 
d="M858 94h158v-383h-103v289h-157v438q-113 -55 -262 -55q-177 0 -278 97t-101 280v229h102v-225q0 -144 72.5 -215.5t204.5 -71.5q158 0 262 55v457h102v-895z" />
    <glyph glyph-name="uni04BA" unicode="&#x4ba;" horiz-adv-x="1337" 
d="M1184 334v-334h-107v330q0 407 -399 407q-223 0 -371 -65v-672h-106v1352h106v-582q153 66 375 66q242 0 372 -126t130 -376z" />
    <glyph glyph-name="uni04BB" unicode="&#x4bb;" horiz-adv-x="1142" 
d="M967 625v-625h-103v616q0 134 -74.5 215.5t-201.5 81.5q-129 0 -212 -84t-83 -213v-616h-103v1536h103v-682q108 156 313 156q166 0 263.5 -106t97.5 -279z" />
    <glyph glyph-name="uni04C0" unicode="&#x4c0;" horiz-adv-x="505" 
d="M201 0v1352h106v-1352h-106z" />
    <glyph glyph-name="uni04C1" unicode="&#x4c1;" horiz-adv-x="1921" 
d="M121 1352h143l613 -621l-666 -731h-137l665 729zM907 0v1352h107v-1352h-107zM1182 731l665 -731h-137l-666 731l613 621h141zM670 1802v62h92v-60q0 -106 53 -166.5t146 -60.5t145.5 60.5t52.5 166.5v60h92v-62q0 -141 -78.5 -224t-211.5 -83q-134 0 -212.5 83
t-78.5 224z" />
    <glyph glyph-name="uni04C2" unicode="&#x4c2;" horiz-adv-x="1517" 
d="M96 989h135l445 -452l-494 -537h-129l492 537zM707 0v989h102v-989h-102zM973 539l493 -539h-133l-491 537l442 452h135zM469 1483v67h92v-63q0 -106 53 -166.5t146 -60.5t145.5 60.5t52.5 166.5v63h93v-67q0 -140 -79 -223.5t-212 -83.5t-212 83.5t-79 223.5z" />
    <glyph glyph-name="uni04CF" unicode="&#x4cf;" horiz-adv-x="483" 
d="M190 0v1536h103v-1536h-103z" />
    <glyph glyph-name="uni04D0" unicode="&#x4d0;" horiz-adv-x="1359" 
d="M1167 0l-133 322h-710l-134 -322h-110l579 1372h43l578 -1372h-113zM680 1182l-315 -764h628zM391 1802v62h92v-60q0 -106 53 -166.5t146 -60.5t146 60.5t53 166.5v60h92v-62q0 -141 -78.5 -224t-212.5 -83t-212.5 83t-78.5 224z" />
    <glyph glyph-name="uni04D1" unicode="&#x4d1;" horiz-adv-x="1067" 
d="M893 621v-621h-98v156q-54 -85 -146 -130.5t-209 -45.5q-144 0 -241 69q-99 71 -99 199q0 121 94 192.5t250 71.5h344v113q0 139 -72.5 213.5t-199.5 74.5q-92 0 -164.5 -40.5t-136.5 -124.5l-72 57q144 205 379 205q170 0 270.5 -101.5t100.5 -287.5zM788 369v55h-333
q-121 0 -184.5 -44t-63.5 -126q0 -87 69.5 -135.5t174.5 -48.5q138 0 237.5 86.5t99.5 212.5zM229 1483v67h93v-63q0 -106 52.5 -166.5t145.5 -60.5t146 60.5t53 166.5v63h92v-67q0 -140 -79 -223.5t-212 -83.5t-212 83.5t-79 223.5z" />
    <glyph glyph-name="uni04D4" unicode="&#x4d4;" horiz-adv-x="1652" 
d="M1065 96h506v-96h-600l-56 324h-596l-169 -324h-115l704 1352h807v-97h-684l84 -477h436v-96h-419zM766 1194l-397 -774h530z" />
    <glyph glyph-name="uni04D5" unicode="&#x4d5;" horiz-adv-x="1847" 
d="M1724 453h-825q12 -164 127.5 -270.5t278.5 -106.5q196 0 327 155l68 -67q-74 -88 -176.5 -136t-220.5 -48q-145 0 -264.5 72t-182.5 196q-42 -123 -155 -195.5t-257 -72.5q-153 0 -248.5 75.5t-95.5 206.5q0 128 94 204.5t250 76.5h344v82q0 139 -72.5 213.5
t-197.5 74.5q-173 0 -301 -165l-72 57q144 205 379 205q128 0 218.5 -63t125.5 -179q67 112 178.5 177t243.5 65q187 0 315 -123t128 -320q0 -67 -9 -114zM899 543h727q6 109 -39.5 194.5t-125.5 131.5t-179 46q-152 0 -260 -105t-123 -267zM788 369v84h-333
q-121 0 -184.5 -46.5t-63.5 -134.5q0 -96 70 -149t178 -53q135 0 234 86.5t99 212.5z" />
    <glyph glyph-name="uni04D6" unicode="&#x4d6;" horiz-adv-x="1153" 
d="M201 0v1352h846v-97h-740v-477h576v-96h-576v-586h764v-96h-870zM311 1802v62h92v-60q0 -106 53 -166.5t146 -60.5t146 60.5t53 166.5v60h92v-62q0 -141 -78.5 -224t-212.5 -83t-212.5 83t-78.5 224z" />
    <glyph glyph-name="uni04D7" unicode="&#x4d7;" horiz-adv-x="1171" 
d="M1049 471h-828q9 -173 124.5 -284t283.5 -111q198 0 329 155l66 -67q-74 -87 -177 -135.5t-220 -48.5q-103 -2 -199 38.5t-165 110.5t-109.5 166t-38.5 199q-2 103 37.5 199.5t107.5 166.5t161 111t193 39q187 0 315 -123.5t128 -317.5q0 -67 -8 -98zM225 563h725
q6 157 -93.5 254.5t-246.5 97.5q-150 0 -256 -100q-108 -99 -129 -252zM297 1483v67h92v-63q0 -106 53 -166.5t146 -60.5t145.5 60.5t52.5 166.5v63h93v-67q0 -140 -79 -223.5t-212 -83.5t-212 83.5t-79 223.5z" />
    <glyph glyph-name="uni04D8" unicode="&#x4d8;" horiz-adv-x="1495" 
d="M1386 680q3 -142 -48.5 -272.5t-140 -224.5t-211 -149.5t-255.5 -53.5q-124 -1 -238 42t-200 120t-136 191t-48 245q0 52 10 120h1157q-6 248 -159.5 412t-381.5 164q-148 0 -276.5 -62.5t-210.5 -173.5l-74 64q94 128 242 199t321 71q180 4 331 -90t236 -254.5
t82 -347.5zM1272 602h-1055q-9 -115 30.5 -214.5t112 -166.5t170.5 -104.5t205 -36.5q212 0 362 147.5t175 374.5z" />
    <glyph glyph-name="uni04D9" unicode="&#x4d9;" horiz-adv-x="1171" 
d="M1057 496q0 -143 -62.5 -261t-174.5 -186.5t-251 -68.5q-191 0 -322.5 123t-131.5 317q0 41 8 98h827q-6 174 -116.5 284.5t-278.5 110.5q-212 0 -342 -155l-66 67q74 88 180 136.5t230 48.5q215 0 357.5 -148t142.5 -366zM946 426h-725q-3 -158 98.5 -255t253.5 -97
q148 0 250.5 97.5t122.5 254.5z" />
    <glyph glyph-name="uni04E2" unicode="&#x4e2;" horiz-adv-x="1466" 
d="M1223 1372h43v-1372h-107v1153l-917 -1173h-41v1372h106v-1153zM444 1591v88h578v-88h-578z" />
    <glyph glyph-name="uni04E3" unicode="&#x4e3;" horiz-adv-x="1155" 
d="M924 1010h43v-1010h-105v799l-629 -819h-43v1009h103v-803zM322 1327v88h536v-88h-536z" />
    <glyph glyph-name="uni04E6" unicode="&#x4e6;" horiz-adv-x="1603" 
d="M109 676q-3 141 52 271.5t148.5 224t222.5 148t269 52.5q138 2 267 -52.5t224 -148t150.5 -224t52.5 -271.5q3 -141 -52.5 -271t-150 -224t-224 -149t-267.5 -52q-139 -3 -268.5 52t-223 149t-148.5 224t-52 271zM1382 678q3 162 -74 300.5t-212 218.5t-293 77
q-160 3 -295.5 -77t-212.5 -218.5t-74 -300.5q-3 -164 74 -302.5t212.5 -218t295.5 -77.5q158 -3 293 77.5t212 219.5t74 301zM481 1655q0 36 26.5 61t63.5 25t62.5 -24.5t25.5 -61.5t-25.5 -62.5t-62.5 -25.5t-63.5 25.5t-26.5 62.5zM944 1653q0 37 26.5 62.5t63.5 25.5
t62.5 -25.5t25.5 -62.5q0 -35 -25.5 -60.5t-62.5 -25.5t-63.5 25.5t-26.5 60.5z" />
    <glyph glyph-name="uni04E7" unicode="&#x4e7;" horiz-adv-x="1253" 
d="M115 496q-2 105 38.5 201t109.5 165.5t165 109.5t199 38q139 0 257 -68.5t186.5 -187t68.5 -258.5q2 -103 -38.5 -199.5t-110.5 -166.5t-166 -111t-199 -39q-137 -3 -256 67t-188 190.5t-66 258.5zM1032 494q0 178 -117.5 298.5t-287.5 120.5q-172 0 -289 -120.5
t-117 -298.5q0 -175 117 -296.5t287 -121.5t288.5 121.5t118.5 296.5zM332 1370q0 36 26 62t62 26q37 0 63.5 -25.5t26.5 -62.5q0 -35 -26.5 -60.5t-63.5 -25.5q-35 0 -61.5 25.5t-26.5 60.5zM741 1370q0 37 26.5 62.5t63.5 25.5t63 -25.5t26 -62.5q0 -35 -26 -60.5
t-63 -25.5t-63.5 25.5t-26.5 60.5z" />
    <glyph glyph-name="uni04E8" unicode="&#x4e8;" horiz-adv-x="1603" 
d="M1495 676q3 -141 -52.5 -271t-150 -224t-224 -149t-267.5 -52q-139 -3 -268.5 52t-223 149t-148.5 224t-52 271q-3 141 52 271.5t148.5 224t222.5 148t269 52.5q138 2 267 -52.5t224 -148t150.5 -224t52.5 -271.5zM223 737h1157q-14 151 -93 273.5t-206.5 193
t-277.5 70.5q-231 0 -394.5 -153t-185.5 -384zM1382 641h-1161q12 -238 178.5 -399.5t403.5 -161.5q153 0 283 73.5t209 202.5t87 285z" />
    <glyph glyph-name="uni04E9" unicode="&#x4e9;" horiz-adv-x="1253" 
d="M1139 496q2 -103 -39.5 -199.5t-111.5 -166.5t-166 -111t-197 -39q-101 -2 -196.5 39t-164.5 111t-110 166.5t-39 199.5q-2 103 38.5 199t109.5 166t165 110.5t199 38.5q102 2 197 -39t165 -110t111 -165.5t39 -199.5zM225 559h803q-22 153 -135 253.5t-266 100.5
q-160 0 -269 -100q-112 -100 -133 -254zM1032 465h-811q9 -165 125.5 -277t278.5 -112q164 0 281 112t126 277z" />
    <glyph glyph-name="uni04EE" unicode="&#x4ee;" horiz-adv-x="1306" 
d="M1118 1352h111l-488 -1088q-68 -153 -146 -216.5t-200 -63.5q-53 0 -112 16v96q49 -14 110 -14q88 0 143.5 42t98.5 140l6 15l-537 1073h117l477 -951zM371 1591v88h577v-88h-577z" />
    <glyph glyph-name="uni04EF" unicode="&#x4ef;" horiz-adv-x="1079" 
d="M903 989h111l-494 -1151q-53 -120 -127.5 -173.5t-181.5 -53.5q-71 0 -139 18v90q60 -14 125 -14q81 0 136.5 39.5t92.5 130.5l63 145l-423 969h112l367 -852zM272 1327v88h537v-88h-537z" />
    <glyph glyph-name="uni04F2" unicode="&#x4f2;" horiz-adv-x="1306" 
d="M1118 1352h111l-488 -1088q-68 -153 -146 -216.5t-200 -63.5q-53 0 -112 16v96q49 -14 110 -14q88 0 143.5 42t98.5 140l6 15l-537 1073h117l477 -951zM379 1483l188 381h117v-19l-225 -362h-80zM811 1483l186 381h117v-19l-225 -362h-78z" />
    <glyph glyph-name="uni04F3" unicode="&#x4f3;" horiz-adv-x="1079" 
d="M903 989h111l-494 -1151q-53 -120 -127.5 -173.5t-181.5 -53.5q-71 0 -139 18v90q60 -14 125 -14q81 0 136.5 39.5t92.5 130.5l63 145l-423 969h112l367 -852zM295 1155l188 442h117v-18l-225 -424h-80zM686 1155l186 442h117v-18l-225 -424h-78z" />
    <glyph glyph-name="Wgrave" unicode="&#x1e80;" horiz-adv-x="2195" 
d="M1978 1352h113l-500 -1372h-43l-450 1181l-451 -1181h-43l-500 1372h115l410 -1153l448 1173h41l451 -1173zM1059 1483l-232 362v19h127l187 -381h-82z" />
    <glyph glyph-name="wgrave" unicode="&#x1e81;" horiz-adv-x="1730" 
d="M1554 989h111l-397 -1009h-43l-361 833l-358 -833h-41l-399 1009h110l311 -821l357 842h43l358 -838zM827 1155l-231 424v18h127l186 -442h-82z" />
    <glyph glyph-name="Wacute" unicode="&#x1e82;" horiz-adv-x="2195" 
d="M1978 1352h113l-500 -1372h-43l-450 1181l-451 -1181h-43l-500 1372h115l410 -1153l448 1173h41l451 -1173zM1057 1483l186 381h127v-19l-231 -362h-82z" />
    <glyph glyph-name="wacute" unicode="&#x1e83;" horiz-adv-x="1730" 
d="M1554 989h111l-397 -1009h-43l-361 833l-358 -833h-41l-399 1009h110l311 -821l357 842h43l358 -838zM825 1155l187 442h127v-18l-232 -424h-82z" />
    <glyph glyph-name="Wdieresis" unicode="&#x1e84;" horiz-adv-x="2195" 
d="M1978 1352h113l-500 -1372h-43l-450 1181l-451 -1181h-43l-500 1372h115l410 -1153l448 1173h41l451 -1173zM778 1655q0 36 26.5 61t63.5 25t62.5 -24.5t25.5 -61.5t-25.5 -62.5t-62.5 -25.5t-63.5 25.5t-26.5 62.5zM1241 1653q0 37 26.5 62.5t63.5 25.5t62.5 -25.5
t25.5 -62.5q0 -35 -25.5 -60.5t-62.5 -25.5t-63.5 25.5t-26.5 60.5z" />
    <glyph glyph-name="wdieresis" unicode="&#x1e85;" horiz-adv-x="1730" 
d="M1554 989h111l-397 -1009h-43l-361 833l-358 -833h-41l-399 1009h110l311 -821l357 842h43l358 -838zM569 1370q0 36 26 62t62 26q37 0 64 -26t27 -62q0 -35 -27 -60.5t-64 -25.5q-35 0 -61.5 25.5t-26.5 60.5zM979 1370q0 37 26.5 62.5t63.5 25.5t62.5 -25.5t25.5 -62.5
q0 -35 -25.5 -60.5t-62.5 -25.5t-63.5 25.5t-26.5 60.5z" />
    <glyph glyph-name="uni1E9E" unicode="&#x1e9e;" horiz-adv-x="1435" 
d="M1321 403q0 -120 -59 -217.5t-157 -151.5t-214 -54q-109 0 -207 46t-166 128l70 75q55 -70 133.5 -109.5t167.5 -39.5q138 0 229.5 91t91.5 230q0 151 -106 244.5t-270 93.5h-89v33l316 483h-754v-1255h-106v1352h1016v-35l-316 -486q177 -12 298.5 -132t121.5 -296z" />
    <glyph glyph-name="Ygrave" unicode="&#x1ef2;" horiz-adv-x="1255" 
d="M1151 1352l-471 -781v-571h-107v575l-469 777h117l408 -678l405 678h117zM586 1483l-232 362v19h127l187 -381h-82z" />
    <glyph glyph-name="ygrave" unicode="&#x1ef3;" horiz-adv-x="1079" 
d="M903 989h111l-494 -1151q-53 -120 -127.5 -173.5t-181.5 -53.5q-71 0 -139 18v90q60 -14 125 -14q81 0 136.5 39.5t92.5 130.5l63 145l-423 969h112l367 -852zM500 1155l-232 424v18h127l187 -442h-82z" />
    <glyph glyph-name="uni2009" unicode="&#x2009;" horiz-adv-x="286" 
 />
    <glyph glyph-name="endash" unicode="&#x2013;" horiz-adv-x="1030" 
d="M96 592v90h836v-90h-836z" />
    <glyph glyph-name="emdash" unicode="&#x2014;" horiz-adv-x="2048" 
d="M102 592v90h1844v-90h-1844z" />
    <glyph glyph-name="uni2015" unicode="&#x2015;" horiz-adv-x="2048" 
d="M102 592v90h1844v-90h-1844z" />
    <glyph glyph-name="quoteleft" unicode="&#x2018;" horiz-adv-x="557" 
d="M193 846l75 506h84l-35 -506h-124z" />
    <glyph glyph-name="quoteright" unicode="&#x2019;" horiz-adv-x="557" 
d="M205 846l35 506h125l-76 -506h-84z" />
    <glyph glyph-name="quotesinglbase" unicode="&#x201a;" horiz-adv-x="557" 
d="M205 -354l35 508h125l-76 -508h-84z" />
    <glyph glyph-name="quotedblleft" unicode="&#x201c;" horiz-adv-x="880" 
d="M193 846l75 506h84l-35 -506h-124zM518 846l76 506h84l-35 -506h-125z" />
    <glyph glyph-name="quotedblright" unicode="&#x201d;" horiz-adv-x="880" 
d="M205 846l35 506h125l-76 -506h-84zM530 846l35 506h125l-76 -506h-84z" />
    <glyph glyph-name="quotedblbase" unicode="&#x201e;" horiz-adv-x="880" 
d="M205 -354l35 508h125l-76 -508h-84zM530 -354l35 508h125l-76 -508h-84z" />
    <glyph glyph-name="dagger" unicode="&#x2020;" horiz-adv-x="894" 
d="M395 735v445h-252v92h252v264h103v-264h254v-92h-254v-445h-103z" />
    <glyph glyph-name="daggerdbl" unicode="&#x2021;" horiz-adv-x="894" 
d="M395 653v205h-252v92h252v291h-252v92h252v203h103v-203h254v-92h-254v-291h254v-92h-254v-205h-103z" />
    <glyph glyph-name="bullet" unicode="&#x2022;" horiz-adv-x="727" 
d="M123 543q0 103 72.5 171t169.5 68t167 -67q72 -69 72 -172t-72 -172q-72 -66 -167 -66q-97 0 -169.5 67.5t-72.5 170.5z" />
    <glyph glyph-name="ellipsis" unicode="&#x2026;" horiz-adv-x="1572" 
d="M686 78q0 44 28 73t70 29q44 0 73.5 -28t29.5 -74q0 -42 -30 -70t-73 -28q-39 0 -68.5 28t-29.5 70zM186 78q0 44 28.5 73t70.5 29q44 0 73 -28t29 -74q0 -42 -29.5 -70t-72.5 -28q-39 0 -69 28t-30 70zM1186 78q0 44 28 73t70 29q44 0 73 -28t29 -74q0 -42 -29.5 -70
t-72.5 -28q-39 0 -68.5 28t-29.5 70z" />
    <glyph glyph-name="perthousand" unicode="&#x2030;" horiz-adv-x="2461" 
d="M145 1047q0 136 97 230.5t231 94.5t231 -94.5t97 -230.5t-97 -231t-231 -95t-231 95t-97 231zM418 0l778 1352h96l-776 -1352h-98zM709 1047q0 103 -68 172t-168 69t-166.5 -69t-66.5 -172t66.5 -172.5t166.5 -69.5t168 69.5t68 172.5zM1661 309q0 136 96 231t230 95
q137 0 233 -95t96 -231t-96 -230.5t-233 -94.5q-134 0 -230 94.5t-96 230.5zM907 307q0 136 96 231t232 95q134 0 231 -95t97 -231t-97 -230.5t-231 -94.5q-136 0 -232 94.5t-96 230.5zM2222 309q0 103 -66.5 172.5t-166.5 69.5t-167 -69.5t-67 -172.5t67 -172t167 -69
t166.5 69t66.5 172zM1468 307q0 103 -66.5 172.5t-166.5 69.5t-167 -69.5t-67 -172.5t67 -172t167 -69t166.5 69t66.5 172z" />
    <glyph glyph-name="minute" unicode="&#x2032;" horiz-adv-x="466" 
d="M141 807l90 545h129l-131 -545h-88z" />
    <glyph glyph-name="second" unicode="&#x2033;" horiz-adv-x="792" 
d="M141 807l90 545h129l-131 -545h-88zM467 807l90 545h129l-131 -545h-88z" />
    <glyph glyph-name="guilsinglleft" unicode="&#x2039;" horiz-adv-x="593" 
d="M434 168l-346 367v34l346 367l70 -62l-295 -321l295 -326z" />
    <glyph glyph-name="guilsinglright" unicode="&#x203a;" horiz-adv-x="593" 
d="M160 168l-70 59l295 326l-295 321l70 62l346 -367v-34z" />
    <glyph glyph-name="fraction" unicode="&#x2044;" horiz-adv-x="473" 
d="M-201 0l776 1352h99l-778 -1352h-97z" />
    <glyph glyph-name="uni2070" unicode="&#x2070;" horiz-adv-x="831" 
d="M109 1180q0 200 78.5 315t228.5 115q151 0 229 -114.5t78 -315.5q0 -203 -79 -325t-228 -122t-228 122t-79 325zM627 1180q0 344 -211 344q-209 0 -209 -344q0 -172 51.5 -267.5t157.5 -95.5t158.5 96t52.5 267z" />
    <glyph glyph-name="uni2074" unicode="&#x2074;" horiz-adv-x="714" 
d="M678 987v-82h-125v-160h-90v160h-426v29l276 663h99l-256 -610h307v291h90v-291h125z" />
    <glyph glyph-name="uni2075" unicode="&#x2075;" horiz-adv-x="747" 
d="M659 1018q0 -133 -88 -209q-85 -76 -213 -76q-94 0 -167.5 46.5t-118.5 125.5l67 49q83 -135 219 -135q91 0 148 54.5t57 140.5t-57.5 133t-163.5 47h-190v403h469v-86h-377v-245q72 10 112 10q138 0 220.5 -67t82.5 -191z" />
    <glyph glyph-name="uni2076" unicode="&#x2076;" horiz-adv-x="747" 
d="M662 1014q0 -118 -84.5 -199.5t-204.5 -81.5q-119 0 -203 82t-84 203q0 68 27 121q36 70 90 149l211 309h112l-219 -317q28 14 78 14q112 0 194.5 -81.5t82.5 -198.5zM565 1014q0 87 -54 142.5t-138 55.5q-82 0 -136.5 -56t-54.5 -142q0 -84 54.5 -139.5t136.5 -55.5
q84 0 138 55t54 140z" />
    <glyph glyph-name="uni2077" unicode="&#x2077;" horiz-adv-x="655" 
d="M51 1597h563v-28l-432 -824h-102l405 766h-434v86z" />
    <glyph glyph-name="uni2078" unicode="&#x2078;" horiz-adv-x="780" 
d="M686 961q0 -103 -81 -165.5t-216 -62.5q-133 0 -214 63.5t-81 166.5q0 155 203 229q-162 70 -162 211q0 95 71.5 151t182.5 56q113 0 184.5 -56.5t71.5 -152.5q0 -138 -164 -209q205 -73 205 -231zM389 1233q87 33 127.5 70t40.5 94q0 62 -46.5 98.5t-121.5 36.5
q-73 0 -119.5 -36.5t-46.5 -98.5q0 -58 40 -95t126 -69zM594 967q0 65 -49 105.5t-156 78.5q-106 -38 -154.5 -78.5t-48.5 -105.5q0 -70 55 -113t148 -43t149 43t56 113z" />
    <glyph glyph-name="uni2079" unicode="&#x2079;" horiz-adv-x="747" 
d="M662 1325q0 -69 -27 -125q-33 -64 -90 -145l-211 -310h-113l219 318q-28 -14 -78 -14q-112 0 -194 81.5t-82 198.5q0 118 84.5 199.5t204.5 81.5q121 0 203 -82q84 -81 84 -203zM565 1329q0 85 -54 140t-136 55t-137.5 -55.5t-55.5 -139.5q0 -85 55.5 -142t137.5 -57
t136 57t54 142z" />
    <glyph glyph-name="uni207A" unicode="&#x207a;" horiz-adv-x="874" 
d="M391 827v303h-297v84h297v306h92v-306h295v-84h-295v-303h-92z" />
    <glyph glyph-name="uni207B" unicode="&#x207b;" horiz-adv-x="874" 
d="M94 1135v77h684v-77h-684z" />
    <glyph glyph-name="uni207C" unicode="&#x207c;" horiz-adv-x="874" 
d="M111 1290v84h653v-84h-653zM111 973v82h653v-82h-653z" />
    <glyph glyph-name="uni207D" unicode="&#x207d;" horiz-adv-x="507" 
d="M127 1174q0 274 81 438.5t220 230.5l35 -59q-250 -151 -250 -610q0 -245 67.5 -394.5t182.5 -216.5l-35 -63q-131 76 -217 233q-84 159 -84 441z" />
    <glyph glyph-name="uni207E" unicode="&#x207e;" horiz-adv-x="507" 
d="M80 500l-35 63q115 67 182.5 216.5t67.5 394.5q0 459 -250 610l35 59q139 -66 220 -230.5t81 -438.5t-81.5 -441t-219.5 -233z" />
    <glyph glyph-name="uni2080" unicode="&#x2080;" horiz-adv-x="831" 
d="M109 188q0 200 78.5 315t228.5 115q151 0 229 -114.5t78 -315.5q0 -203 -79 -324.5t-228 -121.5t-228 121.5t-79 324.5zM627 188q0 344 -211 344q-209 0 -209 -344q0 -172 51.5 -267t157.5 -95t158.5 95.5t52.5 266.5z" />
    <glyph glyph-name="uni2081" unicode="&#x2081;" horiz-adv-x="708" 
d="M100 -246v86h224v680h-220v86h316v-766h196v-86h-516z" />
    <glyph glyph-name="uni2082" unicode="&#x2082;" horiz-adv-x="743" 
d="M244 -160h418v-86h-588v25l309 321q77 80 111 137.5t34 120.5q0 74 -47 124t-123 50q-78 0 -126 -52.5t-48 -129.5q0 -30 6 -67h-92q-8 31 -8 73q0 105 75.5 183.5t192.5 78.5t192 -71.5t75 -181.5q0 -81 -41 -148.5t-142 -173.5z" />
    <glyph glyph-name="uni2083" unicode="&#x2083;" horiz-adv-x="720" 
d="M633 23q0 -126 -87 -203.5t-212 -77.5q-93 0 -167 46.5t-120 125.5l68 49q89 -135 219 -135q88 0 144.5 54.5t56.5 140.5t-57.5 133t-162.5 47h-77v26l227 291h-363v86h508v-28l-229 -293q106 -8 179 -77t73 -185z" />
    <glyph glyph-name="uni2084" unicode="&#x2084;" horiz-adv-x="714" 
d="M678 -4v-82h-125v-160h-90v160h-426v29l276 663h99l-256 -610h307v291h90v-291h125z" />
    <glyph glyph-name="uni2085" unicode="&#x2085;" horiz-adv-x="747" 
d="M659 27q0 -131 -88 -207q-87 -78 -213 -78q-94 0 -167.5 46.5t-118.5 125.5l67 49q83 -135 219 -135q91 0 148 54.5t57 140.5t-57.5 133t-163.5 47h-190v403h469v-86h-377v-246q79 11 112 11q138 0 220.5 -67t82.5 -191z" />
    <glyph glyph-name="uni2086" unicode="&#x2086;" horiz-adv-x="747" 
d="M662 23q0 -118 -84.5 -199.5t-204.5 -81.5q-119 0 -203 82t-84 203q0 67 27 120q38 74 90 150l211 309h112l-219 -317q28 14 78 14q112 0 194.5 -81.5t82.5 -198.5zM565 23q0 87 -54 142.5t-138 55.5q-82 0 -136.5 -56t-54.5 -142q0 -84 54.5 -139.5t136.5 -55.5
q84 0 138 55t54 140z" />
    <glyph glyph-name="uni2087" unicode="&#x2087;" horiz-adv-x="655" 
d="M51 606h563v-28l-432 -824h-102l405 766h-434v86z" />
    <glyph glyph-name="uni2088" unicode="&#x2088;" horiz-adv-x="780" 
d="M686 -31q0 -103 -81 -165t-216 -62q-133 0 -214 63t-81 166q0 156 203 230q-162 70 -162 211q0 95 71.5 150.5t182.5 55.5q113 0 184.5 -56t71.5 -152q0 -138 -164 -209q205 -73 205 -232zM389 242q87 33 127.5 70t40.5 94q0 62 -46.5 98.5t-121.5 36.5
q-73 0 -119.5 -36.5t-46.5 -98.5q0 -58 40 -95t126 -69zM594 -25q0 65 -49 106t-156 79q-106 -38 -154.5 -79t-48.5 -106q0 -70 55 -112.5t148 -42.5t149 43t56 112z" />
    <glyph glyph-name="uni2089" unicode="&#x2089;" horiz-adv-x="747" 
d="M662 334q0 -70 -27 -125q-35 -68 -90 -146l-211 -309h-113l219 318q-30 -15 -78 -15q-112 0 -194 82t-82 199q0 118 84 199t205 81q122 0 203 -81q84 -81 84 -203zM565 338q0 84 -54 139t-136 55t-137.5 -55t-55.5 -139q0 -85 55.5 -142t137.5 -57t136 57t54 142z" />
    <glyph glyph-name="uni208A" unicode="&#x208a;" horiz-adv-x="874" 
d="M391 -166v303h-297v84h297v305h92v-305h295v-84h-295v-303h-92z" />
    <glyph glyph-name="uni208B" unicode="&#x208b;" horiz-adv-x="874" 
d="M94 141v78h684v-78h-684z" />
    <glyph glyph-name="uni208C" unicode="&#x208c;" horiz-adv-x="874" 
d="M111 297v84h653v-84h-653zM111 -20v81h653v-81h-653z" />
    <glyph glyph-name="uni208D" unicode="&#x208d;" horiz-adv-x="507" 
d="M127 180q0 274 81.5 439t219.5 231l35 -59q-250 -151 -250 -611q0 -245 67.5 -394t182.5 -216l-35 -64q-130 75 -217 234q-84 159 -84 440z" />
    <glyph glyph-name="uni208E" unicode="&#x208e;" horiz-adv-x="507" 
d="M80 -494l-35 64q115 67 182.5 216t67.5 394q0 460 -250 611l35 59q138 -66 219.5 -231t81.5 -439t-81.5 -441t-219.5 -233z" />
    <glyph glyph-name="lira" unicode="&#x20a4;" horiz-adv-x="1042" 
d="M350 94h600v-94h-821v31q243 144 270 342h-249v92h251q-9 90 -73 215h-178v94h131q-74 142 -74 256q0 154 102 248q101 94 264 94q148 0 249 -81.5t145 -235.5l-97 -33q-80 252 -295 252q-119 0 -188.5 -72.5t-69.5 -185.5q0 -99 76 -242h402v-94h-353q57 -114 66 -215
h287v-92h-289q-21 -173 -156 -279z" />
    <glyph glyph-name="peseta" unicode="&#x20a7;" horiz-adv-x="1177" 
d="M1178 1012v-94h-174q-17 -150 -129.5 -241t-288.5 -91h-250v-586h-107v918h-172v94h172v340h357q178 0 291 -93t127 -247h174zM582 1255h-246v-245h557q-12 114 -94 179.5t-217 65.5zM891 920h-555v-238h246q134 0 214.5 63.5t94.5 174.5z" />
    <glyph glyph-name="Euro" unicode="&#x20ac;" horiz-adv-x="1398" 
d="M1212 248l76 -64q-72 -97 -187 -150.5t-255 -53.5q-224 0 -389 133q-161 133 -217 356h-226v94h207q-6 56 -6 113q0 52 6 104h-203v92h220q53 226 215 363t393 137q140 0 254.5 -53.5t187.5 -151.5l-76 -63q-129 170 -362 170q-188 0 -319 -107.5t-179 -294.5h652
l-25 -92h-645q-6 -52 -6 -104q0 -69 8 -113h582l-25 -94h-539q50 -181 180 -285t316 -104q234 0 362 168z" />
    <glyph glyph-name="uni20AE" unicode="&#x20ae;" horiz-adv-x="1193" 
d="M1145 1255h-496v-456l389 145v-100l-389 -146v-219l389 146v-101l-389 -145v-379h-106v344l-385 -145v102l385 145v220l-385 -146v101l385 145v489h-494v97h1096v-97z" />
    <glyph glyph-name="uni20B4" unicode="&#x20b4;" horiz-adv-x="1114" 
d="M1057 475h-733q-50 -62 -50 -141q0 -115 80 -184.5t211 -69.5q118 0 224 64t180 180l78 -58q-78 -135 -205.5 -210.5t-276.5 -75.5q-173 0 -288 100t-115 252q0 81 35 143h-140v88h211q71 64 207 144l115 67l6 4h-535v90h670q50 41 71 81t21 95q0 103 -75 166.5
t-197 63.5q-192 0 -315 -174l-76 57q63 102 166.5 158.5t228.5 56.5q165 0 272 -90q107 -88 107 -235q0 -100 -62 -179h183v-90h-283q-29 -22 -135 -88l-113 -65l-96 -62h629v-88z" />
    <glyph glyph-name="uni20B8" unicode="&#x20b8;" horiz-adv-x="1193" 
d="M49 1255v97h1096v-97h-1096zM543 0v944h-494v96h1096v-96h-496v-944h-106z" />
    <glyph glyph-name="uni20B9" unicode="&#x20b9;" horiz-adv-x="1028" 
d="M877 1352v-95l-291 3q110 -78 131 -213h160v-95h-154q-11 -157 -121 -251.5t-291 -94.5h-65l631 -606h-138l-635 606v94h203q137 0 215.5 66.5t89.5 185.5h-514v95h508q-19 100 -96 155t-203 55h-203v95h773z" />
    <glyph glyph-name="uni20BA" unicode="&#x20ba;" horiz-adv-x="1042" 
d="M963 449q0 -215 -172 -342t-463 -127h-56v536l-209 -96v102l209 96v220l-209 -97v101l209 96v414h107v-373l403 184v-100l-403 -184v-220l403 185v-101l-403 -186v-479q212 9 347.5 113.5t135.5 259.5q0 47 -12 133h92q21 -64 21 -135z" />
    <glyph glyph-name="uni20BD" unicode="&#x20bd;" horiz-adv-x="1163" 
d="M229 0v305h-172v94h172v222h-172v94h172v637h428q183 0 291.5 -101t108.5 -264q0 -162 -108.5 -264t-291.5 -102h-321v-222h549v-94h-549v-305h-107zM336 715h317q140 0 218.5 73.5t78.5 196.5q0 124 -78.5 198t-218.5 74h-317v-542z" />
    <glyph glyph-name="uni20BF" unicode="&#x20bf;" horiz-adv-x="1185" 
d="M766 70v-258h-98v251h-205v-251h-98v251h-164v1227h164v248h98v-248h194h11v248h98v-260q104 -26 162.5 -102.5t58.5 -186.5q0 -86 -38.5 -152t-110.5 -104q111 -35 171 -118t60 -201q0 -139 -80.5 -230t-222.5 -114zM647 1196h-344v-426h344q113 0 175.5 56.5
t62.5 158.5q0 103 -61 157t-177 54zM965 414q0 123 -76.5 193.5t-210.5 70.5h-375v-522h375q134 0 210.5 68.5t76.5 189.5z" />
    <glyph glyph-name="uni2113" unicode="&#x2113;" horiz-adv-x="796" 
d="M537 74q57 0 170 22v-90q-85 -26 -185 -26q-150 0 -232.5 90t-82.5 256v71l-117 -108l-59 76q107 96 176 165v660q0 186 71.5 276t200.5 90q119 0 183.5 -69.5t64.5 -212.5q0 -353 -418 -789v-153q0 -258 228 -258zM309 1196v-573q318 349 318 645q0 104 -36.5 150
t-105.5 46q-176 0 -176 -268z" />
    <glyph glyph-name="uni2116" unicode="&#x2116;" horiz-adv-x="2310" 
d="M1139 219v1133h106v-1372h-43l-895 1144v-1124h-106v1372h41zM1540 813q0 136 96 231t230 95q137 0 233 -95t96 -231t-96 -231t-233 -95q-134 0 -230 95t-96 231zM1634 813q0 -103 66.5 -172.5t165.5 -69.5q100 0 167.5 69.5t67.5 172.5t-67.5 172.5t-167.5 69.5
q-99 0 -165.5 -69.5t-66.5 -172.5zM1554 231v84h625v-84h-625z" />
    <glyph glyph-name="uni2117" unicode="&#x2117;" horiz-adv-x="1603" 
d="M109 676q-2 113 33 220.5t100 193t151.5 150.5t192 99.5t215.5 32.5q138 2 267 -52.5t224 -148t150.5 -224t52.5 -271.5q3 -141 -52.5 -271t-150 -224t-224 -149t-267.5 -52q-137 -3 -266 52t-223.5 149t-150 224t-52.5 271zM1405 678q3 125 -45 239.5t-130 196
t-194.5 129.5t-234.5 47q-122 2 -234 -45.5t-193.5 -129.5t-129 -196.5t-45.5 -240.5q-3 -168 78.5 -311.5t221.5 -226t302 -79.5q162 -3 302.5 79.5t222.5 226t79 311.5zM561 303v725h316q114 0 183.5 -64t69.5 -165t-69.5 -165.5t-183.5 -64.5h-222v-266h-94zM655 651h222
q74 0 116.5 40.5t42.5 107.5t-42.5 108t-116.5 41h-222v-297z" />
    <glyph glyph-name="trademark" unicode="&#x2122;" horiz-adv-x="1933" 
d="M956 432v934h35l383 -537l383 537h35v-934h-96v696l-305 -428h-35l-305 428v-696h-95zM362 432v834h-327v86h751v-86h-327v-834h-97z" />
    <glyph glyph-name="uni2126" unicode="&#x2126;" horiz-adv-x="1624" 
d="M1128 96h357v-96h-535v94q443 212 443 602q0 247 -166.5 412.5t-415.5 165.5q-165 0 -297.5 -74.5t-207.5 -206.5t-75 -295q0 -394 443 -604v-94h-535v96h350q-370 233 -370 602q-4 184 88 341t253 247t351 86q140 3 269.5 -49.5t223 -143.5t148.5 -217t53 -264
q0 -183 -92.5 -331t-284.5 -271z" />
    <glyph glyph-name="estimated" unicode="&#x212e;" horiz-adv-x="1628" 
d="M1497 670h-1114v-418q75 -102 190.5 -157.5t260.5 -55.5q157 0 295 66.5t231 179.5l47 -41q-101 -124 -251 -194t-322 -70q-147 -2 -280 52.5t-228.5 147.5t-150.5 221t-52 267q-3 142 55 274t154.5 226.5t226.5 150.5t266 53q122 2 245 -42.5t221 -121.5t158 -190.5
t56 -237.5q0 -66 -8 -110zM383 1098v-369h862v399q-74 88 -179 135.5t-232 47.5q-141 0 -258 -56t-193 -157z" />
    <glyph glyph-name="uni2150" unicode="&#x2150;" horiz-adv-x="1837" 
d="M100 500v86h224v680h-220v86h316v-766h196v-86h-516zM508 0l776 1352h98l-778 -1352h-96zM1233 852h563v-29l-432 -823h-102l405 766h-434v86z" />
    <glyph glyph-name="uni2151" unicode="&#x2151;" horiz-adv-x="1867" 
d="M100 500v86h224v680h-220v86h316v-766h196v-86h-516zM508 0l776 1352h98l-778 -1352h-96zM1782 580q0 -70 -27 -125q-35 -68 -90 -146l-211 -309h-113l220 317q-28 -14 -78 -14q-112 0 -194.5 82t-82.5 199q0 118 84 199t205 81t203 -82q84 -81 84 -202zM1686 584
q0 84 -54.5 139t-136.5 55t-137 -55t-55 -139q0 -85 55 -142t137 -57t136.5 57t54.5 142z" />
    <glyph glyph-name="uni2152" unicode="&#x2152;" horiz-adv-x="2721" 
d="M100 500v86h224v680h-220v86h316v-766h196v-86h-516zM508 0l776 1352h98l-778 -1352h-96zM1282 0v86h223v680h-219v86h316v-766h196v-86h-516zM1999 434q0 200 78.5 315t228.5 115q151 0 229 -114.5t78 -315.5q0 -203 -79 -324.5t-228 -121.5t-228 121.5t-79 324.5z
M2517 434q0 344 -211 344q-209 0 -209 -344q0 -172 51.5 -267t157.5 -95t158.5 95.5t52.5 266.5z" />
    <glyph glyph-name="uni2153" unicode="&#x2153;" horiz-adv-x="1902" 
d="M100 500v86h224v680h-220v86h316v-766h196v-86h-516zM508 0l776 1352h98l-778 -1352h-96zM1815 268q0 -126 -87 -203t-212 -77q-93 0 -167 46.5t-120 125.5l67 49q88 -135 220 -135q88 0 144 54t56 140t-57.5 133.5t-161.5 47.5h-78v26l228 291h-363v86h508v-29
l-229 -293q106 -8 179 -77t73 -185z" />
    <glyph glyph-name="uni2154" unicode="&#x2154;" horiz-adv-x="1937" 
d="M244 586h418v-86h-588v24l309 322q77 80 111 137.5t34 120.5q0 74 -47 124t-123 50q-78 0 -126 -52.5t-48 -129.5q0 -30 6 -68h-92q-8 31 -8 74q0 105 75.5 183.5t192.5 78.5t192 -72t75 -182q0 -81 -41 -148.5t-142 -173.5zM543 0l776 1352h98l-778 -1352h-96zM1849 268
q0 -126 -87 -203t-212 -77q-93 0 -166 46.5t-120 125.5l67 49q89 -135 219 -135q88 0 144.5 54t56.5 140t-57.5 133.5t-161.5 47.5h-78v26l227 291h-362v86h508v-29l-230 -293q106 -8 179 -77t73 -185z" />
    <glyph glyph-name="uni2155" unicode="&#x2155;" horiz-adv-x="1912" 
d="M100 500v86h224v680h-220v86h316v-766h196v-86h-516zM508 0l776 1352h98l-778 -1352h-96zM1825 272q0 -133 -88 -209q-84 -75 -213 -75q-95 0 -168.5 46.5t-118.5 125.5l68 49q83 -135 219 -135q91 0 148 54t57 140t-58 133.5t-164 47.5h-190v403h469v-86h-377v-246
q72 10 113 10q138 0 220.5 -67t82.5 -191z" />
    <glyph glyph-name="uni2156" unicode="&#x2156;" horiz-adv-x="1947" 
d="M244 586h418v-86h-588v24l309 322q77 80 111 137.5t34 120.5q0 74 -47 124t-123 50q-78 0 -126 -52.5t-48 -129.5q0 -30 6 -68h-92q-8 31 -8 74q0 105 75.5 183.5t192.5 78.5t192 -72t75 -182q0 -81 -41 -148.5t-142 -173.5zM543 0l776 1352h98l-778 -1352h-96zM1860 272
q0 -133 -88 -209q-84 -75 -213 -75q-95 0 -168.5 46.5t-118.5 125.5l67 49q82 -135 220 -135q91 0 147.5 54t56.5 140t-57.5 133.5t-163.5 47.5h-190v403h469v-86h-377v-246q72 10 112 10q138 0 221 -67t83 -191z" />
    <glyph glyph-name="uni2157" unicode="&#x2157;" horiz-adv-x="1853" 
d="M633 768q0 -126 -87 -203.5t-212 -77.5q-93 0 -167 46.5t-120 125.5l68 50q89 -136 219 -136q88 0 144.5 54.5t56.5 140.5t-57.5 133t-162.5 47h-77v27l227 291h-363v86h508v-29l-229 -293q106 -8 179 -77t73 -185zM449 0l776 1352h98l-778 -1352h-96zM1765 272
q0 -133 -88 -209q-84 -75 -213 -75q-94 0 -167.5 46.5t-118.5 125.5l67 49q83 -135 219 -135q91 0 148 54t57 140t-57.5 133.5t-163.5 47.5h-191v403h469v-86h-376v-246q72 10 112 10q138 0 220.5 -67t82.5 -191z" />
    <glyph glyph-name="uni2158" unicode="&#x2158;" horiz-adv-x="1941" 
d="M678 741v-82h-125v-159h-90v159h-426v29l276 664h99l-256 -611h307v291h90v-291h125zM535 0l776 1352h98l-778 -1352h-96zM1851 272q0 -133 -88 -209q-84 -75 -213 -75q-94 0 -167.5 46.5t-118.5 125.5l67 49q83 -135 219 -135q91 0 148 54t57 140t-57.5 133.5
t-163.5 47.5h-191v403h469v-86h-376v-246q72 10 112 10q138 0 220.5 -67t82.5 -191z" />
    <glyph glyph-name="uni2159" unicode="&#x2159;" horiz-adv-x="1765" 
d="M100 500v86h224v680h-220v86h316v-766h196v-86h-516zM508 0l776 1352h98l-778 -1352h-96zM1679 268q0 -118 -84 -199t-204 -81q-119 0 -203 81.5t-84 202.5q0 70 26 121q35 68 91 150l211 309h112l-219 -317q28 14 78 14q112 0 194 -82t82 -199zM1583 268q0 87 -54 143
t-138 56q-82 0 -136.5 -56.5t-54.5 -142.5q0 -84 54.5 -139t136.5 -55q85 0 138.5 54.5t53.5 139.5z" />
    <glyph glyph-name="uni215A" unicode="&#x215a;" horiz-adv-x="1732" 
d="M659 772q0 -133 -88 -209q-85 -76 -213 -76q-94 0 -167.5 46.5t-118.5 125.5l67 50q83 -136 219 -136q91 0 148 54.5t57 140.5t-57.5 133t-163.5 47h-190v404h469v-86h-377v-246q72 10 112 10q138 0 220.5 -67t82.5 -191zM475 0l776 1352h99l-779 -1352h-96zM1647 268
q0 -118 -84 -199t-205 -81q-119 0 -203 81.5t-84 202.5q0 68 27 121q38 74 90 150l211 309h112l-219 -317q28 14 78 14q112 0 194.5 -82t82.5 -199zM1550 268q0 87 -54 143t-138 56q-82 0 -136.5 -56.5t-54.5 -142.5q0 -84 54.5 -139t136.5 -55q85 0 138.5 54.5t53.5 139.5z
" />
    <glyph glyph-name="oneeighth" unicode="&#x215b;" horiz-adv-x="1869" 
d="M100 500v86h224v680h-220v86h316v-766h196v-86h-516zM508 0l776 1352h98l-778 -1352h-96zM1776 215q0 -103 -81 -165t-216 -62q-133 0 -214 63t-81 166q0 156 202 229q-161 69 -161 211q0 95 71.5 151t182.5 56q113 0 184.5 -56.5t71.5 -152.5q0 -138 -164 -209
q205 -73 205 -231zM1479 487q87 33 127.5 70t40.5 94q0 62 -46.5 98.5t-121.5 36.5q-73 0 -119.5 -36.5t-46.5 -98.5q0 -58 40 -95t126 -69zM1683 221q0 66 -48.5 106.5t-155.5 78.5q-106 -38 -154.5 -79t-48.5 -106q0 -70 55 -112.5t148 -42.5t148.5 42.5t55.5 112.5z" />
    <glyph glyph-name="threeeighths" unicode="&#x215c;" horiz-adv-x="1810" 
d="M633 768q0 -126 -87 -203.5t-212 -77.5q-93 0 -167 46.5t-120 125.5l68 50q89 -136 219 -136q88 0 144.5 54.5t56.5 140.5t-57.5 133t-162.5 47h-77v27l227 291h-363v86h508v-29l-229 -293q106 -8 179 -77t73 -185zM449 0l776 1352h98l-778 -1352h-96zM1716 215
q0 -103 -81 -165t-216 -62q-133 0 -214 63t-81 166q0 155 203 229q-162 70 -162 211q0 95 71.5 151t182.5 56q113 0 184.5 -56.5t71.5 -152.5q0 -138 -164 -209q205 -73 205 -231zM1419 487q87 33 127.5 70t40.5 94q0 62 -46.5 98.5t-121.5 36.5q-73 0 -119.5 -36.5
t-46.5 -98.5q0 -58 40 -95t126 -69zM1624 221q0 65 -49 106t-156 79q-105 -38 -153.5 -79t-48.5 -106q0 -70 54.5 -112.5t147.5 -42.5t149 43t56 112z" />
    <glyph glyph-name="fiveeighths" unicode="&#x215d;" horiz-adv-x="1837" 
d="M659 772q0 -133 -88 -209q-85 -76 -213 -76q-94 0 -167.5 46.5t-118.5 125.5l67 50q83 -136 219 -136q91 0 148 54.5t57 140.5t-57.5 133t-163.5 47h-190v404h469v-86h-377v-246q72 10 112 10q138 0 220.5 -67t82.5 -191zM475 0l776 1352h99l-779 -1352h-96zM1743 215
q0 -103 -81 -165t-216 -62q-133 0 -214 63t-81 166q0 155 203 229q-162 70 -162 211q0 95 71.5 151t182.5 56q113 0 184.5 -56.5t71.5 -152.5q0 -138 -164 -209q205 -73 205 -231zM1446 487q87 33 127.5 70t40.5 94q0 62 -46.5 98.5t-121.5 36.5q-73 0 -119.5 -36.5
t-46.5 -98.5q0 -58 40 -95t126 -69zM1651 221q0 65 -49 106t-156 79q-106 -38 -154.5 -79t-48.5 -106q0 -70 55 -112.5t148 -42.5t149 43t56 112z" />
    <glyph glyph-name="seveneighths" unicode="&#x215e;" horiz-adv-x="1613" 
d="M51 1352h563v-29l-432 -823h-102l405 766h-434v86zM254 0l776 1352h98l-778 -1352h-96zM1522 215q0 -103 -81 -165t-216 -62q-133 0 -214 63t-81 166q0 155 203 229q-162 70 -162 211q0 95 71.5 151t182.5 56q113 0 184.5 -56.5t71.5 -152.5q0 -138 -164 -209
q205 -73 205 -231zM1225 487q87 33 127.5 70t40.5 94q0 62 -46.5 98.5t-121.5 36.5q-73 0 -119.5 -36.5t-46.5 -98.5q0 -58 40 -95t126 -69zM1430 221q0 65 -49 106t-156 79q-106 -38 -154.5 -79t-48.5 -106q0 -70 55 -112.5t148 -42.5t149 43t56 112z" />
    <glyph glyph-name="arrowleft" unicode="&#x2190;" horiz-adv-x="1331" 
d="M1214 592h-899l416 -416l-63 -61l-510 510v28l510 510l63 -61l-418 -418h901v-92z" />
    <glyph glyph-name="arrowup" unicode="&#x2191;" horiz-adv-x="1331" 
d="M1186 635l-62 -64l-407 406v-860h-99v864l-409 -410l-64 64l506 506h29z" />
    <glyph glyph-name="arrowright" unicode="&#x2192;" horiz-adv-x="1331" 
d="M664 1163l510 -510v-28l-510 -510l-64 61l416 416h-899v92h901l-418 418z" />
    <glyph glyph-name="arrowdown" unicode="&#x2193;" horiz-adv-x="1331" 
d="M1124 707l62 -62l-506 -506h-29l-506 506l64 62l409 -410v866h99v-862z" />
    <glyph glyph-name="arrowboth" unicode="&#x2194;" horiz-adv-x="1972" 
d="M1303 1163l509 -510v-28l-509 -510l-62 61l414 416h-1340l416 -416l-63 -61l-510 510v28l510 510l63 -61l-418 -418h1344l-416 418z" />
    <glyph glyph-name="arrowupdn" unicode="&#x2195;" horiz-adv-x="1331" 
d="M717 51l397 398l64 -64l-498 -498h-29l-497 498l63 64l401 -402v1258l-401 -402l-63 64l497 497h29l498 -497l-64 -64l-397 397v-1249z" />
    <glyph glyph-name="uni2196" unicode="&#x2196;" horiz-adv-x="1331" 
d="M545 809l573 -576l-67 -67l-680 680v-604h-95v749l21 21h745v-92h-610z" />
    <glyph glyph-name="uni2197" unicode="&#x2197;" horiz-adv-x="1331" 
d="M1034 1012l21 -21v-749h-94v604l-680 -680l-68 67l573 576l113 111h-608v92h743z" />
    <glyph glyph-name="uni2198" unicode="&#x2198;" horiz-adv-x="1331" 
d="M961 995h94v-747l-21 -21h-743v92h606l-684 687l68 67l680 -680v602z" />
    <glyph glyph-name="uni2199" unicode="&#x2199;" horiz-adv-x="1331" 
d="M434 319h608v-92h-745l-21 21v747h95v-602l680 680l67 -67z" />
    <glyph glyph-name="partialdiff" unicode="&#x2202;" horiz-adv-x="1183" 
d="M1038 754q0 -223 -66.5 -400t-190 -278t-283.5 -101q-172 0 -289 109t-117 293q0 195 134 316.5t368 121.5q140 0 336 -41q-1 252 -94.5 378t-257.5 126q-188 0 -314 -164l-71 57q63 94 163.5 147.5t225.5 53.5q210 0 333 -158.5t123 -459.5zM928 684q-176 39 -330 39
q-202 0 -299 -100q-98 -98 -98 -242q0 -139 84.5 -225t218.5 -86q182 0 295.5 170.5t128.5 443.5z" />
    <glyph glyph-name="uni2206" unicode="&#x2206;" horiz-adv-x="1359" 
d="M702 1372l564 -1337v-35h-1172v35l565 1337h43zM680 1174l-449 -1078h897z" />
    <glyph glyph-name="product" unicode="&#x220f;" horiz-adv-x="1406" 
d="M201 -248v1600h1007v-1600h-106v1503h-795v-1503h-106z" />
    <glyph glyph-name="summation" unicode="&#x2211;" horiz-adv-x="1138" 
d="M285 -152h772v-96h-936v33l512 786l-512 748v33h911v-97h-743l452 -663v-35z" />
    <glyph glyph-name="minus" unicode="&#x2212;" 
d="M127 592v92h891v-92h-891z" />
    <glyph glyph-name="uni2219" unicode="&#x2219;" horiz-adv-x="573" 
d="M186 635q0 44 28.5 73t70.5 29q44 0 73 -28t29 -74q0 -42 -29.5 -70t-72.5 -28q-39 0 -69 28t-30 70z" />
    <glyph glyph-name="radical" unicode="&#x221a;" horiz-adv-x="1499" 
d="M1368 1536h113l-1051 -1808h-43v727h-317v92h419v-522z" />
    <glyph glyph-name="infinity" unicode="&#x221e;" horiz-adv-x="1632" 
d="M1552 635q0 -133 -95 -224.5t-240 -91.5q-116 0 -207 59t-195 185q-107 -127 -196 -185.5t-205 -58.5q-144 0 -239 91.5t-95 224.5q0 135 95.5 226t240.5 91q114 0 204 -57.5t195 -179.5q104 124 193 180.5t204 56.5q147 0 243.5 -91.5t96.5 -225.5zM752 639
q-92 113 -166 165t-162 52q-104 0 -171 -61t-67 -158q0 -99 66 -159t170 -60q88 0 159.5 51t170.5 170zM1444 637q0 98 -66.5 158.5t-169.5 60.5q-87 0 -158.5 -50.5t-170.5 -166.5q100 -118 172 -169.5t159 -51.5q104 0 169 60t65 159z" />
    <glyph glyph-name="integral" unicode="&#x222b;" horiz-adv-x="641" 
d="M12 -248v88q61 -6 101 -6q225 0 225 272q0 141 -72 568q-38 240 -55 375q-16 131 -16 206q0 173 85.5 264t231.5 91q50 0 117 -13v-88q-68 7 -99 7q-108 0 -167.5 -66.5t-59.5 -202.5q0 -117 68 -553q73 -461 73 -600q0 -174 -84 -264t-231 -90q-55 0 -117 12z" />
    <glyph glyph-name="approxequal" unicode="&#x2248;" 
d="M653 739l-198 119q-80 51 -131 51q-40 0 -63 -27t-23 -71v-61h-91l-2 69q0 77 47 131t123 54q75 0 172 -60l199 -121q82 -49 131 -49q40 0 63 27t23 69v64h90l4 -70q0 -77 -48 -130.5t-124 -53.5q-77 0 -172 59zM653 319l-198 119q-80 51 -131 51q-40 0 -63 -27t-23 -71
v-61h-91l-2 69q0 77 47 131t123 54q75 0 172 -60l199 -121q82 -49 131 -49q40 0 63 27t23 70v63h90l4 -70q0 -77 -48 -130.5t-124 -53.5q-77 0 -172 59z" />
    <glyph glyph-name="notequal" unicode="&#x2260;" 
d="M999 799h-270l-207 -324h477v-92h-536l-152 -238h-104l151 238h-211v92h271l207 324h-478v94h539l150 233h104l-149 -233h208v-94z" />
    <glyph glyph-name="lessequal" unicode="&#x2264;" 
d="M991 1049v-103l-674 -258l674 -258v-102l-872 344v33zM139 0v94h852v-94h-852z" />
    <glyph glyph-name="greaterequal" unicode="&#x2265;" 
d="M156 1049l872 -344v-33l-872 -344v102l673 258l-673 258v103zM156 0v94h852v-94h-852z" />
    <glyph glyph-name="uni24EA" unicode="&#x24ea;" horiz-adv-x="2002" 
d="M121 676q-3 140 41.5 275t127 244.5t192 192t244.5 127t275 41.5q175 3 339 -68t283.5 -190.5t190.5 -283.5t68 -338q2 -117 -29.5 -230.5t-89.5 -211t-140.5 -180t-180 -140.5t-211 -89.5t-230.5 -29.5q-175 -4 -339.5 67t-284 190.5t-190 284t-66.5 339.5zM1794 676
q2 126 -38 247.5t-115 220t-174 173t-220 114t-246 37.5q-126 2 -247 -37.5t-220 -114t-173.5 -172.5t-114.5 -219.5t-37 -248.5q-4 -159 59.5 -307t171.5 -255.5t256 -171t305 -59.5q125 -2 246 38t220 114.5t174 173t115 220t38 247.5zM672 682q0 219 83.5 343t245.5 124
t247 -124t85 -343q0 -212 -82 -346q-83 -135 -250 -135q-165 0 -247 135q-82 134 -82 346zM1237 682q0 183 -58.5 282t-177.5 99q-233 0 -233 -381q0 -187 57.5 -291t175.5 -104t177 104.5t59 290.5z" />
    <glyph glyph-name="uni24FF" unicode="&#x24ff;" horiz-adv-x="2002" 
d="M121 676q-3 140 41.5 275t127 244.5t192 192t244.5 127t275 41.5q175 3 339 -68t283.5 -190.5t190.5 -283.5t68 -338q2 -117 -29.5 -230.5t-89.5 -211t-140.5 -180t-180 -140.5t-211 -89.5t-230.5 -29.5q-175 -4 -339.5 67t-284 190.5t-190 284t-66.5 339.5zM1335 682
q0 218 -85.5 342.5t-248.5 124.5q-162 0 -246.5 -124t-84.5 -343q0 -212 82 -346q83 -135 249 -135q167 0 250 135q84 137 84 346zM772 682q0 377 229 377q232 0 232 -377q0 -184 -58.5 -287.5t-173.5 -103.5t-172 103t-57 288z" />
    <glyph glyph-name="filledbox" unicode="&#x25a0;" horiz-adv-x="1495" 
d="M184 113v1126h1127v-1126h-1127z" />
    <glyph glyph-name="uni25A1" unicode="&#x25a1;" horiz-adv-x="1495" 
d="M184 113v1126h1127v-1126h-1127zM289 209h917v934h-917v-934z" />
    <glyph glyph-name="uni25AA" unicode="&#x25aa;" horiz-adv-x="1085" 
d="M160 106v779h780v-779h-780z" />
    <glyph glyph-name="uni25AB" unicode="&#x25ab;" horiz-adv-x="1085" 
d="M160 106v779h780v-779h-780zM260 199h578v592h-578v-592z" />
    </font>
</defs>
</svg>
