<svg id="Layer_1" data-name="Layer 1" xmlns="http://www.w3.org/2000/svg" width="132.3" height="36.76" viewBox="0 0 132.3 36.76"><defs><style>.cls-1{fill:#e31e24;}.cls-2{fill:#0db02b;}</style></defs><g id="Layer_1-2" data-name="Layer_1"><g id="WAAREE_Logo.cdr"><path class="cls-1" d="M22,32.24A4.75,4.75,0,0,1,21,35.55a4,4,0,0,1-3.05,1.18,4.1,4.1,0,0,1-3.09-1.18,4.83,4.83,0,0,1-1.06-3.34,4.8,4.8,0,0,1,1.06-3.31,4.08,4.08,0,0,1,3.09-1.14A4,4,0,0,1,21,28.94,4.56,4.56,0,0,1,22,32.24Zm-6.77,0a3.82,3.82,0,0,0,.67,2.43,2.37,2.37,0,0,0,1.94.85,2.47,2.47,0,0,0,1.95-.81,3.87,3.87,0,0,0,.66-2.47,3.81,3.81,0,0,0-.66-2.42A2.32,2.32,0,0,0,17.86,29a2.32,2.32,0,0,0-1.94.85A3.81,3.81,0,0,0,15.25,32.24Zm14.41,4.38H28.23v-4a1.92,1.92,0,0,0-.29-1.14,1.22,1.22,0,0,0-1-.37,1.7,1.7,0,0,0-1.32.51,2.82,2.82,0,0,0-.4,1.77v3.27H23.78V30h1.11l.18.84h.07a2,2,0,0,1,.85-.73,2.77,2.77,0,0,1,1.25-.26,2.14,2.14,0,0,1,2.42,2.43Zm4.89.11a3.2,3.2,0,0,1-2.42-.88,3.38,3.38,0,0,1-.88-2.47,3.68,3.68,0,0,1,.8-2.53,2.82,2.82,0,0,1,2.25-.92,2.71,2.71,0,0,1,2.09.81,2.92,2.92,0,0,1,.77,2.17v.77H32.72a2.19,2.19,0,0,0,.51,1.47,1.92,1.92,0,0,0,1.4.51,4.71,4.71,0,0,0,1.1-.11,5.39,5.39,0,0,0,1.1-.36v1.13a3.65,3.65,0,0,1-1.06.34,6.59,6.59,0,0,1-1.22.11ZM34.3,31a1.52,1.52,0,0,0-1.11.44,2,2,0,0,0-.47,1.25h3.05a1.81,1.81,0,0,0-.41-1.25A1.34,1.34,0,0,0,34.3,31Zm11.8,5.66L46,32.87v-.4l0-1.18c-.11.26-.22.48-.33.73s-.81,1.81-2.09,4.6H42L41.72,30H43l.08,3.86c0,.33,0,.84-.08,1.47h0c.26-.7.48-1.25.66-1.62l1.69-3.67H47l.11,3.6V34l0,1.4h0c.07-.19.18-.52.33-1s.29-.77.37-1,.58-1.36,1.5-3.38h1.47l-3.12,6.58H46Zm6.21-8.23a1,1,0,0,1,.22-.67.8.8,0,0,1,.66-.25.71.71,0,0,1,.51.14.53.53,0,0,1,.19.48.75.75,0,0,1-.26.66A.88.88,0,0,1,53,29a.74.74,0,0,1-.52-.15.52.52,0,0,1-.22-.47ZM52,36.62H50.58L52,30h1.44Zm4.45-1a3.1,3.1,0,0,0,.92-.18v1.06a3.74,3.74,0,0,1-.59.19,6,6,0,0,1-.73.07c-1.11,0-1.66-.48-1.66-1.47a3.39,3.39,0,0,1,.11-.77l.74-3.38h-1l.11-.67L55.51,30l.77-1.4h.88L56.83,30h1.69l-.22,1.07H56.61l-.74,3.41a5,5,0,0,0-.07.56.5.5,0,0,0,.15.4.61.61,0,0,0,.47.15Zm6.07,1,.84-4a4,4,0,0,0,.11-.77c0-.55-.25-.81-.77-.81a1.64,1.64,0,0,0-1.25.74,4.35,4.35,0,0,0-.84,2L60,36.58H58.59l2-9.3H62l-.33,1.58c-.11.52-.26,1.07-.44,1.77l-.11.44h0a3.23,3.23,0,0,1,1-.92,2.22,2.22,0,0,1,1.06-.29,1.55,1.55,0,0,1,1.25.47A1.8,1.8,0,0,1,65,31.66a3.67,3.67,0,0,1-.14,1L64,36.58H62.53Zm9-1a3.1,3.1,0,0,0,.92-.18v1.06a3.74,3.74,0,0,1-.59.19,6.21,6.21,0,0,1-.73.07c-1.11,0-1.66-.48-1.66-1.47a3.39,3.39,0,0,1,.11-.77l.74-3.38h-1l.11-.67L70.61,30l.78-1.4h.88L71.94,30h1.69l-.22,1.07H71.72L71,34.52a3.4,3.4,0,0,0-.07.56.47.47,0,0,0,.15.4.61.61,0,0,0,.47.15Zm6.06,1,.85-4a5,5,0,0,0,.11-.77c0-.55-.26-.81-.77-.81a1.64,1.64,0,0,0-1.25.74,4.71,4.71,0,0,0-.88,2l-.59,2.79H73.66l2-9.3h1.43l-.33,1.58c-.11.52-.25,1.07-.44,1.77l-.11.44h0a3.71,3.71,0,0,1,1-.92,2.25,2.25,0,0,1,1.06-.29,1.55,1.55,0,0,1,1.25.47A1.8,1.8,0,0,1,80,31.66a3.67,3.67,0,0,1-.14,1L79,36.58h-1.4ZM84.73,31a1.6,1.6,0,0,0-1.1.51,3.08,3.08,0,0,0-.74,1.36h.19a3.74,3.74,0,0,0,1.76-.33,1,1,0,0,0,.62-.92.62.62,0,0,0-.18-.47.89.89,0,0,0-.59-.19Zm-.92,5.77a2.52,2.52,0,0,1-1.87-.66,2.48,2.48,0,0,1-.67-1.84A5.12,5.12,0,0,1,81.75,32,4,4,0,0,1,83,30.44a3.21,3.21,0,0,1,1.8-.55,2.34,2.34,0,0,1,1.51.44,1.5,1.5,0,0,1,.55,1.22,1.89,1.89,0,0,1-1,1.69,5.61,5.61,0,0,1-2.87.62h-.26v.37a1.52,1.52,0,0,0,.33,1,1.25,1.25,0,0,0,1,.37,3.72,3.72,0,0,0,.88-.11,6.24,6.24,0,0,0,1-.41v1.1a4.65,4.65,0,0,1-1.06.37,4.75,4.75,0,0,1-1.11.11Zm12.9-2.5a2.26,2.26,0,0,1-.84,1.84,3.74,3.74,0,0,1-2.36.66,5.37,5.37,0,0,1-2.46-.48V34.89a7.27,7.27,0,0,0,1.29.44,5.33,5.33,0,0,0,1.29.15,2.06,2.06,0,0,0,1.28-.33,1.11,1.11,0,0,0,0-1.69,6.8,6.8,0,0,0-1.55-.81,4.68,4.68,0,0,1-1.72-1.1A2.33,2.33,0,0,1,91.2,30,2.14,2.14,0,0,1,92,28.31a3.37,3.37,0,0,1,2.13-.62,6.29,6.29,0,0,1,2.54.55l-.48,1.17a5.47,5.47,0,0,0-2.09-.47,1.79,1.79,0,0,0-1.07.29.94.94,0,0,0-.37.81,1.1,1.1,0,0,0,.15.59,2.1,2.1,0,0,0,.48.44,6.33,6.33,0,0,0,1.21.55,6.34,6.34,0,0,1,1.43.73,2.24,2.24,0,0,1,.67.78,2.3,2.3,0,0,1,.22,1ZM103,36.58l-.19-.84h-.07a2.09,2.09,0,0,1-.84.73,2.67,2.67,0,0,1-1.25.26,2.37,2.37,0,0,1-1.81-.59,2.42,2.42,0,0,1-.58-1.8V30h1.43v4.08a1.7,1.7,0,0,0,.33,1.14,1.21,1.21,0,0,0,1,.37,1.71,1.71,0,0,0,1.33-.52,2.84,2.84,0,0,0,.44-1.76V30.08h1.43v6.58h-1.1Zm9,0h-1.43v-4a1.87,1.87,0,0,0-.3-1.14,1.21,1.21,0,0,0-1-.37,1.68,1.68,0,0,0-1.32.52,2.72,2.72,0,0,0-.41,1.76v3.27h-1.43V30h1.1l.19.85h.07a2.11,2.11,0,0,1,.85-.74,2.74,2.74,0,0,1,1.25-.25A2.14,2.14,0,0,1,112,32.28Z" transform="translate(0 -0.01)"/><polygon class="cls-2" points="5.22 21.28 0 21.28 1.4 0 6.65 0 5.92 11.06 12.57 0 12.57 0 12.57 0 18.01 0 18.05 0 18.01 0 17.31 11.06 23.41 0 28.16 0 16.61 21.28 11.18 21.28 11.87 10.22 5.22 21.28"/><path class="cls-2" d="M62.45,21.29H57.38L62.89,0h12a6.33,6.33,0,0,1,1,.07,5.22,5.22,0,0,1,4.26,6.36,8.1,8.1,0,0,1-7.24,6.47l4.63,8.34h-6L65.32,10h0l-2.9,11.24Zm4.38-17L65.72,8.65h6.66a2.89,2.89,0,0,0,2.68-2.17,1.64,1.64,0,0,0-1.65-2.17Z" transform="translate(0 -0.01)"/><polygon class="cls-2" points="78.55 21.28 84.03 0 103.73 0 102.52 4.82 87.74 4.82 86.75 8.53 101.49 8.53 100.39 13.05 85.65 13.05 84.69 16.58 99.47 16.58 98.22 21.28 78.55 21.28"/><path class="cls-2" d="M37,21.29H32.13v-4H26.87l-2.2,4H19.19l0-.07L30.88,0H37V21.29ZM32.13,13V7.65L29.22,13Z" transform="translate(0 -0.01)"/><path class="cls-2" d="M56,21.29H51.06v-4H45.8l-2.2,4H38.12l0-.07L49.81,0H56V21.29ZM51.06,13V7.65L48.15,13Z" transform="translate(0 -0.01)"/><polygon class="cls-2" points="100.2 21.28 105.72 0 125.35 0 124.14 4.82 109.43 4.82 108.44 8.53 123.18 8.53 122.04 13.05 107.3 13.05 106.38 16.58 121.12 16.58 120.5 18.97 119.91 21.28 100.2 21.28"/><polygon class="cls-2" points="0 22.97 119.91 22.97 119.91 21.28 0 21.28 0 22.97"/><path class="cls-2" d="M129.24,0a3,3,0,0,1,2.17,5.18,3.1,3.1,0,0,1-4.33,0A3,3,0,0,1,126.19,3a2.94,2.94,0,0,1,.89-2.13A3,3,0,0,1,129.24,0Zm1.81,1.25a2.47,2.47,0,0,0-1.81-.74,2.68,2.68,0,0,0-1.8.74,2.64,2.64,0,0,0-.73,1.8,2.58,2.58,0,0,0,.73,1.8,2.6,2.6,0,0,0,1.8.73,2.68,2.68,0,0,0,1.81-.73,2.66,2.66,0,0,0,.73-1.8A2.58,2.58,0,0,0,131.05,1.26Z" transform="translate(0 -0.01)"/><path class="cls-2" d="M128,4.45V1.62h1.25a2.09,2.09,0,0,1,.59.08c.15,0,.22.15.33.26a.78.78,0,0,1,.11.44.88.88,0,0,1-.18.51.88.88,0,0,1-.59.26.52.52,0,0,1,.22.15,1.74,1.74,0,0,1,.3.36l.47.77H130l-.37-.58a4.42,4.42,0,0,0-.26-.41l-.18-.18a.37.37,0,0,0-.19-.07h-.66V4.45Zm.37-1.58h.81a1.59,1.59,0,0,0,.41,0,.38.38,0,0,0,.22-.19.57.57,0,0,0,.07-.25.35.35,0,0,0-.15-.33.77.77,0,0,0-.48-.11h-.88Z" transform="translate(0 -0.01)"/></g></g></svg>